<svg width="1977" height="2121" viewBox="0 0 1977 2121" fill="none" xmlns="http://www.w3.org/2000/svg">
<g clip-path="url(#clip0_2006_1186)">
<rect width="1977" height="2121" fill="white"/>
<rect width="1977" height="2121" fill="url(#paint0_linear_2006_1186)"/>
<path d="M208.342 -54.2371C214.639 -61.9209 226.361 -61.921 232.658 -54.2372L245.75 -38.2624C248.687 -34.6779 253.047 -32.5711 257.671 -32.5013L278.28 -32.1904C288.193 -32.0409 295.501 -22.8441 293.441 -13.113L289.157 7.11809C288.196 11.6576 289.273 16.3916 292.101 20.0631L304.708 36.4256C310.772 44.2959 308.164 55.764 299.298 60.2147L280.864 69.4677C276.728 71.5439 273.711 75.3403 272.614 79.8488L267.726 99.9415C265.375 109.606 254.814 114.71 245.818 110.529L227.116 101.836C222.919 99.8854 218.081 99.8854 213.884 101.836L195.182 110.529C186.186 114.71 175.625 109.606 173.274 99.9415L168.386 79.8488C167.289 75.3403 164.272 71.5439 160.136 69.4677L141.702 60.2147C132.836 55.764 130.228 44.2959 136.292 36.4256L148.899 20.0631C151.727 16.3916 152.804 11.6576 151.843 7.11809L147.559 -13.113C145.499 -22.8441 152.807 -32.0409 162.72 -32.1904L183.329 -32.5013C187.953 -32.5711 192.313 -34.6779 195.25 -38.2624L208.342 -54.2371Z" fill="#327DE0"/>
<path d="M21.8386 282.314C32.0217 269.895 50.9783 269.895 61.1614 282.314L82.3324 308.134C87.0828 313.928 94.133 317.333 101.611 317.446L134.938 317.948C150.969 318.19 162.788 333.054 159.456 348.782L152.528 381.482C150.974 388.819 152.715 396.47 157.29 402.404L177.677 428.851C187.483 441.571 183.265 460.107 168.927 467.3L139.118 482.256C132.429 485.612 127.55 491.748 125.776 499.035L117.872 531.51C114.07 547.131 96.9904 555.38 82.4431 548.622L52.1989 534.572C45.4126 531.419 37.5874 531.419 30.8011 534.572L0.556953 548.622C-13.9904 555.38 -31.0697 547.131 -34.8717 531.51L-42.7762 499.035C-44.5499 491.748 -49.4288 485.612 -56.1175 482.256L-85.9269 467.3C-100.265 460.107 -104.483 441.571 -94.677 428.851L-74.2896 402.404C-69.715 396.47 -67.9738 388.819 -69.5282 381.482L-76.4557 348.782C-79.7878 333.054 -67.9685 318.19 -51.9383 317.948L-18.6111 317.446C-11.133 317.333 -4.08274 313.928 0.667664 308.134L21.8386 282.314Z" fill="#327DE0"/>
<path d="M577.258 178.768C584.634 169.744 598.366 169.744 605.742 178.768L621.078 197.529C624.519 201.739 629.626 204.213 635.043 204.295L659.185 204.66C670.797 204.836 679.359 215.637 676.945 227.065L671.927 250.825C670.801 256.156 672.062 261.716 675.376 266.028L690.144 285.244C697.248 294.487 694.192 307.955 683.806 313.182L662.212 324.049C657.367 326.488 653.833 330.946 652.548 336.241L646.822 359.838C644.068 371.189 631.696 377.183 621.158 372.272L599.25 362.063C594.334 359.772 588.666 359.772 583.75 362.063L561.842 372.272C551.304 377.183 538.932 371.189 536.178 359.838L530.452 336.241C529.167 330.946 525.633 326.488 520.788 324.049L499.194 313.182C488.808 307.955 485.752 294.487 492.856 285.244L507.624 266.028C510.938 261.716 512.199 256.156 511.073 250.825L506.055 227.065C503.641 215.637 512.203 204.836 523.815 204.66L547.957 204.295C553.374 204.213 558.481 201.739 561.922 197.529L577.258 178.768Z" fill="#327DE0"/>
<path d="M885.121 777.49C889.979 771.503 899.021 771.503 903.879 777.49L913.978 789.935C916.244 792.728 919.608 794.369 923.175 794.423L939.073 794.666C946.72 794.782 952.358 801.947 950.769 809.528L947.464 825.29C946.722 828.826 947.553 832.514 949.735 835.375L959.461 848.122C964.139 854.254 962.126 863.188 955.287 866.656L941.067 873.864C937.876 875.482 935.549 878.44 934.702 881.952L930.932 897.606C929.118 905.135 920.971 909.111 914.031 905.854L899.604 899.081C896.366 897.562 892.634 897.562 889.396 899.081L874.969 905.854C868.029 909.111 859.882 905.135 858.068 897.606L854.298 881.952C853.451 878.44 851.124 875.482 847.933 873.864L833.713 866.656C826.874 863.188 824.861 854.254 829.539 848.122L839.265 835.375C841.447 832.514 842.278 828.826 841.536 825.29L838.231 809.528C836.642 801.947 842.28 794.782 849.927 794.666L865.825 794.423C869.392 794.369 872.756 792.728 875.022 789.935L885.121 777.49Z" fill="#327DE0"/>
<path d="M750.121 1128.49C754.979 1122.5 764.021 1122.5 768.879 1128.49L778.978 1140.94C781.244 1143.73 784.608 1145.37 788.175 1145.42L804.073 1145.67C811.72 1145.78 817.358 1152.95 815.769 1160.53L812.464 1176.29C811.722 1179.83 812.553 1183.51 814.735 1186.37L824.461 1199.12C829.139 1205.25 827.126 1214.19 820.287 1217.66L806.067 1224.86C802.876 1226.48 800.549 1229.44 799.702 1232.95L795.932 1248.61C794.118 1256.13 785.971 1260.11 779.031 1256.85L764.604 1250.08C761.366 1248.56 757.634 1248.56 754.396 1250.08L739.969 1256.85C733.029 1260.11 724.882 1256.13 723.068 1248.61L719.298 1232.95C718.451 1229.44 716.124 1226.48 712.933 1224.86L698.713 1217.66C691.874 1214.19 689.861 1205.25 694.539 1199.12L704.265 1186.37C706.447 1183.51 707.278 1179.83 706.536 1176.29L703.231 1160.53C701.642 1152.95 707.28 1145.78 714.927 1145.67L730.825 1145.42C734.392 1145.37 737.756 1143.73 740.022 1140.94L750.121 1128.49Z" fill="#327DE0"/>
<path d="M32.1209 949.49C36.9786 943.503 46.0214 943.503 50.8791 949.49L60.9783 961.935C63.2444 964.728 66.6076 966.369 70.1749 966.423L86.073 966.666C93.72 966.782 99.3581 973.947 97.7686 981.528L94.464 997.29C93.7225 1000.83 94.5531 1004.51 96.7353 1007.37L106.461 1020.12C111.139 1026.25 109.126 1035.19 102.287 1038.66L88.0667 1045.86C84.8759 1047.48 82.5485 1050.44 81.7024 1053.95L77.9317 1069.61C76.118 1077.13 67.9707 1081.11 61.0311 1077.85L46.6037 1071.08C43.3664 1069.56 39.6336 1069.56 36.3963 1071.08L21.9689 1077.85C15.0293 1081.11 6.88195 1077.13 5.06826 1069.61L1.29756 1053.95C0.451474 1050.44 -1.87594 1047.48 -5.06667 1045.86L-19.2867 1038.66C-26.1265 1035.19 -28.1387 1026.25 -23.4608 1020.12L-13.7353 1007.37C-11.5531 1004.51 -10.7225 1000.83 -11.464 997.29L-14.7686 981.528C-16.3581 973.947 -10.72 966.782 -3.07303 966.666L12.8251 966.423C16.3924 966.369 19.7556 964.728 22.0217 961.935L32.1209 949.49Z" fill="#327DE0"/>
<path d="M1538.12 176.49C1542.98 170.503 1552.02 170.503 1556.88 176.49L1566.98 188.935C1569.24 191.728 1572.61 193.369 1576.17 193.423L1592.07 193.666C1599.72 193.782 1605.36 200.947 1603.77 208.528L1600.46 224.29C1599.72 227.826 1600.55 231.514 1602.74 234.375L1612.46 247.122C1617.14 253.254 1615.13 262.188 1608.29 265.656L1594.07 272.864C1590.88 274.482 1588.55 277.44 1587.7 280.952L1583.93 296.606C1582.12 304.135 1573.97 308.111 1567.03 304.854L1552.6 298.081C1549.37 296.562 1545.63 296.562 1542.4 298.081L1527.97 304.854C1521.03 308.111 1512.88 304.135 1511.07 296.606L1507.3 280.952C1506.45 277.44 1504.12 274.482 1500.93 272.864L1486.71 265.656C1479.87 262.188 1477.86 253.254 1482.54 247.122L1492.26 234.375C1494.45 231.514 1495.28 227.826 1494.54 224.29L1491.23 208.528C1489.64 200.947 1495.28 193.782 1502.93 193.666L1518.83 193.423C1522.39 193.369 1525.76 191.728 1528.02 188.935L1538.12 176.49Z" fill="#327DE0"/>
<path d="M1538.12 844.49C1542.98 838.503 1552.02 838.503 1556.88 844.49L1566.98 856.935C1569.24 859.728 1572.61 861.369 1576.17 861.423L1592.07 861.666C1599.72 861.782 1605.36 868.947 1603.77 876.528L1600.46 892.29C1599.72 895.826 1600.55 899.514 1602.74 902.375L1612.46 915.122C1617.14 921.254 1615.13 930.188 1608.29 933.656L1594.07 940.864C1590.88 942.482 1588.55 945.44 1587.7 948.952L1583.93 964.606C1582.12 972.135 1573.97 976.111 1567.03 972.854L1552.6 966.081C1549.37 964.562 1545.63 964.562 1542.4 966.081L1527.97 972.854C1521.03 976.111 1512.88 972.135 1511.07 964.606L1507.3 948.952C1506.45 945.44 1504.12 942.482 1500.93 940.864L1486.71 933.656C1479.87 930.188 1477.86 921.254 1482.54 915.122L1492.26 902.375C1494.45 899.514 1495.28 895.826 1494.54 892.29L1491.23 876.528C1489.64 868.947 1495.28 861.782 1502.93 861.666L1518.83 861.423C1522.39 861.369 1525.76 859.728 1528.02 856.935L1538.12 844.49Z" fill="#327DE0"/>
<path d="M1766.81 380.5C1773.9 371.833 1787.1 371.833 1794.19 380.5L1808.92 398.518C1812.23 402.561 1817.14 404.937 1822.34 405.016L1845.54 405.367C1856.7 405.535 1864.93 415.908 1862.61 426.884L1857.79 449.703C1856.71 454.823 1857.92 460.163 1861.1 464.304L1875.29 482.759C1882.12 491.636 1879.18 504.571 1869.2 509.591L1848.45 520.028C1843.8 522.369 1840.4 526.651 1839.17 531.736L1833.66 554.399C1831.02 565.3 1819.13 571.056 1809 566.34L1787.95 556.536C1783.22 554.336 1777.78 554.336 1773.05 556.536L1752 566.34C1741.87 571.056 1729.98 565.3 1727.34 554.399L1721.83 531.736C1720.6 526.651 1717.2 522.369 1712.55 520.028L1691.8 509.591C1681.82 504.571 1678.88 491.636 1685.71 482.759L1699.9 464.304C1703.08 460.163 1704.29 454.823 1703.21 449.703L1698.39 426.884C1696.07 415.908 1704.3 405.535 1715.46 405.367L1738.66 405.016C1743.86 404.937 1748.77 402.561 1752.08 398.518L1766.81 380.5Z" fill="#327DE0"/>
<path d="M384.754 763.32C396.017 749.56 416.983 749.56 428.246 763.32L451.661 791.925C456.915 798.344 464.712 802.117 472.983 802.242L509.843 802.799C527.573 803.066 540.645 819.535 536.96 836.96L529.298 873.188C527.579 881.317 529.505 889.794 534.564 896.369L557.113 925.669C567.959 939.762 563.293 960.298 547.435 968.268L514.466 984.838C507.068 988.555 501.672 995.354 499.71 1003.43L490.968 1039.41C486.763 1056.71 467.873 1065.85 451.783 1058.37L418.333 1042.8C410.827 1039.31 402.173 1039.31 394.667 1042.8L361.217 1058.37C345.127 1065.85 326.237 1056.71 322.032 1039.41L313.29 1003.43C311.328 995.354 305.932 988.555 298.534 984.838L265.565 968.268C249.707 960.298 245.041 939.762 255.887 925.669L278.436 896.369C283.495 889.794 285.421 881.317 283.702 873.188L276.04 836.96C272.355 819.535 285.427 803.066 303.157 802.799L340.017 802.242C348.288 802.117 356.085 798.344 361.339 791.925L384.754 763.32Z" fill="#327DE0"/>
<g opacity="0.3" style="mix-blend-mode:lighten">
<path d="M197.148 1358.89C202.51 1352.37 212.49 1352.37 217.852 1358.89L228.998 1372.45C231.499 1375.49 235.211 1377.28 239.149 1377.34L256.695 1377.61C265.135 1377.73 271.358 1385.54 269.604 1393.8L265.957 1410.97C265.138 1414.83 266.055 1418.84 268.463 1421.96L279.197 1435.85C284.36 1442.53 282.14 1452.26 274.59 1456.04L258.896 1463.9C255.374 1465.66 252.805 1468.88 251.872 1472.71L247.71 1489.76C245.708 1497.97 236.716 1502.3 229.057 1498.75L213.133 1491.37C209.56 1489.72 205.44 1489.72 201.867 1491.37L185.943 1498.75C178.284 1502.3 169.292 1497.97 167.29 1489.76L163.128 1472.71C162.195 1468.88 159.626 1465.66 156.104 1463.9L140.41 1456.04C132.86 1452.26 130.64 1442.53 135.803 1435.85L146.537 1421.96C148.945 1418.84 149.862 1414.83 149.043 1410.97L145.396 1393.8C143.642 1385.54 149.865 1377.73 158.305 1377.61L175.851 1377.34C179.789 1377.28 183.501 1375.49 186.002 1372.45L197.148 1358.89Z" fill="#327DE0"/>
</g>
<g opacity="0.3" style="mix-blend-mode:lighten">
<path d="M33.4217 1670.52C43.8208 1657.83 63.1792 1657.83 73.5783 1670.52L95.1981 1696.89C100.049 1702.81 107.249 1706.29 114.886 1706.4L148.919 1706.92C165.289 1707.17 177.359 1722.35 173.956 1738.42L166.882 1771.82C165.295 1779.32 167.073 1787.14 171.745 1793.2L192.564 1820.21C202.578 1833.21 198.271 1852.15 183.628 1859.49L153.187 1874.77C146.357 1878.2 141.374 1884.47 139.563 1891.91L131.491 1925.09C127.608 1941.05 110.167 1949.47 95.3111 1942.57L64.4257 1928.22C57.4956 1925 49.5044 1925 42.5743 1928.22L11.6889 1942.57C-3.16688 1949.47 -20.6083 1941.05 -24.4909 1925.09L-32.563 1891.91C-34.3743 1884.47 -39.3566 1878.2 -46.1872 1874.77L-76.6285 1859.49C-91.2707 1852.15 -95.5784 1833.21 -85.5642 1820.21L-64.7445 1793.2C-60.073 1787.14 -58.2948 1779.32 -59.8821 1771.82L-66.9565 1738.42C-70.3592 1722.35 -58.2894 1707.17 -41.9193 1706.92L-7.88552 1706.4C-0.248912 1706.29 6.95084 1702.81 11.802 1696.89L33.4217 1670.52Z" fill="#327DE0"/>
</g>
<g opacity="0.3" style="mix-blend-mode:lighten">
<path d="M1082.23 1225.3C1089.1 1216.9 1101.9 1216.9 1108.77 1225.3L1123.06 1242.76C1126.26 1246.68 1131.02 1248.98 1136.07 1249.06L1158.56 1249.4C1169.38 1249.56 1177.36 1259.61 1175.11 1270.25L1170.43 1292.36C1169.39 1297.32 1170.56 1302.5 1173.65 1306.51L1187.41 1324.4C1194.03 1333 1191.18 1345.53 1181.5 1350.4L1161.38 1360.51C1156.87 1362.78 1153.58 1366.93 1152.38 1371.86L1147.04 1393.82C1144.48 1404.38 1132.95 1409.96 1123.13 1405.39L1102.72 1395.89C1098.14 1393.76 1092.86 1393.76 1088.28 1395.89L1067.87 1405.39C1058.05 1409.96 1046.52 1404.38 1043.96 1393.82L1038.62 1371.86C1037.42 1366.93 1034.13 1362.78 1029.62 1360.51L1009.5 1350.4C999.821 1345.53 996.974 1333 1003.59 1324.4L1017.35 1306.51C1020.44 1302.5 1021.61 1297.32 1020.57 1292.36L1015.89 1270.25C1013.64 1259.61 1021.62 1249.56 1032.44 1249.4L1054.93 1249.06C1059.98 1248.98 1064.74 1246.68 1067.94 1242.76L1082.23 1225.3Z" fill="#327DE0"/>
</g>
<g opacity="0.3" style="mix-blend-mode:lighten">
<path d="M547.697 1931.79C560.543 1916.07 584.457 1916.07 597.303 1931.79L624.009 1964.49C630.002 1971.82 638.896 1976.13 648.329 1976.28L690.371 1976.91C710.593 1977.22 725.503 1996.04 721.299 2015.95L712.56 2057.36C710.599 2066.65 712.796 2076.34 718.567 2083.85L744.285 2117.34C756.656 2133.44 751.334 2156.91 733.247 2166.02L695.643 2184.96C687.205 2189.21 681.051 2196.98 678.813 2206.2L668.842 2247.32C664.045 2267.1 642.5 2277.55 624.149 2268.99L585.996 2251.2C577.436 2247.21 567.564 2247.21 559.004 2251.2L520.851 2268.99C502.5 2277.55 480.955 2267.1 476.158 2247.32L466.187 2206.2C463.949 2196.98 457.795 2189.21 449.357 2184.96L411.753 2166.02C393.666 2156.91 388.344 2133.44 400.715 2117.34L426.433 2083.85C432.204 2076.34 434.401 2066.65 432.44 2057.36L423.701 2015.95C419.497 1996.04 434.407 1977.22 454.629 1976.91L496.671 1976.28C506.104 1976.13 514.998 1971.82 520.991 1964.49L547.697 1931.79Z" fill="#327DE0"/>
</g>
<g opacity="0.3" style="mix-blend-mode:lighten">
<path d="M1598.45 1320.64C1606.76 1310.45 1622.24 1310.45 1630.55 1320.64L1647.83 1341.81C1651.71 1346.57 1657.46 1349.36 1663.57 1349.45L1690.77 1349.86C1703.85 1350.06 1713.5 1362.25 1710.78 1375.15L1705.13 1401.97C1703.86 1407.99 1705.28 1414.26 1709.01 1419.13L1725.66 1440.82C1733.66 1451.25 1730.22 1466.45 1718.51 1472.35L1694.18 1484.62C1688.72 1487.37 1684.74 1492.4 1683.29 1498.38L1676.84 1525.02C1673.74 1537.83 1659.79 1544.59 1647.92 1539.05L1623.23 1527.53C1617.69 1524.94 1611.31 1524.94 1605.77 1527.53L1581.08 1539.05C1569.21 1544.59 1555.26 1537.83 1552.16 1525.02L1545.71 1498.38C1544.26 1492.4 1540.28 1487.37 1534.82 1484.62L1510.49 1472.35C1498.78 1466.45 1495.34 1451.25 1503.34 1440.82L1519.99 1419.13C1523.72 1414.26 1525.14 1407.99 1523.87 1401.97L1518.22 1375.15C1515.5 1362.25 1525.15 1350.06 1538.23 1349.86L1565.43 1349.45C1571.54 1349.36 1577.29 1346.57 1581.17 1341.81L1598.45 1320.64Z" fill="#327DE0"/>
</g>
<g opacity="0.3" style="mix-blend-mode:lighten">
<path d="M1954.75 1622.32C1966.02 1608.56 1986.98 1608.56 1998.25 1622.32L2021.66 1650.93C2026.91 1657.34 2034.71 1661.12 2042.98 1661.24L2079.84 1661.8C2097.57 1662.07 2110.65 1678.53 2106.96 1695.96L2099.3 1732.19C2097.58 1740.32 2099.5 1748.79 2104.56 1755.37L2127.11 1784.67C2137.96 1798.76 2133.29 1819.3 2117.44 1827.27L2084.47 1843.84C2077.07 1847.56 2071.67 1854.35 2069.71 1862.43L2060.97 1898.41C2056.76 1915.71 2037.87 1924.85 2021.78 1917.37L1988.33 1901.8C1980.83 1898.31 1972.17 1898.31 1964.67 1901.8L1931.22 1917.37C1915.13 1924.85 1896.24 1915.71 1892.03 1898.41L1883.29 1862.43C1881.33 1854.35 1875.93 1847.56 1868.53 1843.84L1835.56 1827.27C1819.71 1819.3 1815.04 1798.76 1825.89 1784.67L1848.44 1755.37C1853.5 1748.79 1855.42 1740.32 1853.7 1732.19L1846.04 1695.96C1842.35 1678.53 1855.43 1662.07 1873.16 1661.8L1910.02 1661.24C1918.29 1661.12 1926.09 1657.34 1931.34 1650.93L1954.75 1622.32Z" fill="#327DE0"/>
</g>
<g opacity="0.3" style="mix-blend-mode:lighten">
<path d="M1197.59 1666.16C1203.24 1659.28 1213.76 1659.28 1219.41 1666.16L1231.15 1680.46C1233.79 1683.67 1237.7 1685.56 1241.85 1685.62L1260.34 1685.9C1269.23 1686.03 1275.79 1694.27 1273.94 1702.98L1270.1 1721.09C1269.23 1725.16 1270.2 1729.4 1272.74 1732.68L1284.05 1747.33C1289.49 1754.38 1287.15 1764.65 1279.19 1768.63L1262.66 1776.92C1258.94 1778.78 1256.24 1782.18 1255.25 1786.21L1250.87 1804.2C1248.76 1812.86 1239.28 1817.43 1231.21 1813.68L1214.44 1805.9C1210.67 1804.15 1206.33 1804.15 1202.56 1805.9L1185.79 1813.68C1177.72 1817.43 1168.24 1812.86 1166.13 1804.2L1161.75 1786.21C1160.76 1782.18 1158.06 1778.78 1154.34 1776.92L1137.81 1768.63C1129.85 1764.65 1127.51 1754.38 1132.95 1747.33L1144.26 1732.68C1146.8 1729.4 1147.77 1725.16 1146.9 1721.09L1143.06 1702.98C1141.21 1694.27 1147.77 1686.03 1156.66 1685.9L1175.15 1685.62C1179.3 1685.56 1183.21 1683.67 1185.85 1680.46L1197.59 1666.16Z" fill="#327DE0"/>
</g>
<g opacity="0.3" style="mix-blend-mode:lighten">
<path d="M1946.59 1164.16C1952.24 1157.28 1962.76 1157.28 1968.41 1164.16L1980.15 1178.46C1982.79 1181.67 1986.7 1183.56 1990.85 1183.62L2009.34 1183.9C2018.23 1184.03 2024.79 1192.27 2022.94 1200.98L2019.1 1219.09C2018.23 1223.16 2019.2 1227.4 2021.74 1230.68L2033.05 1245.33C2038.49 1252.38 2036.15 1262.65 2028.19 1266.63L2011.66 1274.92C2007.94 1276.78 2005.24 1280.18 2004.25 1284.21L1999.87 1302.2C1997.76 1310.86 1988.28 1315.43 1980.21 1311.68L1963.44 1303.9C1959.67 1302.15 1955.33 1302.15 1951.56 1303.9L1934.79 1311.68C1926.72 1315.43 1917.24 1310.86 1915.13 1302.2L1910.75 1284.21C1909.76 1280.18 1907.06 1276.78 1903.34 1274.92L1886.81 1266.63C1878.85 1262.65 1876.51 1252.38 1881.95 1245.33L1893.26 1230.68C1895.8 1227.4 1896.77 1223.16 1895.9 1219.09L1892.06 1200.98C1890.21 1192.27 1896.77 1184.03 1905.66 1183.9L1924.15 1183.62C1928.3 1183.56 1932.21 1181.67 1934.85 1178.46L1946.59 1164.16Z" fill="#327DE0"/>
</g>
<g opacity="0.3" style="mix-blend-mode:lighten">
<path d="M1454 1953.06C1467.21 1936.98 1491.79 1936.98 1505 1953.06L1532.45 1986.5C1538.61 1994 1547.76 1998.41 1557.45 1998.56L1600.67 1999.21C1621.46 1999.52 1636.79 2018.77 1632.47 2039.14L1623.48 2081.48C1621.47 2090.98 1623.73 2100.89 1629.66 2108.57L1656.1 2142.82C1668.81 2159.29 1663.34 2183.3 1644.75 2192.61L1606.09 2211.98C1597.42 2216.32 1591.09 2224.27 1588.79 2233.71L1578.54 2275.76C1573.61 2295.99 1551.46 2306.67 1532.6 2297.92L1493.37 2279.73C1484.57 2275.64 1474.43 2275.64 1465.63 2279.73L1426.4 2297.92C1407.54 2306.67 1385.39 2295.99 1380.46 2275.76L1370.21 2233.71C1367.91 2224.27 1361.58 2216.32 1352.91 2211.98L1314.25 2192.61C1295.66 2183.3 1290.19 2159.29 1302.9 2142.82L1329.34 2108.57C1335.27 2100.89 1337.53 2090.98 1335.52 2081.48L1326.53 2039.14C1322.21 2018.77 1337.54 1999.52 1358.33 1999.21L1401.55 1998.56C1411.24 1998.41 1420.39 1994 1426.55 1986.5L1454 1953.06Z" fill="#327DE0"/>
</g>
<g opacity="0.3" style="mix-blend-mode:lighten">
<path d="M678.98 1521.9C686.5 1512.7 700.5 1512.7 708.02 1521.9L723.655 1541.03C727.164 1545.33 732.37 1547.85 737.893 1547.93L762.506 1548.31C774.344 1548.49 783.073 1559.5 780.612 1571.16L775.496 1595.39C774.348 1600.82 775.634 1606.49 779.012 1610.89L794.069 1630.49C801.311 1639.91 798.196 1653.65 787.607 1658.98L765.592 1670.06C760.652 1672.55 757.049 1677.09 755.739 1682.49L749.902 1706.56C747.094 1718.13 734.481 1724.25 723.737 1719.24L701.401 1708.83C696.39 1706.49 690.61 1706.49 685.599 1708.83L663.263 1719.24C652.519 1724.25 639.906 1718.13 637.098 1706.56L631.261 1682.49C629.951 1677.09 626.348 1672.55 621.408 1670.06L599.393 1658.98C588.804 1653.65 585.689 1639.91 592.931 1630.49L607.988 1610.89C611.366 1606.49 612.652 1600.82 611.504 1595.39L606.388 1571.16C603.927 1559.5 612.656 1548.49 624.494 1548.31L649.107 1547.93C654.63 1547.85 659.836 1545.33 663.345 1541.03L678.98 1521.9Z" fill="#327DE0"/>
</g>
<path d="M968.839 -103.686C979.022 -116.105 997.978 -116.105 1008.16 -103.686L1029.33 -77.866C1034.08 -72.0725 1041.13 -68.6672 1048.61 -68.5545L1081.94 -68.0519C1097.97 -67.8102 1109.79 -52.9457 1106.46 -37.2176L1099.53 -4.51843C1097.97 2.8187 1099.72 10.4702 1104.29 16.4043L1124.68 42.8506C1134.48 55.5712 1130.27 74.1069 1115.93 81.3005L1086.12 96.256C1079.43 99.6117 1074.55 105.748 1072.78 113.035L1064.87 145.51C1061.07 161.131 1043.99 169.38 1029.44 162.622L999.199 148.572C992.413 145.419 984.587 145.419 977.801 148.572L947.557 162.622C933.01 169.38 915.93 161.131 912.128 145.51L904.224 113.035C902.45 105.748 897.571 99.6117 890.882 96.256L861.073 81.3005C846.735 74.1069 842.517 55.5712 852.323 42.8506L872.71 16.4043C877.285 10.4702 879.026 2.8187 877.472 -4.51843L870.544 -37.2175C867.212 -52.9457 879.031 -67.8102 895.062 -68.0519L928.389 -68.5545C935.867 -68.6672 942.917 -72.0725 947.668 -77.866L968.839 -103.686Z" fill="#327DE0"/>
<path d="M1917.84 -50.6856C1928.02 -63.1048 1946.98 -63.1048 1957.16 -50.6856L1978.33 -24.866C1983.08 -19.0725 1990.13 -15.6672 1997.61 -15.5545L2030.94 -15.0519C2046.97 -14.8102 2058.79 0.0542641 2055.46 15.7824L2048.53 48.4816C2046.97 55.8187 2048.72 63.4702 2053.29 69.4043L2073.68 95.8506C2083.48 108.571 2079.27 127.107 2064.93 134.3L2035.12 149.256C2028.43 152.612 2023.55 158.748 2021.78 166.035L2013.87 198.51C2010.07 214.131 1992.99 222.38 1978.44 215.622L1948.2 201.572C1941.41 198.419 1933.59 198.419 1926.8 201.572L1896.56 215.622C1882.01 222.38 1864.93 214.131 1861.13 198.51L1853.22 166.035C1851.45 158.748 1846.57 152.612 1839.88 149.256L1810.07 134.3C1795.73 127.107 1791.52 108.571 1801.32 95.8506L1821.71 69.4043C1826.28 63.4702 1828.03 55.8187 1826.47 48.4816L1819.54 15.7825C1816.21 0.054287 1828.03 -14.8102 1844.06 -15.0519L1877.39 -15.5545C1884.87 -15.6672 1891.92 -19.0725 1896.67 -24.866L1917.84 -50.6856Z" fill="#327DE0"/>
<path d="M2000.84 777.314C2011.02 764.895 2029.98 764.895 2040.16 777.314L2061.33 803.134C2066.08 808.928 2073.13 812.333 2080.61 812.446L2113.94 812.948C2129.97 813.19 2141.79 828.054 2138.46 843.782L2131.53 876.482C2129.97 883.819 2131.72 891.47 2136.29 897.404L2156.68 923.851C2166.48 936.571 2162.27 955.107 2147.93 962.3L2118.12 977.256C2111.43 980.612 2106.55 986.748 2104.78 994.035L2096.87 1026.51C2093.07 1042.13 2075.99 1050.38 2061.44 1043.62L2031.2 1029.57C2024.41 1026.42 2016.59 1026.42 2009.8 1029.57L1979.56 1043.62C1965.01 1050.38 1947.93 1042.13 1944.13 1026.51L1936.22 994.035C1934.45 986.748 1929.57 980.612 1922.88 977.256L1893.07 962.3C1878.73 955.107 1874.52 936.571 1884.32 923.851L1904.71 897.404C1909.28 891.47 1911.03 883.819 1909.47 876.482L1902.54 843.782C1899.21 828.054 1911.03 813.19 1927.06 812.948L1960.39 812.446C1967.87 812.333 1974.92 808.928 1979.67 803.134L2000.84 777.314Z" fill="#327DE0"/>
<path d="M1171.67 426.912C1181.42 415.029 1199.58 415.029 1209.33 426.912L1229.6 451.617C1234.15 457.161 1240.9 460.419 1248.06 460.527L1279.98 461.008C1295.33 461.239 1306.64 475.462 1303.45 490.511L1296.82 521.799C1295.33 528.819 1297 536.141 1301.38 541.819L1320.9 567.123C1330.29 579.295 1326.25 597.03 1312.52 603.913L1283.98 618.223C1277.57 621.434 1272.9 627.305 1271.2 634.278L1263.63 665.351C1259.99 680.298 1243.64 688.191 1229.71 681.725L1200.75 668.281C1194.25 665.265 1186.75 665.265 1180.25 668.281L1151.29 681.725C1137.36 688.191 1121.01 680.298 1117.37 665.351L1109.8 634.278C1108.1 627.305 1103.43 621.434 1097.02 618.223L1068.48 603.913C1054.75 597.03 1050.71 579.295 1060.1 567.123L1079.62 541.819C1084 536.141 1085.67 528.819 1084.18 521.799L1077.55 490.511C1074.36 475.462 1085.67 461.239 1101.02 461.008L1132.94 460.527C1140.1 460.419 1146.85 457.161 1151.4 451.617L1171.67 426.912Z" fill="#327DE0"/>
</g>
<defs>
<linearGradient id="paint0_linear_2006_1186" x1="988.5" y1="0" x2="988.5" y2="2121" gradientUnits="userSpaceOnUse">
<stop stop-color="#60AAFF"/>
<stop offset="1" stop-color="#0B56C6"/>
</linearGradient>
<clipPath id="clip0_2006_1186">
<rect width="1977" height="2121" fill="white"/>
</clipPath>
</defs>
</svg>
