<svg width="1977" height="2121" viewBox="0 0 1977 2121" fill="none" xmlns="http://www.w3.org/2000/svg">
<g clip-path="url(#clip0_2013_2146)">
<rect width="1977" height="2121" fill="white"/>
<rect width="1977" height="2121" fill="url(#paint0_linear_2013_2146)"/>
<g opacity="0.7" filter="url(#filter0_i_2013_2146)" style="mix-blend-mode:darken">
<path d="M208.342 -54.2371C214.639 -61.9209 226.361 -61.921 232.658 -54.2372L245.75 -38.2624C248.687 -34.6779 253.047 -32.5711 257.671 -32.5013L278.28 -32.1904C288.193 -32.0409 295.501 -22.8441 293.441 -13.113L289.157 7.11809C288.196 11.6576 289.273 16.3916 292.101 20.0631L304.708 36.4256C310.772 44.2959 308.164 55.764 299.298 60.2147L280.864 69.4677C276.728 71.5439 273.711 75.3403 272.614 79.8488L267.726 99.9415C265.375 109.606 254.814 114.71 245.818 110.529L227.116 101.836C222.919 99.8854 218.081 99.8854 213.884 101.836L195.182 110.529C186.186 114.71 175.625 109.606 173.274 99.9415L168.386 79.8488C167.289 75.3403 164.272 71.5439 160.136 69.4677L141.702 60.2147C132.836 55.764 130.228 44.2959 136.292 36.4256L148.899 20.0631C151.727 16.3916 152.804 11.6576 151.843 7.11809L147.559 -13.113C145.499 -22.8441 152.807 -32.0409 162.72 -32.1904L183.329 -32.5013C187.953 -32.5711 192.313 -34.6779 195.25 -38.2624L208.342 -54.2371Z" fill="#327DE0"/>
</g>
<g opacity="0.7" filter="url(#filter1_i_2013_2146)" style="mix-blend-mode:darken">
<path d="M21.8386 282.314C32.0217 269.895 50.9783 269.895 61.1614 282.314L82.3324 308.134C87.0828 313.928 94.133 317.333 101.611 317.446L134.938 317.948C150.969 318.19 162.788 333.054 159.456 348.782L152.528 381.482C150.974 388.819 152.715 396.47 157.29 402.404L177.677 428.851C187.483 441.571 183.265 460.107 168.927 467.3L139.118 482.256C132.429 485.612 127.55 491.748 125.776 499.035L117.872 531.51C114.07 547.131 96.9904 555.38 82.4431 548.622L52.1989 534.572C45.4126 531.419 37.5874 531.419 30.8011 534.572L0.556953 548.622C-13.9904 555.38 -31.0697 547.131 -34.8717 531.51L-42.7762 499.035C-44.5499 491.748 -49.4288 485.612 -56.1175 482.256L-85.9269 467.3C-100.265 460.107 -104.483 441.571 -94.677 428.851L-74.2896 402.404C-69.715 396.47 -67.9738 388.819 -69.5282 381.482L-76.4557 348.782C-79.7878 333.054 -67.9685 318.19 -51.9383 317.948L-18.6111 317.446C-11.133 317.333 -4.08274 313.928 0.667664 308.134L21.8386 282.314Z" fill="#327DE0"/>
</g>
<g opacity="0.7" filter="url(#filter2_i_2013_2146)" style="mix-blend-mode:darken">
<path d="M577.258 178.768C584.634 169.744 598.366 169.744 605.742 178.768L621.078 197.529C624.519 201.739 629.626 204.213 635.043 204.295L659.185 204.66C670.797 204.836 679.359 215.637 676.945 227.065L671.927 250.825C670.801 256.156 672.062 261.716 675.376 266.028L690.144 285.244C697.248 294.487 694.192 307.955 683.806 313.182L662.212 324.049C657.367 326.488 653.833 330.946 652.548 336.241L646.822 359.838C644.068 371.189 631.696 377.183 621.158 372.272L599.25 362.063C594.334 359.772 588.666 359.772 583.75 362.063L561.842 372.272C551.304 377.183 538.932 371.189 536.178 359.838L530.452 336.241C529.167 330.946 525.633 326.488 520.788 324.049L499.194 313.182C488.808 307.955 485.752 294.487 492.856 285.244L507.624 266.028C510.938 261.716 512.199 256.156 511.073 250.825L506.055 227.065C503.641 215.637 512.203 204.836 523.815 204.66L547.957 204.295C553.374 204.213 558.481 201.739 561.922 197.529L577.258 178.768Z" fill="#327DE0"/>
</g>
<g opacity="0.7" filter="url(#filter3_i_2013_2146)" style="mix-blend-mode:darken">
<path d="M895.121 824.49C899.979 818.503 909.021 818.503 913.879 824.49L923.978 836.935C926.244 839.728 929.608 841.369 933.175 841.423L949.073 841.666C956.72 841.782 962.358 848.947 960.769 856.528L957.464 872.29C956.722 875.826 957.553 879.514 959.735 882.375L969.461 895.122C974.139 901.254 972.126 910.188 965.287 913.656L951.067 920.864C947.876 922.482 945.549 925.44 944.702 928.952L940.932 944.606C939.118 952.135 930.971 956.111 924.031 952.854L909.604 946.081C906.366 944.562 902.634 944.562 899.396 946.081L884.969 952.854C878.029 956.111 869.882 952.135 868.068 944.606L864.298 928.952C863.451 925.44 861.124 922.482 857.933 920.864L843.713 913.656C836.874 910.188 834.861 901.254 839.539 895.122L849.265 882.375C851.447 879.514 852.278 875.826 851.536 872.29L848.231 856.528C846.642 848.947 852.28 841.782 859.927 841.666L875.825 841.423C879.392 841.369 882.756 839.728 885.022 836.935L895.121 824.49Z" fill="#327DE0"/>
</g>
<g opacity="0.7" filter="url(#filter4_i_2013_2146)" style="mix-blend-mode:darken">
<path d="M773.121 1065.49C777.979 1059.5 787.021 1059.5 791.879 1065.49L801.978 1077.94C804.244 1080.73 807.608 1082.37 811.175 1082.42L827.073 1082.67C834.72 1082.78 840.358 1089.95 838.769 1097.53L835.464 1113.29C834.722 1116.83 835.553 1120.51 837.735 1123.37L847.461 1136.12C852.139 1142.25 850.126 1151.19 843.287 1154.66L829.067 1161.86C825.876 1163.48 823.549 1166.44 822.702 1169.95L818.932 1185.61C817.118 1193.13 808.971 1197.11 802.031 1193.85L787.604 1187.08C784.366 1185.56 780.634 1185.56 777.396 1187.08L762.969 1193.85C756.029 1197.11 747.882 1193.13 746.068 1185.61L742.298 1169.95C741.451 1166.44 739.124 1163.48 735.933 1161.86L721.713 1154.66C714.874 1151.19 712.861 1142.25 717.539 1136.12L727.265 1123.37C729.447 1120.51 730.278 1116.83 729.536 1113.29L726.231 1097.53C724.642 1089.95 730.28 1082.78 737.927 1082.67L753.825 1082.42C757.392 1082.37 760.756 1080.73 763.022 1077.94L773.121 1065.49Z" fill="#327DE0"/>
</g>
<g filter="url(#filter5_i_2013_2146)" style="mix-blend-mode:darken">
<path d="M32.1209 949.49C36.9786 943.503 46.0214 943.503 50.8791 949.49L60.9783 961.935C63.2444 964.728 66.6076 966.369 70.1749 966.423L86.073 966.666C93.72 966.782 99.3581 973.947 97.7686 981.528L94.464 997.29C93.7225 1000.83 94.5531 1004.51 96.7353 1007.37L106.461 1020.12C111.139 1026.25 109.126 1035.19 102.287 1038.66L88.0667 1045.86C84.8759 1047.48 82.5485 1050.44 81.7024 1053.95L77.9317 1069.61C76.118 1077.13 67.9707 1081.11 61.0311 1077.85L46.6037 1071.08C43.3664 1069.56 39.6336 1069.56 36.3963 1071.08L21.9689 1077.85C15.0293 1081.11 6.88195 1077.13 5.06826 1069.61L1.29756 1053.95C0.451474 1050.44 -1.87594 1047.48 -5.06667 1045.86L-19.2867 1038.66C-26.1265 1035.19 -28.1387 1026.25 -23.4608 1020.12L-13.7353 1007.37C-11.5531 1004.51 -10.7225 1000.83 -11.464 997.29L-14.7686 981.528C-16.3581 973.947 -10.72 966.782 -3.07303 966.666L12.8251 966.423C16.3924 966.369 19.7556 964.728 22.0217 961.935L32.1209 949.49Z" fill="#327DE0"/>
</g>
<g filter="url(#filter6_i_2013_2146)" style="mix-blend-mode:darken">
<path d="M1538.12 176.49C1542.98 170.503 1552.02 170.503 1556.88 176.49L1566.98 188.935C1569.24 191.728 1572.61 193.369 1576.17 193.423L1592.07 193.666C1599.72 193.782 1605.36 200.947 1603.77 208.528L1600.46 224.29C1599.72 227.826 1600.55 231.514 1602.74 234.375L1612.46 247.122C1617.14 253.254 1615.13 262.188 1608.29 265.656L1594.07 272.864C1590.88 274.482 1588.55 277.44 1587.7 280.952L1583.93 296.606C1582.12 304.135 1573.97 308.111 1567.03 304.854L1552.6 298.081C1549.37 296.562 1545.63 296.562 1542.4 298.081L1527.97 304.854C1521.03 308.111 1512.88 304.135 1511.07 296.606L1507.3 280.952C1506.45 277.44 1504.12 274.482 1500.93 272.864L1486.71 265.656C1479.87 262.188 1477.86 253.254 1482.54 247.122L1492.26 234.375C1494.45 231.514 1495.28 227.826 1494.54 224.29L1491.23 208.528C1489.64 200.947 1495.28 193.782 1502.93 193.666L1518.83 193.423C1522.39 193.369 1525.76 191.728 1528.02 188.935L1538.12 176.49Z" fill="#327DE0"/>
</g>
<g opacity="0.7" filter="url(#filter7_i_2013_2146)" style="mix-blend-mode:darken">
<path d="M1538.12 844.49C1542.98 838.503 1552.02 838.503 1556.88 844.49L1566.98 856.935C1569.24 859.728 1572.61 861.369 1576.17 861.423L1592.07 861.666C1599.72 861.782 1605.36 868.947 1603.77 876.528L1600.46 892.29C1599.72 895.826 1600.55 899.514 1602.74 902.375L1612.46 915.122C1617.14 921.254 1615.13 930.188 1608.29 933.656L1594.07 940.864C1590.88 942.482 1588.55 945.44 1587.7 948.952L1583.93 964.606C1582.12 972.135 1573.97 976.111 1567.03 972.854L1552.6 966.081C1549.37 964.562 1545.63 964.562 1542.4 966.081L1527.97 972.854C1521.03 976.111 1512.88 972.135 1511.07 964.606L1507.3 948.952C1506.45 945.44 1504.12 942.482 1500.93 940.864L1486.71 933.656C1479.87 930.188 1477.86 921.254 1482.54 915.122L1492.26 902.375C1494.45 899.514 1495.28 895.826 1494.54 892.29L1491.23 876.528C1489.64 868.947 1495.28 861.782 1502.93 861.666L1518.83 861.423C1522.39 861.369 1525.76 859.728 1528.02 856.935L1538.12 844.49Z" fill="#327DE0"/>
</g>
<g filter="url(#filter8_i_2013_2146)" style="mix-blend-mode:darken">
<path d="M1766.81 380.5C1773.9 371.833 1787.1 371.833 1794.19 380.5L1808.92 398.518C1812.23 402.561 1817.14 404.937 1822.34 405.016L1845.54 405.367C1856.7 405.535 1864.93 415.908 1862.61 426.884L1857.79 449.703C1856.71 454.823 1857.92 460.163 1861.1 464.304L1875.29 482.759C1882.12 491.636 1879.18 504.571 1869.2 509.591L1848.45 520.028C1843.8 522.369 1840.4 526.651 1839.17 531.736L1833.66 554.399C1831.02 565.3 1819.13 571.056 1809 566.34L1787.95 556.536C1783.22 554.336 1777.78 554.336 1773.05 556.536L1752 566.34C1741.87 571.056 1729.98 565.3 1727.34 554.399L1721.83 531.736C1720.6 526.651 1717.2 522.369 1712.55 520.028L1691.8 509.591C1681.82 504.571 1678.88 491.636 1685.71 482.759L1699.9 464.304C1703.08 460.163 1704.29 454.823 1703.21 449.703L1698.39 426.884C1696.07 415.908 1704.3 405.535 1715.46 405.367L1738.66 405.016C1743.86 404.937 1748.77 402.561 1752.08 398.518L1766.81 380.5Z" fill="#327DE0"/>
</g>
<g opacity="0.7" filter="url(#filter9_i_2013_2146)" style="mix-blend-mode:darken">
<path d="M426.754 790.32C438.017 776.56 458.983 776.56 470.246 790.32L493.661 818.925C498.915 825.344 506.712 829.117 514.983 829.242L551.843 829.799C569.573 830.066 582.645 846.535 578.96 863.96L571.298 900.188C569.579 908.317 571.505 916.794 576.564 923.369L599.113 952.669C609.959 966.762 605.293 987.298 589.435 995.268L556.466 1011.84C549.068 1015.56 543.672 1022.35 541.71 1030.43L532.968 1066.41C528.763 1083.71 509.873 1092.85 493.783 1085.37L460.333 1069.8C452.827 1066.31 444.173 1066.31 436.667 1069.8L403.217 1085.37C387.127 1092.85 368.237 1083.71 364.032 1066.41L355.29 1030.43C353.328 1022.35 347.932 1015.56 340.534 1011.84L307.565 995.268C291.707 987.298 287.041 966.762 297.887 952.669L320.436 923.369C325.495 916.794 327.421 908.317 325.702 900.188L318.04 863.96C314.355 846.535 327.427 830.066 345.157 829.799L382.017 829.242C390.288 829.117 398.085 825.344 403.339 818.925L426.754 790.32Z" fill="#327DE0"/>
</g>
<g opacity="0.3" filter="url(#filter10_i_2013_2146)" style="mix-blend-mode:lighten">
<path d="M197.148 1358.89C202.51 1352.37 212.49 1352.37 217.852 1358.89L228.998 1372.45C231.499 1375.49 235.211 1377.28 239.149 1377.34L256.695 1377.61C265.135 1377.73 271.358 1385.54 269.604 1393.8L265.957 1410.97C265.138 1414.83 266.055 1418.84 268.463 1421.96L279.197 1435.85C284.36 1442.53 282.14 1452.26 274.59 1456.04L258.896 1463.9C255.374 1465.66 252.805 1468.88 251.872 1472.71L247.71 1489.76C245.708 1497.97 236.716 1502.3 229.057 1498.75L213.133 1491.37C209.56 1489.72 205.44 1489.72 201.867 1491.37L185.943 1498.75C178.284 1502.3 169.292 1497.97 167.29 1489.76L163.128 1472.71C162.195 1468.88 159.626 1465.66 156.104 1463.9L140.41 1456.04C132.86 1452.26 130.64 1442.53 135.803 1435.85L146.537 1421.96C148.945 1418.84 149.862 1414.83 149.043 1410.97L145.396 1393.8C143.642 1385.54 149.865 1377.73 158.305 1377.61L175.851 1377.34C179.789 1377.28 183.501 1375.49 186.002 1372.45L197.148 1358.89Z" fill="#327DE0"/>
</g>
<g opacity="0.3" filter="url(#filter11_i_2013_2146)" style="mix-blend-mode:lighten">
<path d="M33.4217 1670.52C43.8208 1657.83 63.1792 1657.83 73.5783 1670.52L95.1981 1696.89C100.049 1702.81 107.249 1706.29 114.886 1706.4L148.919 1706.92C165.289 1707.17 177.359 1722.35 173.956 1738.42L166.882 1771.82C165.295 1779.32 167.073 1787.14 171.745 1793.2L192.564 1820.21C202.578 1833.21 198.271 1852.15 183.628 1859.49L153.187 1874.77C146.357 1878.2 141.374 1884.47 139.563 1891.91L131.491 1925.09C127.608 1941.05 110.167 1949.47 95.3111 1942.57L64.4257 1928.22C57.4956 1925 49.5044 1925 42.5743 1928.22L11.6889 1942.57C-3.16688 1949.47 -20.6083 1941.05 -24.4909 1925.09L-32.563 1891.91C-34.3743 1884.47 -39.3566 1878.2 -46.1872 1874.77L-76.6285 1859.49C-91.2707 1852.15 -95.5784 1833.21 -85.5642 1820.21L-64.7445 1793.2C-60.073 1787.14 -58.2948 1779.32 -59.8821 1771.82L-66.9565 1738.42C-70.3592 1722.35 -58.2894 1707.17 -41.9193 1706.92L-7.88552 1706.4C-0.248912 1706.29 6.95084 1702.81 11.802 1696.89L33.4217 1670.52Z" fill="#327DE0"/>
</g>
<g opacity="0.3" filter="url(#filter12_i_2013_2146)" style="mix-blend-mode:lighten">
<path d="M1082.23 1225.3C1089.1 1216.9 1101.9 1216.9 1108.77 1225.3L1123.06 1242.76C1126.26 1246.68 1131.02 1248.98 1136.07 1249.06L1158.56 1249.4C1169.38 1249.56 1177.36 1259.61 1175.11 1270.25L1170.43 1292.36C1169.39 1297.32 1170.56 1302.5 1173.65 1306.51L1187.41 1324.4C1194.03 1333 1191.18 1345.53 1181.5 1350.4L1161.38 1360.51C1156.87 1362.78 1153.58 1366.93 1152.38 1371.86L1147.04 1393.82C1144.48 1404.38 1132.95 1409.96 1123.13 1405.39L1102.72 1395.89C1098.14 1393.76 1092.86 1393.76 1088.28 1395.89L1067.87 1405.39C1058.05 1409.96 1046.52 1404.38 1043.96 1393.82L1038.62 1371.86C1037.42 1366.93 1034.13 1362.78 1029.62 1360.51L1009.5 1350.4C999.821 1345.53 996.974 1333 1003.59 1324.4L1017.35 1306.51C1020.44 1302.5 1021.61 1297.32 1020.57 1292.36L1015.89 1270.25C1013.64 1259.61 1021.62 1249.56 1032.44 1249.4L1054.93 1249.06C1059.98 1248.98 1064.74 1246.68 1067.94 1242.76L1082.23 1225.3Z" fill="#327DE0"/>
</g>
<g opacity="0.3" filter="url(#filter13_i_2013_2146)" style="mix-blend-mode:lighten">
<path d="M547.697 1931.79C560.543 1916.07 584.457 1916.07 597.303 1931.79L624.009 1964.49C630.002 1971.82 638.896 1976.13 648.329 1976.28L690.371 1976.91C710.593 1977.22 725.503 1996.04 721.299 2015.95L712.56 2057.36C710.599 2066.65 712.796 2076.34 718.567 2083.85L744.285 2117.34C756.656 2133.44 751.334 2156.91 733.247 2166.02L695.643 2184.96C687.205 2189.21 681.051 2196.98 678.813 2206.2L668.842 2247.32C664.045 2267.1 642.5 2277.55 624.149 2268.99L585.996 2251.2C577.436 2247.21 567.564 2247.21 559.004 2251.2L520.851 2268.99C502.5 2277.55 480.955 2267.1 476.158 2247.32L466.187 2206.2C463.949 2196.98 457.795 2189.21 449.357 2184.96L411.753 2166.02C393.666 2156.91 388.344 2133.44 400.715 2117.34L426.433 2083.85C432.204 2076.34 434.401 2066.65 432.44 2057.36L423.701 2015.95C419.497 1996.04 434.407 1977.22 454.629 1976.91L496.671 1976.28C506.104 1976.13 514.998 1971.82 520.991 1964.49L547.697 1931.79Z" fill="#327DE0"/>
</g>
<g opacity="0.3" filter="url(#filter14_i_2013_2146)" style="mix-blend-mode:lighten">
<path d="M1598.45 1320.64C1606.76 1310.45 1622.24 1310.45 1630.55 1320.64L1647.83 1341.81C1651.71 1346.57 1657.46 1349.36 1663.57 1349.45L1690.77 1349.86C1703.85 1350.06 1713.5 1362.25 1710.78 1375.15L1705.13 1401.97C1703.86 1407.99 1705.28 1414.26 1709.01 1419.13L1725.66 1440.82C1733.66 1451.25 1730.22 1466.45 1718.51 1472.35L1694.18 1484.62C1688.72 1487.37 1684.74 1492.4 1683.29 1498.38L1676.84 1525.02C1673.74 1537.83 1659.79 1544.59 1647.92 1539.05L1623.23 1527.53C1617.69 1524.94 1611.31 1524.94 1605.77 1527.53L1581.08 1539.05C1569.21 1544.59 1555.26 1537.83 1552.16 1525.02L1545.71 1498.38C1544.26 1492.4 1540.28 1487.37 1534.82 1484.62L1510.49 1472.35C1498.78 1466.45 1495.34 1451.25 1503.34 1440.82L1519.99 1419.13C1523.72 1414.26 1525.14 1407.99 1523.87 1401.97L1518.22 1375.15C1515.5 1362.25 1525.15 1350.06 1538.23 1349.86L1565.43 1349.45C1571.54 1349.36 1577.29 1346.57 1581.17 1341.81L1598.45 1320.64Z" fill="#327DE0"/>
</g>
<g opacity="0.3" filter="url(#filter15_i_2013_2146)" style="mix-blend-mode:lighten">
<path d="M1954.75 1622.32C1966.02 1608.56 1986.98 1608.56 1998.25 1622.32L2021.66 1650.93C2026.91 1657.34 2034.71 1661.12 2042.98 1661.24L2079.84 1661.8C2097.57 1662.07 2110.65 1678.53 2106.96 1695.96L2099.3 1732.19C2097.58 1740.32 2099.5 1748.79 2104.56 1755.37L2127.11 1784.67C2137.96 1798.76 2133.29 1819.3 2117.44 1827.27L2084.47 1843.84C2077.07 1847.56 2071.67 1854.35 2069.71 1862.43L2060.97 1898.41C2056.76 1915.71 2037.87 1924.85 2021.78 1917.37L1988.33 1901.8C1980.83 1898.31 1972.17 1898.31 1964.67 1901.8L1931.22 1917.37C1915.13 1924.85 1896.24 1915.71 1892.03 1898.41L1883.29 1862.43C1881.33 1854.35 1875.93 1847.56 1868.53 1843.84L1835.56 1827.27C1819.71 1819.3 1815.04 1798.76 1825.89 1784.67L1848.44 1755.37C1853.5 1748.79 1855.42 1740.32 1853.7 1732.19L1846.04 1695.96C1842.35 1678.53 1855.43 1662.07 1873.16 1661.8L1910.02 1661.24C1918.29 1661.12 1926.09 1657.34 1931.34 1650.93L1954.75 1622.32Z" fill="#327DE0"/>
</g>
<g opacity="0.3" filter="url(#filter16_i_2013_2146)" style="mix-blend-mode:lighten">
<path d="M1217.59 1739.16C1223.24 1732.28 1233.76 1732.28 1239.41 1739.16L1251.15 1753.46C1253.79 1756.67 1257.7 1758.56 1261.85 1758.62L1280.34 1758.9C1289.23 1759.03 1295.79 1767.27 1293.94 1775.98L1290.1 1794.09C1289.23 1798.16 1290.2 1802.4 1292.74 1805.68L1304.05 1820.33C1309.49 1827.38 1307.15 1837.65 1299.19 1841.63L1282.66 1849.92C1278.94 1851.78 1276.24 1855.18 1275.25 1859.21L1270.87 1877.2C1268.76 1885.86 1259.28 1890.43 1251.21 1886.68L1234.44 1878.9C1230.67 1877.15 1226.33 1877.15 1222.56 1878.9L1205.79 1886.68C1197.72 1890.43 1188.24 1885.86 1186.13 1877.2L1181.75 1859.21C1180.76 1855.18 1178.06 1851.78 1174.34 1849.92L1157.81 1841.63C1149.85 1837.65 1147.51 1827.38 1152.95 1820.33L1164.26 1805.68C1166.8 1802.4 1167.77 1798.16 1166.9 1794.09L1163.06 1775.98C1161.21 1767.27 1167.77 1759.03 1176.66 1758.9L1195.15 1758.62C1199.3 1758.56 1203.21 1756.67 1205.85 1753.46L1217.59 1739.16Z" fill="#327DE0"/>
</g>
<g opacity="0.3" filter="url(#filter17_i_2013_2146)" style="mix-blend-mode:lighten">
<path d="M1946.59 1164.16C1952.24 1157.28 1962.76 1157.28 1968.41 1164.16L1980.15 1178.46C1982.79 1181.67 1986.7 1183.56 1990.85 1183.62L2009.34 1183.9C2018.23 1184.03 2024.79 1192.27 2022.94 1200.98L2019.1 1219.09C2018.23 1223.16 2019.2 1227.4 2021.74 1230.68L2033.05 1245.33C2038.49 1252.38 2036.15 1262.65 2028.19 1266.63L2011.66 1274.92C2007.94 1276.78 2005.24 1280.18 2004.25 1284.21L1999.87 1302.2C1997.76 1310.86 1988.28 1315.43 1980.21 1311.68L1963.44 1303.9C1959.67 1302.15 1955.33 1302.15 1951.56 1303.9L1934.79 1311.68C1926.72 1315.43 1917.24 1310.86 1915.13 1302.2L1910.75 1284.21C1909.76 1280.18 1907.06 1276.78 1903.34 1274.92L1886.81 1266.63C1878.85 1262.65 1876.51 1252.38 1881.95 1245.33L1893.26 1230.68C1895.8 1227.4 1896.77 1223.16 1895.9 1219.09L1892.06 1200.98C1890.21 1192.27 1896.77 1184.03 1905.66 1183.9L1924.15 1183.62C1928.3 1183.56 1932.21 1181.67 1934.85 1178.46L1946.59 1164.16Z" fill="#327DE0"/>
</g>
<g opacity="0.3" filter="url(#filter18_i_2013_2146)" style="mix-blend-mode:lighten">
<path d="M1454 1953.06C1467.21 1936.98 1491.79 1936.98 1505 1953.06L1532.45 1986.5C1538.61 1994 1547.76 1998.41 1557.45 1998.56L1600.67 1999.21C1621.46 1999.52 1636.79 2018.77 1632.47 2039.14L1623.48 2081.48C1621.47 2090.98 1623.73 2100.89 1629.66 2108.57L1656.1 2142.82C1668.81 2159.29 1663.34 2183.3 1644.75 2192.61L1606.09 2211.98C1597.42 2216.32 1591.09 2224.27 1588.79 2233.71L1578.54 2275.76C1573.61 2295.99 1551.46 2306.67 1532.6 2297.92L1493.37 2279.73C1484.57 2275.64 1474.43 2275.64 1465.63 2279.73L1426.4 2297.92C1407.54 2306.67 1385.39 2295.99 1380.46 2275.76L1370.21 2233.71C1367.91 2224.27 1361.58 2216.32 1352.91 2211.98L1314.25 2192.61C1295.66 2183.3 1290.19 2159.29 1302.9 2142.82L1329.34 2108.57C1335.27 2100.89 1337.53 2090.98 1335.52 2081.48L1326.53 2039.14C1322.21 2018.77 1337.54 1999.52 1358.33 1999.21L1401.55 1998.56C1411.24 1998.41 1420.39 1994 1426.55 1986.5L1454 1953.06Z" fill="#327DE0"/>
</g>
<g opacity="0.3" filter="url(#filter19_i_2013_2146)" style="mix-blend-mode:lighten">
<path d="M678.98 1521.9C686.5 1512.7 700.5 1512.7 708.02 1521.9L723.655 1541.03C727.164 1545.33 732.37 1547.85 737.893 1547.93L762.506 1548.31C774.344 1548.49 783.073 1559.5 780.612 1571.16L775.496 1595.39C774.348 1600.82 775.634 1606.49 779.012 1610.89L794.069 1630.49C801.311 1639.91 798.196 1653.65 787.607 1658.98L765.592 1670.06C760.652 1672.55 757.049 1677.09 755.739 1682.49L749.902 1706.56C747.094 1718.13 734.481 1724.25 723.737 1719.24L701.401 1708.83C696.39 1706.49 690.61 1706.49 685.599 1708.83L663.263 1719.24C652.519 1724.25 639.906 1718.13 637.098 1706.56L631.261 1682.49C629.951 1677.09 626.348 1672.55 621.408 1670.06L599.393 1658.98C588.804 1653.65 585.689 1639.91 592.931 1630.49L607.988 1610.89C611.366 1606.49 612.652 1600.82 611.504 1595.39L606.388 1571.16C603.927 1559.5 612.656 1548.49 624.494 1548.31L649.107 1547.93C654.63 1547.85 659.836 1545.33 663.345 1541.03L678.98 1521.9Z" fill="#327DE0"/>
</g>
<g opacity="0.7" filter="url(#filter20_i_2013_2146)" style="mix-blend-mode:darken">
<path d="M968.839 -103.686C979.022 -116.105 997.978 -116.105 1008.16 -103.686L1029.33 -77.866C1034.08 -72.0725 1041.13 -68.6672 1048.61 -68.5545L1081.94 -68.0519C1097.97 -67.8102 1109.79 -52.9457 1106.46 -37.2176L1099.53 -4.51843C1097.97 2.8187 1099.72 10.4702 1104.29 16.4043L1124.68 42.8506C1134.48 55.5712 1130.27 74.1069 1115.93 81.3005L1086.12 96.256C1079.43 99.6117 1074.55 105.748 1072.78 113.035L1064.87 145.51C1061.07 161.131 1043.99 169.38 1029.44 162.622L999.199 148.572C992.413 145.419 984.587 145.419 977.801 148.572L947.557 162.622C933.01 169.38 915.93 161.131 912.128 145.51L904.224 113.035C902.45 105.748 897.571 99.6117 890.882 96.256L861.073 81.3005C846.735 74.1069 842.517 55.5712 852.323 42.8506L872.71 16.4043C877.285 10.4702 879.026 2.8187 877.472 -4.51843L870.544 -37.2175C867.212 -52.9457 879.031 -67.8102 895.062 -68.0519L928.389 -68.5545C935.867 -68.6672 942.917 -72.0725 947.668 -77.866L968.839 -103.686Z" fill="#327DE0"/>
</g>
<g opacity="0.7" filter="url(#filter21_i_2013_2146)" style="mix-blend-mode:darken">
<path d="M1917.84 -50.6856C1928.02 -63.1048 1946.98 -63.1048 1957.16 -50.6856L1978.33 -24.866C1983.08 -19.0725 1990.13 -15.6672 1997.61 -15.5545L2030.94 -15.0519C2046.97 -14.8102 2058.79 0.0542641 2055.46 15.7824L2048.53 48.4816C2046.97 55.8187 2048.72 63.4702 2053.29 69.4043L2073.68 95.8506C2083.48 108.571 2079.27 127.107 2064.93 134.3L2035.12 149.256C2028.43 152.612 2023.55 158.748 2021.78 166.035L2013.87 198.51C2010.07 214.131 1992.99 222.38 1978.44 215.622L1948.2 201.572C1941.41 198.419 1933.59 198.419 1926.8 201.572L1896.56 215.622C1882.01 222.38 1864.93 214.131 1861.13 198.51L1853.22 166.035C1851.45 158.748 1846.57 152.612 1839.88 149.256L1810.07 134.3C1795.73 127.107 1791.52 108.571 1801.32 95.8506L1821.71 69.4043C1826.28 63.4702 1828.03 55.8187 1826.47 48.4816L1819.54 15.7825C1816.21 0.054287 1828.03 -14.8102 1844.06 -15.0519L1877.39 -15.5545C1884.87 -15.6672 1891.92 -19.0725 1896.67 -24.866L1917.84 -50.6856Z" fill="#327DE0"/>
</g>
<g opacity="0.7" filter="url(#filter22_i_2013_2146)" style="mix-blend-mode:darken">
<path d="M2000.84 777.314C2011.02 764.895 2029.98 764.895 2040.16 777.314L2061.33 803.134C2066.08 808.928 2073.13 812.333 2080.61 812.446L2113.94 812.948C2129.97 813.19 2141.79 828.054 2138.46 843.782L2131.53 876.482C2129.97 883.819 2131.72 891.47 2136.29 897.404L2156.68 923.851C2166.48 936.571 2162.27 955.107 2147.93 962.3L2118.12 977.256C2111.43 980.612 2106.55 986.748 2104.78 994.035L2096.87 1026.51C2093.07 1042.13 2075.99 1050.38 2061.44 1043.62L2031.2 1029.57C2024.41 1026.42 2016.59 1026.42 2009.8 1029.57L1979.56 1043.62C1965.01 1050.38 1947.93 1042.13 1944.13 1026.51L1936.22 994.035C1934.45 986.748 1929.57 980.612 1922.88 977.256L1893.07 962.3C1878.73 955.107 1874.52 936.571 1884.32 923.851L1904.71 897.404C1909.28 891.47 1911.03 883.819 1909.47 876.482L1902.54 843.782C1899.21 828.054 1911.03 813.19 1927.06 812.948L1960.39 812.446C1967.87 812.333 1974.92 808.928 1979.67 803.134L2000.84 777.314Z" fill="#327DE0"/>
</g>
<g opacity="0.7" filter="url(#filter23_i_2013_2146)" style="mix-blend-mode:darken">
<path d="M1171.67 426.912C1181.42 415.029 1199.58 415.029 1209.33 426.912L1229.6 451.617C1234.15 457.161 1240.9 460.419 1248.06 460.527L1279.98 461.008C1295.33 461.239 1306.64 475.462 1303.45 490.511L1296.82 521.799C1295.33 528.819 1297 536.141 1301.38 541.819L1320.9 567.123C1330.29 579.295 1326.25 597.03 1312.52 603.913L1283.98 618.223C1277.57 621.434 1272.9 627.305 1271.2 634.278L1263.63 665.351C1259.99 680.298 1243.64 688.191 1229.71 681.725L1200.75 668.281C1194.25 665.265 1186.75 665.265 1180.25 668.281L1151.29 681.725C1137.36 688.191 1121.01 680.298 1117.37 665.351L1109.8 634.278C1108.1 627.305 1103.43 621.434 1097.02 618.223L1068.48 603.913C1054.75 597.03 1050.71 579.295 1060.1 567.123L1079.62 541.819C1084 536.141 1085.67 528.819 1084.18 521.799L1077.55 490.511C1074.36 475.462 1085.67 461.239 1101.02 461.008L1132.94 460.527C1140.1 460.419 1146.85 457.161 1151.4 451.617L1171.67 426.912Z" fill="#327DE0"/>
</g>
<g style="mix-blend-mode:screen" opacity="0.3">
<path d="M321.475 255.594C329.772 245.469 345.228 245.469 353.525 255.594L366.617 271.568C368.624 274.017 371.598 275.452 374.747 275.499L395.355 275.811C408.436 276.008 418.04 288.133 415.332 300.923L411.049 321.154C410.391 324.263 411.129 327.502 413.062 330.012L425.669 346.374C433.645 356.726 430.224 371.819 418.541 377.684L400.107 386.937C397.287 388.352 395.224 390.944 394.473 394.03L389.585 414.123C386.493 426.835 372.582 433.58 360.711 428.062L342.009 419.37C339.149 418.041 335.851 418.041 332.991 419.37L314.289 428.062C302.418 433.58 288.507 426.835 285.415 414.123L280.527 394.03C279.776 390.944 277.713 388.352 274.893 386.937L256.459 377.684C244.776 371.819 241.355 356.726 249.331 346.374L261.938 330.012C263.871 327.502 264.609 324.263 263.951 321.154L259.668 300.923C256.96 288.133 266.564 276.008 279.645 275.811L300.253 275.499C303.402 275.452 306.376 274.017 308.383 271.568L321.475 255.594Z" stroke="#448EEC" stroke-opacity="0.6" stroke-width="10"/>
<path d="M-42.5254 43.5938C-34.228 33.469 -18.772 33.469 -10.4746 43.5938L2.61719 59.5684C4.624 62.0171 7.59813 63.4515 10.7471 63.499L31.3555 63.8105C44.4363 64.008 54.0401 76.1334 51.332 88.9229L47.0488 109.154C46.3908 112.263 47.129 115.502 49.0625 118.012L61.6689 134.374C69.6452 144.726 66.2244 159.819 54.541 165.684L36.1074 174.937C33.2873 176.352 31.2236 178.944 30.4727 182.03L25.585 202.123C22.4925 214.835 8.58161 221.58 -3.28906 216.062L-21.9912 207.37C-24.8513 206.041 -28.1487 206.041 -31.0088 207.37L-49.7109 216.062C-61.5816 221.58 -75.4925 214.835 -78.585 202.123L-83.4727 182.03C-84.2236 178.944 -86.2873 176.352 -89.1074 174.937L-107.541 165.684C-119.224 159.819 -122.645 144.726 -114.669 134.374L-102.062 118.012C-100.129 115.502 -99.3908 112.263 -100.049 109.154L-104.332 88.9229C-107.04 76.1334 -97.4363 64.008 -84.3555 63.8105L-63.7471 63.499C-60.5981 63.4515 -57.624 62.0171 -55.6172 59.5684L-42.5254 43.5938Z" stroke="#448EEC" stroke-opacity="0.6" stroke-width="10"/>
<path d="M65.7559 623.798C76.4998 610.734 96.5002 610.734 107.244 623.798L125.423 645.903C128.569 649.728 133.238 651.976 138.19 652.051L166.807 652.481C183.72 652.736 196.189 668.372 192.674 684.918L186.726 712.912C185.696 717.756 186.85 722.809 189.879 726.727L207.385 749.368C217.731 762.75 213.281 782.248 198.153 789.815L172.557 802.619C168.127 804.835 164.896 808.886 163.722 813.697L156.935 841.5C152.923 857.932 134.903 866.61 119.555 859.501L93.585 847.473C89.091 845.391 83.909 845.391 79.415 847.473L53.4453 859.501C38.0969 866.61 20.0769 857.932 16.0654 841.5L9.27832 813.697C8.10375 808.886 4.87272 804.835 0.443359 802.619L-25.1533 789.815C-40.2809 782.248 -44.7309 762.75 -34.3848 749.368L-16.8789 726.727C-13.8496 722.809 -12.6963 717.756 -13.7256 712.912L-19.6738 684.918C-23.1895 668.372 -10.7196 652.736 6.19336 652.481L34.8096 652.051C39.7618 651.976 44.4313 649.728 47.5771 645.903L65.7559 623.798Z" stroke="#448EEC" stroke-opacity="0.5" stroke-width="10"/>
<path d="M527.387 -109.396C536.764 -120.868 554.236 -120.868 563.613 -109.396L578.949 -90.6357C581.461 -87.5625 585.182 -85.7637 589.119 -85.7041L613.261 -85.3389C628.055 -85.115 638.893 -71.3721 635.837 -56.9014L630.819 -33.1416C629.995 -29.2373 630.92 -25.1696 633.341 -22.0195L648.108 -2.80273C657.114 8.91551 653.257 26.0033 640.054 32.6484L618.46 43.5156C614.932 45.291 612.348 48.5436 611.407 52.4199L605.682 76.0176C602.19 90.4063 586.473 98.0598 573.047 91.8037L551.139 81.5957C547.562 79.9289 543.438 79.9289 539.861 81.5957L517.953 91.8037C504.527 98.0598 488.81 90.4063 485.318 76.0176L479.593 52.4199C478.652 48.5436 476.068 45.291 472.54 43.5156L450.946 32.6484C437.743 26.0033 433.886 8.9155 442.892 -2.80273L457.659 -22.0195C460.08 -25.1696 461.005 -29.2373 460.181 -33.1416L455.163 -56.9014C452.107 -71.3721 462.945 -85.115 477.739 -85.3389L501.881 -85.7041C505.818 -85.7637 509.539 -87.5625 512.051 -90.6357L527.387 -109.396Z" stroke="#448EEC" stroke-opacity="0.6" stroke-width="10"/>
<path d="M852.238 584.339C859.097 575.887 871.903 575.887 878.762 584.339L888.861 596.784C890.203 598.438 892.177 599.392 894.251 599.424L910.149 599.666C921.02 599.832 928.88 609.977 926.662 620.555L923.357 636.315C922.913 638.437 923.415 640.643 924.711 642.342L934.436 655.09C940.987 663.677 938.206 676.219 928.548 681.115L914.327 688.324C912.458 689.272 911.07 691.019 910.563 693.123L906.793 708.776C904.253 719.319 892.771 725.01 882.906 720.38L868.479 713.607C866.588 712.72 864.412 712.72 862.521 713.607L848.094 720.38C838.229 725.01 826.747 719.319 824.207 708.776L820.437 693.123C819.93 691.019 818.542 689.272 816.673 688.324L802.452 681.115C792.794 676.219 790.013 663.677 796.564 655.09L806.289 642.342C807.585 640.643 808.087 638.437 807.643 636.315L804.338 620.555C802.12 609.977 809.98 599.832 820.851 599.666L836.749 599.424C838.823 599.392 840.798 598.438 842.14 596.784L852.238 584.339Z" stroke="#448EEC" stroke-opacity="0.6" stroke-width="10"/>
<path d="M532.179 1197.82C540.621 1187.39 556.379 1187.39 564.821 1197.82L578.212 1214.35C580.294 1216.92 583.364 1218.41 586.597 1218.46L607.677 1218.78C621.05 1218.98 630.734 1231.49 628.002 1244.55L623.62 1265.48C622.932 1268.77 623.706 1272.19 625.716 1274.83L638.611 1291.76C646.554 1302.19 643.355 1317.35 631.914 1323.58L631.362 1323.87L612.508 1333.44C609.6 1334.92 607.451 1337.64 606.667 1340.9L601.667 1361.69C598.539 1374.7 584.405 1381.71 572.27 1376L553.14 1367.01C550.195 1365.62 546.805 1365.62 543.86 1367.01L524.73 1376C512.595 1381.71 498.461 1374.7 495.333 1361.69L490.333 1340.9C489.549 1337.64 487.4 1334.92 484.492 1333.44L465.638 1323.87C453.749 1317.83 450.319 1302.36 458.389 1291.76L471.284 1274.83C473.294 1272.19 474.068 1268.77 473.38 1265.48L468.998 1244.55C466.266 1231.49 475.95 1218.98 489.323 1218.78L510.403 1218.46C513.636 1218.41 516.706 1216.92 518.788 1214.35L532.179 1197.82Z" stroke="#448EEC" stroke-opacity="0.3" stroke-width="10"/>
<path d="M392.238 1668.34C399.097 1659.89 411.903 1659.89 418.762 1668.34L428.861 1680.78C430.203 1682.44 432.177 1683.39 434.251 1683.42L450.149 1683.67C461.02 1683.83 468.88 1693.98 466.662 1704.55L463.357 1720.32C462.913 1722.44 463.415 1724.64 464.711 1726.34L474.436 1739.09C480.987 1747.68 478.206 1760.22 468.548 1765.12L454.327 1772.32C452.458 1773.27 451.07 1775.02 450.563 1777.12L446.793 1792.78C444.253 1803.32 432.771 1809.01 422.906 1804.38L408.479 1797.61C406.588 1796.72 404.412 1796.72 402.521 1797.61L388.094 1804.38C378.229 1809.01 366.747 1803.32 364.207 1792.78L360.437 1777.12C359.93 1775.02 358.542 1773.27 356.673 1772.32L342.452 1765.12C332.794 1760.22 330.013 1747.68 336.564 1739.09L346.289 1726.34C347.585 1724.64 348.087 1722.44 347.643 1720.32L344.338 1704.55C342.12 1693.98 349.98 1683.83 360.851 1683.67L376.749 1683.42C378.823 1683.39 380.798 1682.44 382.14 1680.78L392.238 1668.34Z" stroke="#448EEC" stroke-opacity="0.3" stroke-width="10"/>
<path d="M-69.7617 1259.34C-62.903 1250.89 -50.097 1250.89 -43.2383 1259.34L-33.1387 1271.78C-31.7965 1273.44 -29.8227 1274.39 -27.749 1274.42L-11.8506 1274.67C-0.980255 1274.83 6.8799 1284.98 4.66211 1295.55L1.35742 1311.32C0.912578 1313.44 1.41451 1315.64 2.71094 1317.34L12.4355 1330.09C18.9872 1338.68 16.2064 1351.22 6.54785 1356.12L-7.67285 1363.32C-9.54184 1364.27 -10.9296 1366.02 -11.4365 1368.12L-15.207 1383.78C-17.7466 1394.32 -29.229 1400.01 -39.0938 1395.38L-53.5205 1388.61C-55.4118 1387.72 -57.5882 1387.72 -59.4795 1388.61L-73.9062 1395.38C-83.771 1400.01 -95.2534 1394.32 -97.793 1383.78L-101.563 1368.12C-102.07 1366.02 -103.458 1364.27 -105.327 1363.32L-119.548 1356.12C-129.206 1351.22 -131.987 1338.68 -125.436 1330.09L-115.711 1317.34C-114.415 1315.64 -113.913 1313.44 -114.357 1311.32L-117.662 1295.55C-119.88 1284.98 -112.02 1274.83 -101.149 1274.67L-85.251 1274.42C-83.1773 1274.39 -81.2025 1273.44 -79.8604 1271.78L-69.7617 1259.34Z" stroke="#448EEC" stroke-opacity="0.3" stroke-width="10"/>
<path d="M1499.34 421.22C1508.22 410.26 1524.78 410.26 1533.66 421.22L1547.94 438.866C1550.23 441.686 1553.6 443.323 1557.15 443.377L1579.64 443.721C1593.69 443.935 1603.88 457.085 1601 470.817L1596.33 493.166C1595.57 496.769 1596.42 500.518 1598.63 503.413L1612.39 521.488C1620.87 532.633 1617.26 548.904 1604.77 555.253L1584.65 565.475C1581.46 567.096 1579.1 570.077 1578.24 573.652L1572.91 595.848C1569.62 609.529 1554.76 616.899 1542 610.899L1521.59 601.297C1518.36 599.776 1514.64 599.776 1511.41 601.297L1491 610.899C1478.24 616.899 1463.38 609.529 1460.09 595.848L1454.76 573.652C1453.9 570.077 1451.54 567.096 1448.35 565.475L1428.23 555.253C1415.74 548.904 1412.13 532.633 1420.61 521.488L1434.37 503.413C1436.58 500.518 1437.43 496.769 1436.67 493.166L1432 470.817C1429.12 457.085 1439.31 443.935 1453.36 443.721L1475.85 443.377C1479.4 443.323 1482.77 441.686 1485.06 438.866L1499.34 421.22Z" stroke="#448EEC" stroke-opacity="0.6" stroke-width="10"/>
<path d="M1733.07 684.936C1739.5 677.021 1751.5 677.021 1757.93 684.936L1767.13 696.267C1768.27 697.671 1769.94 698.479 1771.7 698.506L1786.19 698.726C1796.37 698.881 1803.74 708.381 1801.66 718.284L1798.65 732.634C1798.27 734.438 1798.7 736.312 1799.8 737.755L1808.66 749.36C1814.8 757.401 1812.19 769.144 1803.14 773.729L1790.19 780.292C1788.6 781.095 1787.42 782.578 1786.99 784.367L1783.55 798.618C1781.17 808.489 1770.42 813.819 1761.17 809.483L1748.03 803.317C1746.42 802.565 1744.58 802.565 1742.97 803.317L1729.83 809.483C1720.58 813.819 1709.83 808.489 1707.45 798.618L1704.01 784.367C1703.58 782.578 1702.4 781.095 1700.81 780.292L1687.86 773.729C1678.81 769.144 1676.2 757.401 1682.34 749.36L1691.2 737.755C1692.3 736.312 1692.73 734.438 1692.35 732.634L1689.34 718.284C1687.26 708.381 1694.63 698.881 1704.81 698.726L1719.3 698.506C1721.06 698.479 1722.73 697.671 1723.87 696.267L1733.07 684.936Z" stroke="#448EEC" stroke-opacity="0.4" stroke-width="10"/>
<path d="M1989.95 510.891C1999.55 499.037 2017.45 499.037 2027.05 510.891L2042.83 530.395C2045.45 533.631 2049.32 535.512 2053.39 535.574L2078.24 535.954C2093.43 536.186 2104.45 550.409 2101.34 565.27L2096.17 589.97C2095.31 594.102 2096.28 598.402 2098.81 601.724L2114.01 621.701C2123.19 633.759 2119.28 651.364 2105.77 658.231L2083.55 669.528C2079.88 671.391 2077.18 674.814 2076.2 678.914L2070.3 703.445C2066.75 718.249 2050.68 726.216 2036.9 719.728L2014.35 709.114C2010.64 707.368 2006.36 707.368 2002.65 709.114L1980.1 719.728C1966.32 726.216 1950.25 718.249 1946.7 703.445L1940.8 678.914C1939.82 674.814 1937.12 671.391 1933.45 669.528L1911.23 658.231C1897.72 651.364 1893.81 633.759 1902.99 621.701L1918.19 601.724C1920.72 598.402 1921.69 594.102 1920.83 589.97L1915.66 565.27C1912.55 550.409 1923.57 536.186 1938.76 535.954L1963.61 535.574C1967.68 535.512 1971.55 533.632 1974.17 530.395L1989.95 510.891Z" stroke="#448EEC" stroke-opacity="0.4" stroke-width="10"/>
<path d="M1245.24 166.339C1252.1 157.887 1264.9 157.887 1271.76 166.339L1281.86 178.784C1283.2 180.438 1285.18 181.392 1287.25 181.424L1303.15 181.666C1314.02 181.832 1321.88 191.977 1319.66 202.555L1316.36 218.315C1315.91 220.437 1316.41 222.643 1317.71 224.342L1327.44 237.09C1333.99 245.677 1331.21 258.219 1321.55 263.115L1307.33 270.324C1305.46 271.272 1304.07 273.019 1303.56 275.123L1299.79 290.776C1297.25 301.319 1285.77 307.01 1275.91 302.38L1261.48 295.607C1259.59 294.72 1257.41 294.72 1255.52 295.607L1241.09 302.38C1231.23 307.01 1219.75 301.319 1217.21 290.776L1213.44 275.123C1212.93 273.019 1211.54 271.272 1209.67 270.324L1195.45 263.115C1185.79 258.219 1183.01 245.677 1189.56 237.09L1199.29 224.342C1200.59 222.643 1201.09 220.437 1200.64 218.315L1197.34 202.555C1195.12 191.977 1202.98 181.832 1213.85 181.666L1229.75 181.424C1231.82 181.392 1233.8 180.438 1235.14 178.784L1245.24 166.339Z" stroke="#448EEC" stroke-opacity="0.6" stroke-width="10"/>
<path d="M1436.24 1154.34C1443.1 1145.89 1455.9 1145.89 1462.76 1154.34L1472.86 1166.78C1474.2 1168.44 1476.18 1169.39 1478.25 1169.42L1494.15 1169.67C1505.02 1169.83 1512.88 1179.98 1510.66 1190.55L1507.36 1206.32C1506.91 1208.44 1507.41 1210.64 1508.71 1212.34L1518.44 1225.09C1524.99 1233.68 1522.21 1246.22 1512.55 1251.12L1498.33 1258.32C1496.46 1259.27 1495.07 1261.02 1494.56 1263.12L1490.79 1278.78C1488.25 1289.32 1476.77 1295.01 1466.91 1290.38L1452.48 1283.61C1450.59 1282.72 1448.41 1282.72 1446.52 1283.61L1432.09 1290.38C1422.23 1295.01 1410.75 1289.32 1408.21 1278.78L1404.44 1263.12C1403.93 1261.02 1402.54 1259.27 1400.67 1258.32L1386.45 1251.12C1376.79 1246.22 1374.01 1233.68 1380.56 1225.09L1390.29 1212.34C1391.59 1210.64 1392.09 1208.44 1391.64 1206.32L1388.34 1190.55C1386.12 1179.98 1393.98 1169.83 1404.85 1169.67L1420.75 1169.42C1422.82 1169.39 1424.8 1168.44 1426.14 1166.78L1436.24 1154.34Z" stroke="#448EEC" stroke-opacity="0.3" stroke-width="10"/>
<path d="M1190.94 783.334C1200.03 772.222 1216.97 772.222 1226.06 783.334L1240.79 801.353C1243.17 804.259 1246.69 805.96 1250.42 806.017L1273.62 806.367C1287.96 806.584 1298.47 819.896 1295.5 833.918L1290.68 856.736C1289.9 860.429 1290.78 864.277 1293.07 867.256L1307.26 885.711C1315.99 897.065 1312.25 913.621 1299.45 920.058L1278.7 930.494C1275.36 932.174 1272.91 935.25 1272.02 938.916L1266.52 961.579C1263.14 975.52 1247.9 982.932 1234.89 976.873L1213.84 967.068C1210.45 965.492 1206.55 965.492 1203.16 967.068L1182.11 976.873C1169.1 982.932 1153.86 975.52 1150.48 961.579L1144.98 938.916C1144.09 935.25 1141.64 932.174 1138.3 930.494L1117.55 920.058C1104.75 913.621 1101.01 897.065 1109.74 885.711L1123.93 867.256C1126.22 864.277 1127.1 860.429 1126.32 856.736L1121.5 833.918C1118.53 819.896 1129.04 806.584 1143.38 806.367L1166.58 806.017C1170.31 805.96 1173.83 804.259 1176.21 801.353L1190.94 783.334Z" stroke="#448EEC" stroke-opacity="0.5" stroke-width="10"/>
<path d="M172.885 1160.15C186.148 1143.95 210.852 1143.95 224.115 1160.15L247.53 1188.76C251.854 1194.04 258.265 1197.14 265.059 1197.24L301.919 1197.8C322.823 1198.11 338.182 1217.52 333.852 1238L326.189 1274.22C324.773 1280.92 326.361 1287.91 330.526 1293.32L353.075 1322.62C365.828 1339.19 360.356 1363.35 341.681 1372.74L308.711 1389.3C302.63 1392.36 298.185 1397.95 296.568 1404.61L287.826 1440.59C282.881 1460.94 260.644 1471.73 241.674 1462.9L208.224 1447.33C202.055 1444.46 194.945 1444.46 188.776 1447.33L155.326 1462.9C136.356 1471.73 114.119 1460.94 109.174 1440.59L100.432 1404.61C98.8151 1397.95 94.3703 1392.36 88.2891 1389.3L55.3193 1372.74C36.6442 1363.35 31.1714 1339.19 43.9248 1322.62L66.4736 1293.32C70.639 1287.91 72.2275 1280.92 70.8105 1274.22L63.1484 1238C58.8179 1217.52 74.1765 1198.11 95.0811 1197.8L131.941 1197.24C138.735 1197.14 145.146 1194.04 149.47 1188.76L172.885 1160.15Z" stroke="#448EEC" stroke-opacity="0.3" stroke-width="10"/>
<path opacity="0.3" d="M95.2861 1668.72C102.648 1659.76 116.352 1659.76 123.714 1668.72L134.86 1682.28C136.429 1684.18 138.756 1685.31 141.224 1685.34L158.771 1685.61C170.361 1685.78 178.903 1696.5 176.495 1707.84L172.848 1725.01C172.334 1727.43 172.91 1729.95 174.42 1731.9L185.153 1745.79C192.241 1754.96 189.193 1768.33 178.828 1773.51L163.134 1781.37C160.926 1782.47 159.315 1784.49 158.729 1786.89L154.567 1803.95C151.819 1815.21 139.473 1821.16 128.954 1816.29L113.031 1808.91C110.792 1807.87 108.208 1807.87 105.969 1808.91L90.0459 1816.29C79.5272 1821.16 67.1805 1815.21 64.4326 1803.95L60.2705 1786.89C59.6848 1784.49 58.0738 1782.47 55.8662 1781.37L40.1719 1773.51C29.8065 1768.33 26.7593 1754.96 33.8467 1745.79L44.5801 1731.9C46.0905 1729.95 46.6657 1727.43 46.1523 1725.01L42.5049 1707.84C40.0972 1696.5 48.6386 1685.78 60.2295 1685.61L77.7764 1685.34C80.2439 1685.31 82.5714 1684.18 84.1396 1682.28L95.2861 1668.72Z" stroke="#448EEC" stroke-opacity="0.3" stroke-width="10"/>
<path opacity="0.3" d="M113.555 1994.35C125.954 1979.22 149.046 1979.22 161.445 1994.35L183.065 2020.72C186.986 2025.51 192.799 2028.31 198.961 2028.41L232.995 2028.92C252.532 2029.21 266.898 2047.33 262.848 2066.45L255.773 2099.86C254.489 2105.92 255.929 2112.25 259.705 2117.15L280.524 2144.16C292.452 2159.64 287.33 2182.2 269.871 2190.96L239.43 2206.24C233.915 2209.01 229.886 2214.07 228.421 2220.09L220.35 2253.27C215.725 2272.28 194.934 2282.34 177.204 2274.1L146.318 2259.75C140.724 2257.15 134.276 2257.15 128.682 2259.75L97.7959 2274.1C80.066 2282.34 59.2746 2272.28 54.6504 2253.27L46.5791 2220.09C45.1139 2214.07 41.0848 2209.01 35.5703 2206.24L5.12891 2190.96C-12.3304 2182.2 -17.4516 2159.64 -5.52441 2144.16L15.2949 2117.15C19.0711 2112.25 20.5108 2105.92 19.2266 2099.86L12.1523 2066.45C8.10171 2047.33 22.4676 2029.21 42.0049 2028.92L76.0391 2028.41C82.2007 2028.31 88.0143 2025.51 91.9346 2020.72L113.555 1994.35Z" stroke="#448EEC" stroke-opacity="0.3" stroke-width="10"/>
<path opacity="0.3" d="M980.36 1535.13C989.234 1524.29 1005.77 1524.29 1014.64 1535.13L1028.93 1552.59C1031.2 1555.37 1034.58 1557 1038.15 1557.06L1060.64 1557.4C1074.63 1557.61 1084.9 1570.6 1082 1584.28L1077.33 1606.4C1076.58 1609.93 1077.42 1613.61 1079.61 1616.46L1093.37 1634.35C1101.89 1645.43 1098.24 1661.58 1085.75 1667.86L1065.63 1677.98C1062.43 1679.59 1060.09 1682.53 1059.24 1686.04L1053.9 1708C1050.6 1721.61 1035.72 1728.84 1023.02 1722.92L1002.61 1713.42C999.368 1711.91 995.632 1711.91 992.39 1713.42L971.978 1722.92C959.277 1728.84 944.402 1721.61 941.097 1708L935.763 1686.04C934.911 1682.53 932.569 1679.59 929.371 1677.98L909.252 1667.86C896.758 1661.58 893.105 1645.43 901.63 1634.35L915.39 1616.46C917.583 1613.61 918.421 1609.93 917.674 1606.4L912.998 1584.28C910.104 1570.6 920.367 1557.61 934.362 1557.4L956.854 1557.06C960.424 1557 963.796 1555.37 966.072 1552.59L980.36 1535.13Z" stroke="#448EEC" stroke-opacity="0.3" stroke-width="10"/>
<path opacity="0.3" d="M1527.58 1618.48C1537.89 1605.84 1557.11 1605.84 1567.42 1618.48L1584.7 1639.65C1587.65 1643.27 1592.02 1645.38 1596.64 1645.45L1623.84 1645.86C1640.12 1646.11 1652.03 1661.25 1648.67 1677.18L1643.02 1704C1642.05 1708.6 1643.14 1713.38 1645.98 1717.09L1662.62 1738.78C1672.52 1751.68 1668.29 1770.5 1653.76 1777.82L1629.43 1790.08C1625.29 1792.17 1622.26 1796 1621.15 1800.56L1614.7 1827.19C1610.86 1843.04 1593.58 1851.47 1578.81 1844.58L1554.12 1833.06C1549.92 1831.1 1545.08 1831.1 1540.88 1833.06L1516.2 1844.58C1501.42 1851.47 1484.14 1843.04 1480.3 1827.19L1473.85 1800.56C1472.74 1796 1469.71 1792.17 1465.57 1790.08L1441.24 1777.82C1426.71 1770.5 1422.48 1751.68 1432.38 1738.78L1449.02 1717.09C1451.86 1713.38 1452.95 1708.6 1451.98 1704L1446.33 1677.18C1442.97 1661.25 1454.88 1646.11 1471.16 1645.86L1498.36 1645.45C1502.98 1645.38 1507.35 1643.27 1510.3 1639.65L1527.58 1618.48Z" stroke="#448EEC" stroke-opacity="0.3" stroke-width="10"/>
<path opacity="0.3" d="M1852.88 1932.15C1866.15 1915.95 1890.85 1915.95 1904.12 1932.15L1927.53 1960.76C1931.85 1966.04 1938.27 1969.14 1945.06 1969.24L1981.92 1969.8C2002.82 1970.11 2018.18 1989.52 2013.85 2010L2006.19 2046.22C2004.77 2052.92 2006.36 2059.91 2010.53 2065.32L2033.08 2094.62C2045.83 2111.19 2040.36 2135.35 2021.68 2144.74L1988.71 2161.3C1982.63 2164.36 1978.18 2169.95 1976.57 2176.61L1967.83 2212.59C1962.88 2232.94 1940.64 2243.73 1921.67 2234.9L1888.22 2219.33C1882.06 2216.46 1874.94 2216.46 1868.78 2219.33L1835.33 2234.9C1816.36 2243.73 1794.12 2232.94 1789.17 2212.59L1780.43 2176.61C1778.82 2169.95 1774.37 2164.36 1768.29 2161.3L1735.32 2144.74C1716.64 2135.35 1711.17 2111.19 1723.92 2094.62L1746.47 2065.32C1750.64 2059.91 1752.23 2052.92 1750.81 2046.22L1743.15 2010C1738.82 1989.52 1754.18 1970.11 1775.08 1969.8L1811.94 1969.24C1818.73 1969.14 1825.15 1966.04 1829.47 1960.76L1852.88 1932.15Z" stroke="#448EEC" stroke-opacity="0.3" stroke-width="10"/>
<path opacity="0.3" d="M1030.81 1936.74C1042.56 1922.42 1064.44 1922.42 1076.19 1936.74L1096.47 1961.45C1100.08 1965.85 1105.45 1968.44 1111.14 1968.53L1143.05 1969.01C1161.56 1969.29 1175.19 1986.43 1171.35 2004.55L1164.71 2035.84C1163.53 2041.42 1164.85 2047.25 1168.34 2051.76L1187.86 2077.07C1199.17 2091.73 1194.31 2113.09 1177.76 2121.38L1149.22 2135.69C1144.13 2138.25 1140.41 2142.91 1139.06 2148.46L1131.49 2179.54C1127.11 2197.53 1107.4 2207.06 1090.6 2199.26L1061.64 2185.82C1056.48 2183.42 1050.52 2183.42 1045.36 2185.82L1016.4 2199.26C999.6 2207.06 979.893 2197.53 975.509 2179.54L967.939 2148.46C966.588 2142.91 962.871 2138.25 957.781 2135.69L929.235 2121.38C912.689 2113.09 907.831 2091.73 919.139 2077.07L938.661 2051.76C942.145 2047.25 943.473 2041.42 942.288 2035.84L935.654 2004.55C931.813 1986.43 945.437 1969.29 963.948 1969.01L995.862 1968.53C1001.55 1968.44 1006.92 1965.85 1010.53 1961.45L1030.81 1936.74Z" stroke="#448EEC" stroke-opacity="0.3" stroke-width="10"/>
<path opacity="0.3" d="M1844.73 1473.99C1852.38 1464.67 1866.62 1464.67 1874.27 1473.99L1886.02 1488.29C1887.72 1490.36 1890.25 1491.58 1892.92 1491.62L1911.41 1491.9C1923.46 1492.08 1932.33 1503.23 1929.83 1515.02L1925.99 1533.13C1925.43 1535.76 1926.05 1538.5 1927.69 1540.63L1939 1555.28C1946.37 1564.81 1943.2 1578.71 1932.43 1584.1L1915.89 1592.39C1913.5 1593.59 1911.75 1595.79 1911.11 1598.4L1906.73 1616.39C1903.87 1628.09 1891.05 1634.29 1880.11 1629.22L1863.33 1621.44C1860.9 1620.31 1858.1 1620.31 1855.67 1621.44L1838.89 1629.22C1827.95 1634.29 1815.13 1628.09 1812.27 1616.39L1807.89 1598.4C1807.25 1595.79 1805.5 1593.59 1803.11 1592.39L1786.57 1584.1C1775.8 1578.71 1772.63 1564.81 1780 1555.28L1791.31 1540.63C1792.95 1538.5 1793.57 1535.76 1793.01 1533.13L1789.17 1515.02C1786.67 1503.23 1795.54 1492.08 1807.59 1491.9L1826.08 1491.62C1828.75 1491.58 1831.28 1490.36 1832.98 1488.29L1844.73 1473.99Z" stroke="#448EEC" stroke-opacity="0.3" stroke-width="10"/>
<path opacity="0.3" d="M577.108 1831.74C586.629 1820.09 604.371 1820.09 613.892 1831.74L629.527 1850.87C632.107 1854.03 635.927 1855.87 639.969 1855.93L664.581 1856.31C679.604 1856.53 690.607 1870.49 687.504 1885.19L682.389 1909.42C681.542 1913.43 682.492 1917.61 684.978 1920.84L700.034 1940.44C709.177 1952.34 705.261 1969.7 691.854 1976.44L669.84 1987.53C666.218 1989.35 663.565 1992.69 662.599 1996.67L656.761 2020.74C653.216 2035.35 637.258 2043.12 623.625 2036.77L601.289 2026.36C597.616 2024.65 593.384 2024.65 589.711 2026.36L567.375 2036.77C553.742 2043.12 537.784 2035.35 534.239 2020.74L528.401 1996.67C527.435 1992.69 524.782 1989.35 521.16 1987.53L499.146 1976.44C485.739 1969.7 481.823 1952.34 490.966 1940.44L506.022 1920.84C508.508 1917.61 509.458 1913.43 508.611 1909.42L503.496 1885.19C500.393 1870.49 511.396 1856.53 526.419 1856.31L551.031 1855.93C555.073 1855.87 558.893 1854.03 561.473 1850.87L577.108 1831.74Z" stroke="#448EEC" stroke-opacity="0.3" stroke-width="10"/>
<path d="M895.921 223.202C907.097 209.6 927.903 209.599 939.079 223.202L958.155 246.421H958.156C961.504 250.496 966.472 252.89 971.739 252.97L1001.77 253.422C1019.37 253.687 1032.33 269.969 1028.68 287.188L1022.43 316.594C1021.34 321.756 1022.57 327.14 1025.79 331.314L1044.16 355.097C1054.92 369.025 1050.29 389.322 1034.56 397.201L1007.7 410.65C1002.99 413.01 999.546 417.326 998.296 422.453L991.173 451.658C987.002 468.761 968.259 477.802 952.289 470.397L925.037 457.763C920.256 455.546 914.744 455.546 909.963 457.763L882.711 470.397C866.741 477.802 847.998 468.761 843.827 451.658L836.704 422.453C835.454 417.326 832.014 413.01 827.302 410.65L800.442 397.201C784.706 389.322 780.081 369.025 790.839 355.097L809.21 331.314C812.434 327.14 813.662 321.756 812.566 316.594L806.324 287.188C802.669 269.969 815.633 253.687 833.231 253.422L863.261 252.97C868.528 252.89 873.497 250.496 876.845 246.421L895.921 223.202Z" stroke="#448EEC" stroke-opacity="0.6" stroke-width="10"/>
<path d="M1453.06 -212.483C1466.75 -229.172 1492.25 -229.172 1505.94 -212.483L1530.26 -182.856C1534.78 -177.344 1541.49 -174.106 1548.61 -173.999L1586.88 -173.422C1608.45 -173.097 1624.33 -153.119 1619.85 -132.004L1611.9 -94.4824C1610.42 -87.4967 1612.08 -80.2127 1616.43 -74.5654L1639.85 -44.2188C1653.02 -27.1366 1647.36 -2.24082 1628.08 7.42578L1593.85 24.5869C1587.48 27.7783 1582.83 33.6163 1581.14 40.5537L1572.06 77.8193C1566.95 98.7956 1543.99 109.893 1524.41 100.807L1489.68 84.6846C1483.22 81.6867 1475.78 81.6867 1469.32 84.6846L1434.59 100.807C1415.01 109.893 1392.05 98.7956 1386.94 77.8193L1377.86 40.5537C1376.17 33.6163 1371.52 27.7783 1365.15 24.5869L1330.92 7.42578C1311.64 -2.24082 1305.98 -27.1366 1319.15 -44.2188L1342.57 -74.5654C1346.92 -80.2127 1348.58 -87.4967 1347.1 -94.4824L1339.15 -132.004C1334.67 -153.119 1350.55 -173.097 1372.12 -173.422L1410.39 -173.999C1417.51 -174.106 1424.22 -177.344 1428.74 -182.856L1453.06 -212.483Z" stroke="#448EEC" stroke-opacity="0.6" stroke-width="10"/>
<path d="M1898.97 1087.14C1911.16 1072.29 1933.84 1072.29 1946.03 1087.14L1967.2 1112.96C1971.02 1117.62 1976.68 1120.36 1982.69 1120.45L2016.01 1120.95C2035.21 1121.24 2049.33 1139.03 2045.35 1157.82L2038.42 1190.52C2037.17 1196.42 2038.57 1202.58 2042.25 1207.35L2062.64 1233.8C2074.36 1249 2069.32 1271.16 2052.17 1279.77L2022.36 1294.72C2016.99 1297.42 2013.06 1302.35 2011.63 1308.22L2003.73 1340.69C1999.19 1359.36 1978.76 1369.25 1961.34 1361.16L1931.09 1347.11C1925.64 1344.57 1919.36 1344.57 1913.91 1347.11L1883.66 1361.16C1866.24 1369.25 1845.81 1359.36 1841.27 1340.69L1833.37 1308.22C1831.94 1302.35 1828.01 1297.42 1822.64 1294.72L1792.83 1279.77C1775.68 1271.16 1770.64 1249 1782.36 1233.8L1802.75 1207.35C1806.43 1202.58 1807.83 1196.42 1806.58 1190.52L1799.65 1157.82C1795.67 1139.03 1809.79 1121.24 1828.99 1120.95L1862.31 1120.45C1868.32 1120.36 1873.98 1117.62 1877.8 1112.96L1898.97 1087.14Z" stroke="#448EEC" stroke-opacity="0.3" stroke-width="10"/>
<path d="M530.804 524.401C539.965 513.199 557.035 513.199 566.196 524.401L581.083 542.605C583.494 545.554 587.065 547.279 590.845 547.336L614.279 547.69C628.732 547.909 639.322 561.329 636.336 575.463L631.465 598.517C630.673 602.262 631.561 606.165 633.885 609.188L648.221 627.833C657.02 639.278 653.25 655.966 640.351 662.455L619.39 673C616.003 674.703 613.523 677.824 612.62 681.542L607.062 704.438C603.65 718.492 588.295 725.964 575.18 719.855L553.912 709.95C550.479 708.351 546.521 708.351 543.088 709.95L521.82 719.855C508.705 725.964 493.35 718.492 489.938 704.438L484.38 681.542C483.477 677.824 480.997 674.703 477.61 673L456.649 662.455C443.75 655.966 439.98 639.278 448.779 627.833L463.115 609.188C465.439 606.165 466.327 602.262 465.535 598.517L460.664 575.463C457.678 561.329 468.268 547.909 482.721 547.69L506.155 547.336C509.935 547.279 513.506 545.554 515.917 542.605L530.804 524.401Z" stroke="#448EEC" stroke-opacity="0.6" stroke-width="10"/>
</g>
<path d="M204.475 -57.4062C212.772 -67.531 228.228 -67.531 236.525 -57.4062L249.617 -41.4316C251.624 -38.9829 254.598 -37.5485 257.747 -37.501L278.355 -37.1895C291.436 -36.992 301.04 -24.8666 298.332 -12.0771L294.049 8.1543C293.391 11.2626 294.129 14.5022 296.062 17.0117L308.669 33.374C316.645 43.7263 313.224 58.8187 301.541 64.6836L283.107 73.9365C280.287 75.3522 278.224 77.9441 277.473 81.0303L272.585 101.123C269.493 113.835 255.582 120.58 243.711 115.062L225.009 106.37C222.149 105.041 218.851 105.041 215.991 106.37L197.289 115.062C185.418 120.58 171.507 113.835 168.415 101.123L163.527 81.0303C162.776 77.9441 160.713 75.3522 157.893 73.9365L139.459 64.6836C127.776 58.8187 124.355 43.7263 132.331 33.374L144.938 17.0117C146.871 14.5022 147.609 11.2626 146.951 8.1543L142.668 -12.0771C139.96 -24.8666 149.564 -36.992 162.645 -37.1895L183.253 -37.501C186.402 -37.5485 189.376 -38.9829 191.383 -41.4316L204.475 -57.4062Z" stroke="#448EEC" stroke-opacity="0.3" stroke-width="10"/>
<path d="M17.9717 279.145C30.1552 264.286 52.8448 264.286 65.0283 279.145L86.1992 304.964C90.0185 309.622 95.6828 312.356 101.687 312.446L135.014 312.948C154.209 313.238 168.327 331.029 164.347 349.818L157.42 382.518C156.169 388.423 157.571 394.579 161.25 399.352L181.637 425.798C193.357 441.002 188.324 463.163 171.169 471.77L141.359 486.725C135.986 489.42 132.062 494.353 130.635 500.217L122.729 532.692C118.185 551.362 97.7565 561.248 80.3369 553.156L50.0928 539.106C44.6423 536.574 38.3577 536.574 32.9072 539.106L2.66309 553.156C-14.7565 561.248 -35.1853 551.362 -39.7295 532.692L-47.6348 500.217C-49.0622 494.353 -52.9864 489.42 -58.3594 486.725L-88.1689 471.77C-105.324 463.163 -110.357 441.002 -98.6367 425.798L-78.25 399.352C-74.5711 394.579 -73.1689 388.423 -74.4199 382.518L-81.3467 349.818C-85.3272 331.029 -71.2091 313.238 -52.0137 312.948L-18.6865 312.446C-12.6828 312.356 -7.01854 309.622 -3.19922 304.964L17.9717 279.145Z" stroke="#448EEC" stroke-opacity="0.3" stroke-width="10"/>
<path d="M573.387 175.604C582.764 164.132 600.236 164.132 609.613 175.604L624.949 194.364C627.461 197.437 631.182 199.236 635.119 199.296L659.261 199.661C674.055 199.885 684.893 213.628 681.837 228.099L676.819 251.858C675.995 255.763 676.92 259.83 679.341 262.98L694.108 282.197C703.114 293.916 699.257 311.003 686.054 317.648L664.46 328.516C660.932 330.291 658.348 333.544 657.407 337.42L651.682 361.018C648.19 375.406 632.473 383.06 619.047 376.804L597.139 366.596C593.562 364.929 589.438 364.929 585.861 366.596L563.953 376.804C550.527 383.06 534.81 375.406 531.318 361.018L525.593 337.42C524.652 333.544 522.068 330.291 518.54 328.516L496.946 317.648C483.743 311.003 479.886 293.916 488.892 282.197L503.659 262.98C506.08 259.83 507.005 255.763 506.181 251.858L501.163 228.099C498.107 213.628 508.945 199.885 523.739 199.661L547.881 199.296C551.818 199.236 555.539 197.437 558.051 194.364L573.387 175.604Z" stroke="#448EEC" stroke-opacity="0.3" stroke-width="10"/>
<path d="M891.238 821.339C898.097 812.887 910.903 812.887 917.762 821.339L927.861 833.784C929.203 835.438 931.177 836.392 933.251 836.424L949.149 836.666C960.02 836.832 967.88 846.977 965.662 857.555L962.357 873.315C961.913 875.437 962.415 877.643 963.711 879.342L973.436 892.09C979.987 900.677 977.206 913.219 967.548 918.115L953.327 925.324C951.458 926.272 950.07 928.019 949.563 930.123L945.793 945.776C943.253 956.319 931.771 962.01 921.906 957.38L907.479 950.607C905.588 949.72 903.412 949.72 901.521 950.607L887.094 957.38C877.229 962.01 865.747 956.319 863.207 945.776L859.437 930.123C858.93 928.019 857.542 926.272 855.673 925.324L841.452 918.115C831.794 913.219 829.013 900.677 835.564 892.09L845.289 879.342C846.585 877.643 847.087 875.437 846.643 873.315L843.338 857.555C841.12 846.977 848.98 836.832 859.851 836.666L875.749 836.424C877.823 836.392 879.798 835.438 881.14 833.784L891.238 821.339Z" stroke="#448EEC" stroke-opacity="0.3" stroke-width="10"/>
<path d="M769.238 1062.34C776.097 1053.89 788.903 1053.89 795.762 1062.34L805.861 1074.78C807.203 1076.44 809.177 1077.39 811.251 1077.42L827.149 1077.67C838.02 1077.83 845.88 1087.98 843.662 1098.55L840.357 1114.32C839.913 1116.44 840.415 1118.64 841.711 1120.34L851.436 1133.09C857.987 1141.68 855.206 1154.22 845.548 1159.12L831.327 1166.32C829.458 1167.27 828.07 1169.02 827.563 1171.12L823.793 1186.78C821.253 1197.32 809.771 1203.01 799.906 1198.38L785.479 1191.61C783.588 1190.72 781.412 1190.72 779.521 1191.61L765.094 1198.38C755.229 1203.01 743.747 1197.32 741.207 1186.78L737.437 1171.12C736.93 1169.02 735.542 1167.27 733.673 1166.32L719.452 1159.12C709.794 1154.22 707.013 1141.68 713.564 1133.09L723.289 1120.34C724.585 1118.64 725.087 1116.44 724.643 1114.32L721.338 1098.55C719.12 1087.98 726.98 1077.83 737.851 1077.67L753.749 1077.42C755.823 1077.39 757.798 1076.44 759.14 1074.78L769.238 1062.34Z" stroke="#448EEC" stroke-opacity="0.3" stroke-width="10"/>
<path d="M28.2383 946.339C35.097 937.887 47.903 937.887 54.7617 946.339L64.8613 958.784C66.2035 960.438 68.1773 961.392 70.251 961.424L86.1494 961.666C97.0197 961.832 104.88 971.977 102.662 982.555L99.3574 998.315C98.9126 1000.44 99.4145 1002.64 100.711 1004.34L110.436 1017.09C116.987 1025.68 114.206 1038.22 104.548 1043.12L90.3271 1050.32C88.4582 1051.27 87.0704 1053.02 86.5635 1055.12L82.793 1070.78C80.2534 1081.32 68.771 1087.01 58.9062 1082.38L44.4795 1075.61C42.5882 1074.72 40.4118 1074.72 38.5205 1075.61L24.0938 1082.38C14.229 1087.01 2.74657 1081.32 0.207031 1070.78L-3.56348 1055.12C-4.07039 1053.02 -5.45816 1051.27 -7.32715 1050.32L-21.5479 1043.12C-31.2063 1038.22 -33.9872 1025.68 -27.4355 1017.09L-17.7109 1004.34C-16.4145 1002.64 -15.9126 1000.44 -16.3574 998.315L-19.6621 982.555C-21.8799 971.977 -14.0198 961.832 -3.14941 961.666L12.749 961.424C14.8227 961.392 16.7975 960.438 18.1396 958.784L28.2383 946.339Z" stroke="#448EEC" stroke-opacity="0.3" stroke-width="10"/>
<path opacity="0.7" d="M1534.24 173.339C1541.1 164.887 1553.9 164.887 1560.76 173.339L1570.86 185.784C1572.2 187.438 1574.18 188.392 1576.25 188.424L1592.15 188.666C1603.02 188.832 1610.88 198.977 1608.66 209.555L1605.36 225.315C1604.91 227.437 1605.41 229.643 1606.71 231.342L1616.44 244.09C1622.99 252.677 1620.21 265.219 1610.55 270.115L1596.33 277.324C1594.46 278.272 1593.07 280.019 1592.56 282.123L1588.79 297.776C1586.25 308.319 1574.77 314.01 1564.91 309.38L1550.48 302.607C1548.59 301.72 1546.41 301.72 1544.52 302.607L1530.09 309.38C1520.23 314.01 1508.75 308.319 1506.21 297.776L1502.44 282.123C1501.93 280.019 1500.54 278.272 1498.67 277.324L1484.45 270.115C1474.79 265.219 1472.01 252.677 1478.56 244.09L1488.29 231.342C1489.59 229.643 1490.09 227.437 1489.64 225.315L1486.34 209.555C1484.12 198.977 1491.98 188.832 1502.85 188.666L1518.75 188.424C1520.82 188.392 1522.8 187.438 1524.14 185.784L1534.24 173.339Z" stroke="#448EEC" stroke-opacity="0.3" stroke-width="10"/>
<path d="M1534.24 841.339C1541.1 832.887 1553.9 832.887 1560.76 841.339L1570.86 853.784C1572.2 855.438 1574.18 856.392 1576.25 856.424L1592.15 856.666C1603.02 856.832 1610.88 866.977 1608.66 877.555L1605.36 893.315C1604.91 895.437 1605.41 897.643 1606.71 899.342L1616.44 912.09C1622.99 920.677 1620.21 933.219 1610.55 938.115L1596.33 945.324C1594.46 946.272 1593.07 948.019 1592.56 950.123L1588.79 965.776C1586.25 976.319 1574.77 982.01 1564.91 977.38L1550.48 970.607C1548.59 969.72 1546.41 969.72 1544.52 970.607L1530.09 977.38C1520.23 982.01 1508.75 976.319 1506.21 965.776L1502.44 950.123C1501.93 948.019 1500.54 946.272 1498.67 945.324L1484.45 938.115C1474.79 933.219 1472.01 920.677 1478.56 912.09L1488.29 899.342C1489.59 897.643 1490.09 895.437 1489.64 893.315L1486.34 877.555C1484.12 866.977 1491.98 856.832 1502.85 856.666L1518.75 856.424C1520.82 856.392 1522.8 855.438 1524.14 853.784L1534.24 841.339Z" stroke="#448EEC" stroke-opacity="0.3" stroke-width="10"/>
<path d="M1762.94 377.334C1772.03 366.222 1788.97 366.222 1798.06 377.334L1812.79 395.353C1815.17 398.259 1818.69 399.96 1822.42 400.017L1845.62 400.367C1859.96 400.584 1870.47 413.896 1867.5 427.918L1862.68 450.736C1861.9 454.429 1862.78 458.277 1865.07 461.256L1879.26 479.711C1887.99 491.065 1884.25 507.621 1871.45 514.058L1850.7 524.494C1847.36 526.174 1844.91 529.25 1844.02 532.916L1838.52 555.579C1835.14 569.52 1819.9 576.932 1806.89 570.873L1785.84 561.068C1782.45 559.492 1778.55 559.492 1775.16 561.068L1754.11 570.873C1741.1 576.932 1725.86 569.52 1722.48 555.579L1716.98 532.916C1716.09 529.25 1713.64 526.174 1710.3 524.494L1689.55 514.058C1676.75 507.621 1673.01 491.065 1681.74 479.711L1695.93 461.256C1698.22 458.277 1699.1 454.429 1698.32 450.736L1693.5 427.918C1690.53 413.896 1701.04 400.584 1715.38 400.367L1738.58 400.017C1742.31 399.96 1745.83 398.259 1748.21 395.353L1762.94 377.334Z" stroke="#448EEC" stroke-opacity="0.3" stroke-width="10"/>
<path d="M422.885 787.152C436.148 770.949 460.852 770.949 474.115 787.152L497.53 815.759C501.854 821.041 508.265 824.14 515.059 824.242L551.919 824.799C572.823 825.115 588.182 844.519 583.852 864.995L576.189 901.223C574.773 907.922 576.361 914.907 580.526 920.319L603.075 949.62C615.828 966.192 610.356 990.349 591.681 999.735L558.711 1016.3C552.63 1019.36 548.185 1024.95 546.568 1031.61L537.826 1067.59C532.881 1087.94 510.644 1098.73 491.674 1089.9L458.224 1074.33C452.055 1071.46 444.945 1071.46 438.776 1074.33L405.326 1089.9C386.356 1098.73 364.119 1087.94 359.174 1067.59L350.432 1031.61C348.815 1024.95 344.37 1019.36 338.289 1016.3L305.319 999.735C286.644 990.349 281.171 966.191 293.925 949.619L316.474 920.319C320.639 914.907 322.227 907.922 320.811 901.223L313.148 864.995C308.818 844.519 324.177 825.115 345.081 824.799L381.941 824.242C388.735 824.14 395.146 821.041 399.47 815.759L422.885 787.152Z" stroke="#448EEC" stroke-opacity="0.3" stroke-width="10"/>
<path opacity="0.3" d="M193.286 1355.72C200.648 1346.76 214.352 1346.76 221.714 1355.72L232.86 1369.28C234.429 1371.18 236.756 1372.31 239.224 1372.34L256.771 1372.61C268.361 1372.78 276.903 1383.5 274.495 1394.84L270.848 1412.01C270.334 1414.43 270.91 1416.95 272.42 1418.9L283.153 1432.79C290.241 1441.96 287.193 1455.33 276.828 1460.51L261.134 1468.37C258.926 1469.47 257.315 1471.49 256.729 1473.89L252.567 1490.95C249.819 1502.21 237.473 1508.16 226.954 1503.29L211.031 1495.91C208.792 1494.87 206.208 1494.87 203.969 1495.91L188.046 1503.29C177.527 1508.16 165.181 1502.21 162.433 1490.95L158.271 1473.89C157.685 1471.49 156.074 1469.47 153.866 1468.37L138.172 1460.51C127.807 1455.33 124.759 1441.96 131.847 1432.79L142.58 1418.9C144.09 1416.95 144.666 1414.43 144.152 1412.01L140.505 1394.84C138.097 1383.5 146.639 1372.78 158.229 1372.61L175.776 1372.34C178.244 1372.31 180.571 1371.18 182.14 1369.28L193.286 1355.72Z" stroke="#448EEC" stroke-opacity="0.3" stroke-width="10"/>
<path opacity="0.3" d="M29.5547 1667.35C41.9541 1652.22 65.0459 1652.22 77.4453 1667.35L99.0654 1693.72C102.986 1698.51 108.799 1701.31 114.961 1701.41L148.995 1701.92C168.532 1702.21 182.898 1720.33 178.848 1739.45L171.773 1772.86C170.489 1778.92 171.929 1785.25 175.705 1790.15L196.524 1817.16C208.452 1832.64 203.33 1855.2 185.871 1863.96L155.43 1879.24C149.915 1882.01 145.886 1887.07 144.421 1893.09L136.35 1926.27C131.725 1945.28 110.934 1955.34 93.2041 1947.1L62.3184 1932.75C56.7244 1930.15 50.2756 1930.15 44.6816 1932.75L13.7959 1947.1C-3.93404 1955.34 -24.7254 1945.28 -29.3496 1926.27L-37.4209 1893.09C-38.8861 1887.07 -42.9152 1882.01 -48.4297 1879.24L-78.8711 1863.96C-96.3304 1855.2 -101.452 1832.64 -89.5244 1817.16L-68.7051 1790.15C-64.9289 1785.25 -63.4892 1778.92 -64.7734 1772.86L-71.8477 1739.45C-75.8983 1720.33 -61.5324 1702.21 -41.9951 1701.92L-7.96094 1701.41C-1.79934 1701.31 4.01428 1698.51 7.93457 1693.72L29.5547 1667.35Z" stroke="#448EEC" stroke-opacity="0.3" stroke-width="10"/>
<path opacity="0.3" d="M1078.36 1222.13C1087.23 1211.29 1103.77 1211.29 1112.64 1222.13L1126.93 1239.59C1129.2 1242.37 1132.58 1244 1136.15 1244.06L1158.64 1244.4C1172.63 1244.61 1182.9 1257.6 1180 1271.28L1175.33 1293.4C1174.58 1296.93 1175.42 1300.61 1177.61 1303.46L1191.37 1321.35C1199.89 1332.43 1196.24 1348.58 1183.75 1354.86L1163.63 1364.98C1160.43 1366.59 1158.09 1369.53 1157.24 1373.04L1151.9 1395C1148.6 1408.61 1133.72 1415.84 1121.02 1409.92L1100.61 1400.42C1097.37 1398.91 1093.63 1398.91 1090.39 1400.42L1069.98 1409.92C1057.28 1415.84 1042.4 1408.61 1039.1 1395L1033.76 1373.04C1032.91 1369.53 1030.57 1366.59 1027.37 1364.98L1007.25 1354.86C994.758 1348.58 991.105 1332.43 999.63 1321.35L1013.39 1303.46C1015.58 1300.61 1016.42 1296.93 1015.67 1293.4L1011 1271.28C1008.1 1257.6 1018.37 1244.61 1032.36 1244.4L1054.85 1244.06C1058.42 1244 1061.8 1242.37 1064.07 1239.59L1078.36 1222.13Z" stroke="#448EEC" stroke-opacity="0.3" stroke-width="10"/>
<path opacity="0.3" d="M543.825 1928.63C558.672 1910.46 586.328 1910.46 601.175 1928.63L627.882 1961.32C632.946 1967.52 640.453 1971.16 648.405 1971.28L690.446 1971.91C713.854 1972.27 731.036 1994.03 726.191 2016.99L717.452 2058.39C715.792 2066.25 717.654 2074.45 722.532 2080.8L748.251 2114.29C762.521 2132.87 756.401 2159.96 735.496 2170.49L697.892 2189.42C690.772 2193.01 685.566 2199.57 683.672 2207.38L673.701 2248.5C668.168 2271.32 643.278 2283.43 622.036 2273.52L583.884 2255.73C576.662 2252.36 568.338 2252.36 561.116 2255.73L522.964 2273.52C501.722 2283.43 476.832 2271.32 471.299 2248.5L461.328 2207.38C459.434 2199.57 454.228 2193.01 447.108 2189.42L409.504 2170.49C388.599 2159.96 382.479 2132.87 396.749 2114.29L422.468 2080.8C427.346 2074.45 429.208 2066.25 427.548 2058.39L418.809 2016.99C413.964 1994.03 431.146 1972.27 454.554 1971.91L496.595 1971.28C504.547 1971.16 512.054 1967.52 517.118 1961.32L543.825 1928.63Z" stroke="#448EEC" stroke-opacity="0.3" stroke-width="10"/>
<path opacity="0.3" d="M1594.58 1317.48C1604.89 1304.84 1624.11 1304.84 1634.42 1317.48L1651.7 1338.65C1654.65 1342.27 1659.02 1344.38 1663.64 1344.45L1690.84 1344.86C1707.12 1345.11 1719.03 1360.25 1715.67 1376.18L1710.02 1403C1709.05 1407.6 1710.14 1412.38 1712.98 1416.09L1729.62 1437.78C1739.52 1450.68 1735.29 1469.5 1720.76 1476.82L1696.43 1489.08C1692.29 1491.17 1689.26 1495 1688.15 1499.56L1681.7 1526.19C1677.86 1542.04 1660.58 1550.47 1645.81 1543.58L1621.12 1532.06C1616.92 1530.1 1612.08 1530.1 1607.88 1532.06L1583.2 1543.58C1568.42 1550.47 1551.14 1542.04 1547.3 1526.19L1540.85 1499.56C1539.74 1495 1536.71 1491.17 1532.57 1489.08L1508.24 1476.82C1493.71 1469.5 1489.48 1450.68 1499.38 1437.78L1516.02 1416.09C1518.86 1412.38 1519.95 1407.6 1518.98 1403L1513.33 1376.18C1509.97 1360.25 1521.88 1345.11 1538.16 1344.86L1565.36 1344.45C1569.98 1344.38 1574.35 1342.27 1577.3 1338.65L1594.58 1317.48Z" stroke="#448EEC" stroke-opacity="0.3" stroke-width="10"/>
<path opacity="0.3" d="M1950.88 1619.15C1964.15 1602.95 1988.85 1602.95 2002.12 1619.15L2025.53 1647.76C2029.85 1653.04 2036.27 1656.14 2043.06 1656.24L2079.92 1656.8C2100.82 1657.11 2116.18 1676.52 2111.85 1697L2104.19 1733.22C2102.77 1739.92 2104.36 1746.91 2108.53 1752.32L2131.08 1781.62C2143.83 1798.19 2138.36 1822.35 2119.68 1831.74L2086.71 1848.3C2080.63 1851.36 2076.18 1856.95 2074.57 1863.61L2065.83 1899.59C2060.88 1919.94 2038.64 1930.73 2019.67 1921.9L1986.22 1906.33C1980.06 1903.46 1972.94 1903.46 1966.78 1906.33L1933.33 1921.9C1914.36 1930.73 1892.12 1919.94 1887.17 1899.59L1878.43 1863.61C1876.82 1856.95 1872.37 1851.36 1866.29 1848.3L1833.32 1831.74C1814.64 1822.35 1809.17 1798.19 1821.92 1781.62L1844.47 1752.32C1848.64 1746.91 1850.23 1739.92 1848.81 1733.22L1841.15 1697C1836.82 1676.52 1852.18 1657.11 1873.08 1656.8L1909.94 1656.24C1916.73 1656.14 1923.15 1653.04 1927.47 1647.76L1950.88 1619.15Z" stroke="#448EEC" stroke-opacity="0.3" stroke-width="10"/>
<path opacity="0.3" d="M1213.73 1735.99C1221.38 1726.67 1235.62 1726.67 1243.27 1735.99L1255.02 1750.29C1256.72 1752.36 1259.25 1753.58 1261.92 1753.62L1280.41 1753.9C1292.46 1754.08 1301.33 1765.23 1298.83 1777.02L1294.99 1795.13C1294.43 1797.76 1295.05 1800.5 1296.69 1802.63L1308 1817.28C1315.37 1826.81 1312.2 1840.71 1301.43 1846.1L1284.89 1854.39C1282.5 1855.59 1280.75 1857.79 1280.11 1860.4L1275.73 1878.39C1272.87 1890.09 1260.05 1896.29 1249.11 1891.22L1232.33 1883.44C1229.9 1882.31 1227.1 1882.31 1224.67 1883.44L1207.89 1891.22C1196.95 1896.29 1184.13 1890.09 1181.27 1878.39L1176.89 1860.4C1176.25 1857.79 1174.5 1855.59 1172.11 1854.39L1155.57 1846.1C1144.8 1840.71 1141.63 1826.81 1149 1817.28L1160.31 1802.63C1161.95 1800.5 1162.57 1797.76 1162.01 1795.13L1158.17 1777.02C1155.67 1765.23 1164.54 1754.08 1176.59 1753.9L1195.08 1753.62C1197.75 1753.58 1200.28 1752.36 1201.98 1750.29L1213.73 1735.99Z" stroke="#448EEC" stroke-opacity="0.3" stroke-width="10"/>
<path opacity="0.3" d="M1942.73 1160.99C1950.38 1151.67 1964.62 1151.67 1972.27 1160.99L1984.02 1175.29C1985.72 1177.36 1988.25 1178.58 1990.92 1178.62L2009.41 1178.9C2021.46 1179.08 2030.33 1190.23 2027.83 1202.02L2023.99 1220.13C2023.43 1222.76 2024.05 1225.5 2025.69 1227.63L2037 1242.28C2044.37 1251.81 2041.2 1265.71 2030.43 1271.1L2013.89 1279.39C2011.5 1280.59 2009.75 1282.79 2009.11 1285.4L2004.73 1303.39C2001.87 1315.09 1989.05 1321.29 1978.11 1316.22L1961.33 1308.44C1958.9 1307.31 1956.1 1307.31 1953.67 1308.44L1936.89 1316.22C1925.95 1321.29 1913.13 1315.09 1910.27 1303.39L1905.89 1285.4C1905.25 1282.79 1903.5 1280.59 1901.11 1279.39L1884.57 1271.1C1873.8 1265.71 1870.63 1251.81 1878 1242.28L1889.31 1227.63C1890.95 1225.5 1891.57 1222.76 1891.01 1220.13L1887.17 1202.02C1884.67 1190.23 1893.54 1179.08 1905.59 1178.9L1924.08 1178.62C1926.75 1178.58 1929.28 1177.36 1930.98 1175.29L1942.73 1160.99Z" stroke="#448EEC" stroke-opacity="0.3" stroke-width="10"/>
<path opacity="0.3" d="M1450.14 1949.89C1465.34 1931.37 1493.66 1931.37 1508.86 1949.89L1536.32 1983.32C1541.54 1989.69 1549.3 1993.43 1557.53 1993.56L1600.75 1994.21C1624.69 1994.57 1642.33 2016.73 1637.36 2040.17L1628.38 2082.52C1626.66 2090.58 1628.58 2099 1633.62 2105.52L1660.05 2139.77C1674.69 2158.73 1668.4 2186.36 1646.99 2197.08L1608.33 2216.45C1600.97 2220.14 1595.6 2226.88 1593.65 2234.89L1583.4 2276.95C1577.72 2300.23 1552.22 2312.54 1530.49 2302.46L1491.27 2284.26C1483.8 2280.8 1475.2 2280.8 1467.73 2284.26L1428.51 2302.46C1406.78 2312.54 1381.28 2300.23 1375.6 2276.95L1365.35 2234.89C1363.4 2226.88 1358.03 2220.14 1350.67 2216.45L1312.01 2197.08C1290.6 2186.36 1284.31 2158.73 1298.95 2139.77L1325.38 2105.52C1330.42 2099 1332.34 2090.58 1330.62 2082.52L1321.64 2040.17C1316.67 2016.73 1334.31 1994.57 1358.25 1994.21L1401.47 1993.56C1409.7 1993.43 1417.46 1989.69 1422.68 1983.32L1450.14 1949.89Z" stroke="#448EEC" stroke-opacity="0.3" stroke-width="10"/>
<path opacity="0.3" d="M675.108 1518.74C684.629 1507.09 702.371 1507.09 711.892 1518.74L727.527 1537.87C730.107 1541.03 733.927 1542.87 737.969 1542.93L762.581 1543.31C777.604 1543.53 788.607 1557.49 785.504 1572.19L780.389 1596.42C779.542 1600.43 780.492 1604.61 782.978 1607.84L798.034 1627.44C807.177 1639.34 803.261 1656.7 789.854 1663.44L767.84 1674.53C764.218 1676.35 761.565 1679.69 760.599 1683.67L754.761 1707.74C751.216 1722.35 735.258 1730.12 721.625 1723.77L699.289 1713.36C695.616 1711.65 691.384 1711.65 687.711 1713.36L665.375 1723.77C651.742 1730.12 635.784 1722.35 632.239 1707.74L626.401 1683.67C625.435 1679.69 622.782 1676.35 619.16 1674.53L597.146 1663.44C583.739 1656.7 579.823 1639.34 588.966 1627.44L604.022 1607.84C606.508 1604.61 607.458 1600.43 606.611 1596.42L601.496 1572.19C598.393 1557.49 609.396 1543.53 624.419 1543.31L649.031 1542.93C653.073 1542.87 656.893 1541.03 659.473 1537.87L675.108 1518.74Z" stroke="#448EEC" stroke-opacity="0.3" stroke-width="10"/>
<path d="M964.972 -106.855C977.155 -121.714 999.845 -121.714 1012.03 -106.855L1033.2 -81.0361C1037.02 -76.3783 1042.68 -73.6442 1048.69 -73.5537L1082.01 -73.0518C1101.21 -72.7623 1115.33 -54.9715 1111.35 -36.1816L1104.42 -3.48242C1103.17 2.42268 1104.57 8.57938 1108.25 13.3516L1128.64 39.7979C1140.36 55.0019 1135.32 77.1627 1118.17 85.7695L1088.36 100.725C1082.99 103.42 1079.06 108.353 1077.63 114.217L1069.73 146.692C1065.19 165.362 1044.76 175.248 1027.34 167.156L997.093 153.106C991.642 150.574 985.358 150.574 979.907 153.106L949.663 167.156C932.244 175.248 911.815 165.362 907.271 146.692L899.365 114.217C897.938 108.353 894.014 103.42 888.641 100.725L858.831 85.7695C841.676 77.1627 836.643 55.0019 848.363 39.7979L868.75 13.3516C872.429 8.57938 873.831 2.42268 872.58 -3.48242L865.653 -36.1816C861.673 -54.9715 875.791 -72.7623 894.986 -73.0518L928.313 -73.5537C934.317 -73.6442 939.981 -76.3783 943.801 -81.0361L964.972 -106.855Z" stroke="#448EEC" stroke-opacity="0.3" stroke-width="10"/>
<path d="M1913.97 -53.8555C1926.16 -68.7142 1948.84 -68.7143 1961.03 -53.8555L1982.2 -28.0361C1986.02 -23.3783 1991.68 -20.6442 1997.69 -20.5537L2031.01 -20.0518C2050.21 -19.7623 2064.33 -1.97149 2060.35 16.8184L2053.42 49.5176C2052.17 55.4227 2053.57 61.5794 2057.25 66.3516L2077.64 92.7979C2089.36 108.002 2084.32 130.163 2067.17 138.77L2037.36 153.725C2031.99 156.42 2028.06 161.353 2026.63 167.217L2018.73 199.692C2014.19 218.362 1993.76 228.248 1976.34 220.156L1946.09 206.106C1940.64 203.574 1934.36 203.574 1928.91 206.106L1898.66 220.156C1881.24 228.248 1860.81 218.362 1856.27 199.692L1848.37 167.217C1846.94 161.353 1843.01 156.42 1837.64 153.725L1807.83 138.77C1790.68 130.163 1785.64 108.002 1797.36 92.7979L1817.75 66.3516C1821.43 61.5794 1822.83 55.4227 1821.58 49.5176L1814.65 16.8184C1810.67 -1.97148 1824.79 -19.7623 1843.99 -20.0518L1877.31 -20.5537C1883.32 -20.6442 1888.98 -23.3783 1892.8 -28.0361L1913.97 -53.8555Z" stroke="#448EEC" stroke-opacity="0.3" stroke-width="10"/>
<path d="M1996.97 774.145C2009.16 759.286 2031.84 759.286 2044.03 774.145L2065.2 799.964C2069.02 804.622 2074.68 807.356 2080.69 807.446L2114.01 807.948C2133.21 808.238 2147.33 826.029 2143.35 844.818L2136.42 877.518C2135.17 883.423 2136.57 889.579 2140.25 894.352L2160.64 920.798C2172.36 936.002 2167.32 958.163 2150.17 966.77L2120.36 981.725C2114.99 984.42 2111.06 989.353 2109.63 995.217L2101.73 1027.69C2097.19 1046.36 2076.76 1056.25 2059.34 1048.16L2029.09 1034.11C2023.64 1031.57 2017.36 1031.57 2011.91 1034.11L1981.66 1048.16C1964.24 1056.25 1943.81 1046.36 1939.27 1027.69L1931.37 995.217C1929.94 989.353 1926.01 984.42 1920.64 981.725L1890.83 966.77C1873.68 958.163 1868.64 936.002 1880.36 920.798L1900.75 894.352C1904.43 889.579 1905.83 883.423 1904.58 877.518L1897.65 844.818C1893.67 826.029 1907.79 808.238 1926.99 807.948L1960.31 807.446C1966.32 807.356 1971.98 804.622 1975.8 799.964L1996.97 774.145Z" stroke="#448EEC" stroke-opacity="0.3" stroke-width="10"/>
<path d="M1167.81 423.74C1179.56 409.42 1201.44 409.42 1213.19 423.74L1233.47 448.445C1237.08 452.853 1242.45 455.442 1248.14 455.527L1280.05 456.009C1298.56 456.288 1312.19 473.432 1308.35 491.548L1301.71 522.836C1300.53 528.423 1301.85 534.249 1305.34 538.765L1324.86 564.069C1336.17 578.726 1331.31 600.088 1314.76 608.383L1286.22 622.693C1281.13 625.245 1277.41 629.913 1276.06 635.461L1268.49 666.535C1264.11 684.533 1244.4 694.057 1227.6 686.26L1198.64 672.816C1193.48 670.42 1187.52 670.42 1182.36 672.816L1153.4 686.26C1136.6 694.057 1116.89 684.533 1112.51 666.535L1104.94 635.461C1103.59 629.913 1099.87 625.245 1094.78 622.693L1066.24 608.383C1049.69 600.088 1044.83 578.726 1056.14 564.069L1075.66 538.765C1079.15 534.249 1080.47 528.423 1079.29 522.836L1072.65 491.549C1068.81 473.433 1082.44 456.288 1100.95 456.009L1132.86 455.527C1138.55 455.442 1143.92 452.853 1147.53 448.445L1167.81 423.74Z" stroke="#448EEC" stroke-opacity="0.3" stroke-width="10"/>
</g>
<defs>
<filter id="filter0_i_2013_2146" x="133" y="-60" width="183" height="180" filterUnits="userSpaceOnUse" color-interpolation-filters="sRGB">
<feFlood flood-opacity="0" result="BackgroundImageFix"/>
<feBlend mode="normal" in="SourceGraphic" in2="BackgroundImageFix" result="shape"/>
<feColorMatrix in="SourceAlpha" type="matrix" values="0 0 0 0 0 0 0 0 0 0 0 0 0 0 0 0 0 0 127 0" result="hardAlpha"/>
<feOffset dx="8" dy="8"/>
<feGaussianBlur stdDeviation="12"/>
<feComposite in2="hardAlpha" operator="arithmetic" k2="-1" k3="1"/>
<feColorMatrix type="matrix" values="0 0 0 0 0.123402 0 0 0 0 0.414437 0 0 0 0 0.798603 0 0 0 0.6 0"/>
<feBlend mode="normal" in2="shape" result="effect1_innerShadow_2013_2146"/>
</filter>
<filter id="filter1_i_2013_2146" x="-100" y="273" width="291" height="286" filterUnits="userSpaceOnUse" color-interpolation-filters="sRGB">
<feFlood flood-opacity="0" result="BackgroundImageFix"/>
<feBlend mode="normal" in="SourceGraphic" in2="BackgroundImageFix" result="shape"/>
<feColorMatrix in="SourceAlpha" type="matrix" values="0 0 0 0 0 0 0 0 0 0 0 0 0 0 0 0 0 0 127 0" result="hardAlpha"/>
<feOffset dx="8" dy="8"/>
<feGaussianBlur stdDeviation="12"/>
<feComposite in2="hardAlpha" operator="arithmetic" k2="-1" k3="1"/>
<feColorMatrix type="matrix" values="0 0 0 0 0.123402 0 0 0 0 0.414437 0 0 0 0 0.798603 0 0 0 0.6 0"/>
<feBlend mode="normal" in2="shape" result="effect1_innerShadow_2013_2146"/>
</filter>
<filter id="filter2_i_2013_2146" x="489" y="172" width="213" height="210" filterUnits="userSpaceOnUse" color-interpolation-filters="sRGB">
<feFlood flood-opacity="0" result="BackgroundImageFix"/>
<feBlend mode="normal" in="SourceGraphic" in2="BackgroundImageFix" result="shape"/>
<feColorMatrix in="SourceAlpha" type="matrix" values="0 0 0 0 0 0 0 0 0 0 0 0 0 0 0 0 0 0 127 0" result="hardAlpha"/>
<feOffset dx="8" dy="8"/>
<feGaussianBlur stdDeviation="12"/>
<feComposite in2="hardAlpha" operator="arithmetic" k2="-1" k3="1"/>
<feColorMatrix type="matrix" values="0 0 0 0 0.123402 0 0 0 0 0.414437 0 0 0 0 0.798603 0 0 0 0.6 0"/>
<feBlend mode="normal" in2="shape" result="effect1_innerShadow_2013_2146"/>
</filter>
<filter id="filter3_i_2013_2146" x="837" y="820" width="143" height="142" filterUnits="userSpaceOnUse" color-interpolation-filters="sRGB">
<feFlood flood-opacity="0" result="BackgroundImageFix"/>
<feBlend mode="normal" in="SourceGraphic" in2="BackgroundImageFix" result="shape"/>
<feColorMatrix in="SourceAlpha" type="matrix" values="0 0 0 0 0 0 0 0 0 0 0 0 0 0 0 0 0 0 127 0" result="hardAlpha"/>
<feOffset dx="8" dy="8"/>
<feGaussianBlur stdDeviation="12"/>
<feComposite in2="hardAlpha" operator="arithmetic" k2="-1" k3="1"/>
<feColorMatrix type="matrix" values="0 0 0 0 0.123402 0 0 0 0 0.414437 0 0 0 0 0.798603 0 0 0 0.6 0"/>
<feBlend mode="normal" in2="shape" result="effect1_innerShadow_2013_2146"/>
</filter>
<filter id="filter4_i_2013_2146" x="715" y="1061" width="143" height="142" filterUnits="userSpaceOnUse" color-interpolation-filters="sRGB">
<feFlood flood-opacity="0" result="BackgroundImageFix"/>
<feBlend mode="normal" in="SourceGraphic" in2="BackgroundImageFix" result="shape"/>
<feColorMatrix in="SourceAlpha" type="matrix" values="0 0 0 0 0 0 0 0 0 0 0 0 0 0 0 0 0 0 127 0" result="hardAlpha"/>
<feOffset dx="8" dy="8"/>
<feGaussianBlur stdDeviation="12"/>
<feComposite in2="hardAlpha" operator="arithmetic" k2="-1" k3="1"/>
<feColorMatrix type="matrix" values="0 0 0 0 0.123402 0 0 0 0 0.414437 0 0 0 0 0.798603 0 0 0 0.6 0"/>
<feBlend mode="normal" in2="shape" result="effect1_innerShadow_2013_2146"/>
</filter>
<filter id="filter5_i_2013_2146" x="-26" y="945" width="143" height="142" filterUnits="userSpaceOnUse" color-interpolation-filters="sRGB">
<feFlood flood-opacity="0" result="BackgroundImageFix"/>
<feBlend mode="normal" in="SourceGraphic" in2="BackgroundImageFix" result="shape"/>
<feColorMatrix in="SourceAlpha" type="matrix" values="0 0 0 0 0 0 0 0 0 0 0 0 0 0 0 0 0 0 127 0" result="hardAlpha"/>
<feOffset dx="8" dy="8"/>
<feGaussianBlur stdDeviation="12"/>
<feComposite in2="hardAlpha" operator="arithmetic" k2="-1" k3="1"/>
<feColorMatrix type="matrix" values="0 0 0 0 0.123402 0 0 0 0 0.414437 0 0 0 0 0.798603 0 0 0 0.6 0"/>
<feBlend mode="normal" in2="shape" result="effect1_innerShadow_2013_2146"/>
</filter>
<filter id="filter6_i_2013_2146" x="1480" y="172" width="143" height="142" filterUnits="userSpaceOnUse" color-interpolation-filters="sRGB">
<feFlood flood-opacity="0" result="BackgroundImageFix"/>
<feBlend mode="normal" in="SourceGraphic" in2="BackgroundImageFix" result="shape"/>
<feColorMatrix in="SourceAlpha" type="matrix" values="0 0 0 0 0 0 0 0 0 0 0 0 0 0 0 0 0 0 127 0" result="hardAlpha"/>
<feOffset dx="8" dy="8"/>
<feGaussianBlur stdDeviation="12"/>
<feComposite in2="hardAlpha" operator="arithmetic" k2="-1" k3="1"/>
<feColorMatrix type="matrix" values="0 0 0 0 0.123402 0 0 0 0 0.414437 0 0 0 0 0.798603 0 0 0 0.6 0"/>
<feBlend mode="normal" in2="shape" result="effect1_innerShadow_2013_2146"/>
</filter>
<filter id="filter7_i_2013_2146" x="1480" y="840" width="143" height="142" filterUnits="userSpaceOnUse" color-interpolation-filters="sRGB">
<feFlood flood-opacity="0" result="BackgroundImageFix"/>
<feBlend mode="normal" in="SourceGraphic" in2="BackgroundImageFix" result="shape"/>
<feColorMatrix in="SourceAlpha" type="matrix" values="0 0 0 0 0 0 0 0 0 0 0 0 0 0 0 0 0 0 127 0" result="hardAlpha"/>
<feOffset dx="8" dy="8"/>
<feGaussianBlur stdDeviation="12"/>
<feComposite in2="hardAlpha" operator="arithmetic" k2="-1" k3="1"/>
<feColorMatrix type="matrix" values="0 0 0 0 0.123402 0 0 0 0 0.414437 0 0 0 0 0.798603 0 0 0 0.6 0"/>
<feBlend mode="normal" in2="shape" result="effect1_innerShadow_2013_2146"/>
</filter>
<filter id="filter8_i_2013_2146" x="1682" y="374" width="205" height="202" filterUnits="userSpaceOnUse" color-interpolation-filters="sRGB">
<feFlood flood-opacity="0" result="BackgroundImageFix"/>
<feBlend mode="normal" in="SourceGraphic" in2="BackgroundImageFix" result="shape"/>
<feColorMatrix in="SourceAlpha" type="matrix" values="0 0 0 0 0 0 0 0 0 0 0 0 0 0 0 0 0 0 127 0" result="hardAlpha"/>
<feOffset dx="8" dy="8"/>
<feGaussianBlur stdDeviation="12"/>
<feComposite in2="hardAlpha" operator="arithmetic" k2="-1" k3="1"/>
<feColorMatrix type="matrix" values="0 0 0 0 0.123402 0 0 0 0 0.414437 0 0 0 0 0.798603 0 0 0 0.6 0"/>
<feBlend mode="normal" in2="shape" result="effect1_innerShadow_2013_2146"/>
</filter>
<filter id="filter9_i_2013_2146" x="292" y="780" width="321" height="316" filterUnits="userSpaceOnUse" color-interpolation-filters="sRGB">
<feFlood flood-opacity="0" result="BackgroundImageFix"/>
<feBlend mode="normal" in="SourceGraphic" in2="BackgroundImageFix" result="shape"/>
<feColorMatrix in="SourceAlpha" type="matrix" values="0 0 0 0 0 0 0 0 0 0 0 0 0 0 0 0 0 0 127 0" result="hardAlpha"/>
<feOffset dx="8" dy="8"/>
<feGaussianBlur stdDeviation="12"/>
<feComposite in2="hardAlpha" operator="arithmetic" k2="-1" k3="1"/>
<feColorMatrix type="matrix" values="0 0 0 0 0.123402 0 0 0 0 0.414437 0 0 0 0 0.798603 0 0 0 0.6 0"/>
<feBlend mode="normal" in2="shape" result="effect1_innerShadow_2013_2146"/>
</filter>
<filter id="filter10_i_2013_2146" x="133" y="1354" width="157" height="154" filterUnits="userSpaceOnUse" color-interpolation-filters="sRGB">
<feFlood flood-opacity="0" result="BackgroundImageFix"/>
<feBlend mode="normal" in="SourceGraphic" in2="BackgroundImageFix" result="shape"/>
<feColorMatrix in="SourceAlpha" type="matrix" values="0 0 0 0 0 0 0 0 0 0 0 0 0 0 0 0 0 0 127 0" result="hardAlpha"/>
<feOffset dx="8" dy="8"/>
<feGaussianBlur stdDeviation="12"/>
<feComposite in2="hardAlpha" operator="arithmetic" k2="-1" k3="1"/>
<feColorMatrix type="matrix" values="0 0 0 0 0.123402 0 0 0 0 0.414437 0 0 0 0 0.798603 0 0 0 0.6 0"/>
<feBlend mode="normal" in2="shape" result="effect1_innerShadow_2013_2146"/>
</filter>
<filter id="filter11_i_2013_2146" x="-91" y="1661" width="297" height="292" filterUnits="userSpaceOnUse" color-interpolation-filters="sRGB">
<feFlood flood-opacity="0" result="BackgroundImageFix"/>
<feBlend mode="normal" in="SourceGraphic" in2="BackgroundImageFix" result="shape"/>
<feColorMatrix in="SourceAlpha" type="matrix" values="0 0 0 0 0 0 0 0 0 0 0 0 0 0 0 0 0 0 127 0" result="hardAlpha"/>
<feOffset dx="8" dy="8"/>
<feGaussianBlur stdDeviation="12"/>
<feComposite in2="hardAlpha" operator="arithmetic" k2="-1" k3="1"/>
<feColorMatrix type="matrix" values="0 0 0 0 0.123402 0 0 0 0 0.414437 0 0 0 0 0.798603 0 0 0 0.6 0"/>
<feBlend mode="normal" in2="shape" result="effect1_innerShadow_2013_2146"/>
</filter>
<filter id="filter12_i_2013_2146" x="1000" y="1219" width="199" height="196" filterUnits="userSpaceOnUse" color-interpolation-filters="sRGB">
<feFlood flood-opacity="0" result="BackgroundImageFix"/>
<feBlend mode="normal" in="SourceGraphic" in2="BackgroundImageFix" result="shape"/>
<feColorMatrix in="SourceAlpha" type="matrix" values="0 0 0 0 0 0 0 0 0 0 0 0 0 0 0 0 0 0 127 0" result="hardAlpha"/>
<feOffset dx="8" dy="8"/>
<feGaussianBlur stdDeviation="12"/>
<feComposite in2="hardAlpha" operator="arithmetic" k2="-1" k3="1"/>
<feColorMatrix type="matrix" values="0 0 0 0 0.123402 0 0 0 0 0.414437 0 0 0 0 0.798603 0 0 0 0.6 0"/>
<feBlend mode="normal" in2="shape" result="effect1_innerShadow_2013_2146"/>
</filter>
<filter id="filter13_i_2013_2146" x="394" y="1920" width="365" height="360" filterUnits="userSpaceOnUse" color-interpolation-filters="sRGB">
<feFlood flood-opacity="0" result="BackgroundImageFix"/>
<feBlend mode="normal" in="SourceGraphic" in2="BackgroundImageFix" result="shape"/>
<feColorMatrix in="SourceAlpha" type="matrix" values="0 0 0 0 0 0 0 0 0 0 0 0 0 0 0 0 0 0 127 0" result="hardAlpha"/>
<feOffset dx="8" dy="8"/>
<feGaussianBlur stdDeviation="12"/>
<feComposite in2="hardAlpha" operator="arithmetic" k2="-1" k3="1"/>
<feColorMatrix type="matrix" values="0 0 0 0 0.123402 0 0 0 0 0.414437 0 0 0 0 0.798603 0 0 0 0.6 0"/>
<feBlend mode="normal" in2="shape" result="effect1_innerShadow_2013_2146"/>
</filter>
<filter id="filter14_i_2013_2146" x="1499" y="1313" width="239" height="236" filterUnits="userSpaceOnUse" color-interpolation-filters="sRGB">
<feFlood flood-opacity="0" result="BackgroundImageFix"/>
<feBlend mode="normal" in="SourceGraphic" in2="BackgroundImageFix" result="shape"/>
<feColorMatrix in="SourceAlpha" type="matrix" values="0 0 0 0 0 0 0 0 0 0 0 0 0 0 0 0 0 0 127 0" result="hardAlpha"/>
<feOffset dx="8" dy="8"/>
<feGaussianBlur stdDeviation="12"/>
<feComposite in2="hardAlpha" operator="arithmetic" k2="-1" k3="1"/>
<feColorMatrix type="matrix" values="0 0 0 0 0.123402 0 0 0 0 0.414437 0 0 0 0 0.798603 0 0 0 0.6 0"/>
<feBlend mode="normal" in2="shape" result="effect1_innerShadow_2013_2146"/>
</filter>
<filter id="filter15_i_2013_2146" x="1820" y="1612" width="321" height="316" filterUnits="userSpaceOnUse" color-interpolation-filters="sRGB">
<feFlood flood-opacity="0" result="BackgroundImageFix"/>
<feBlend mode="normal" in="SourceGraphic" in2="BackgroundImageFix" result="shape"/>
<feColorMatrix in="SourceAlpha" type="matrix" values="0 0 0 0 0 0 0 0 0 0 0 0 0 0 0 0 0 0 127 0" result="hardAlpha"/>
<feOffset dx="8" dy="8"/>
<feGaussianBlur stdDeviation="12"/>
<feComposite in2="hardAlpha" operator="arithmetic" k2="-1" k3="1"/>
<feColorMatrix type="matrix" values="0 0 0 0 0.123402 0 0 0 0 0.414437 0 0 0 0 0.798603 0 0 0 0.6 0"/>
<feBlend mode="normal" in2="shape" result="effect1_innerShadow_2013_2146"/>
</filter>
<filter id="filter16_i_2013_2146" x="1150" y="1734" width="165" height="162" filterUnits="userSpaceOnUse" color-interpolation-filters="sRGB">
<feFlood flood-opacity="0" result="BackgroundImageFix"/>
<feBlend mode="normal" in="SourceGraphic" in2="BackgroundImageFix" result="shape"/>
<feColorMatrix in="SourceAlpha" type="matrix" values="0 0 0 0 0 0 0 0 0 0 0 0 0 0 0 0 0 0 127 0" result="hardAlpha"/>
<feOffset dx="8" dy="8"/>
<feGaussianBlur stdDeviation="12"/>
<feComposite in2="hardAlpha" operator="arithmetic" k2="-1" k3="1"/>
<feColorMatrix type="matrix" values="0 0 0 0 0.123402 0 0 0 0 0.414437 0 0 0 0 0.798603 0 0 0 0.6 0"/>
<feBlend mode="normal" in2="shape" result="effect1_innerShadow_2013_2146"/>
</filter>
<filter id="filter17_i_2013_2146" x="1879" y="1159" width="165" height="162" filterUnits="userSpaceOnUse" color-interpolation-filters="sRGB">
<feFlood flood-opacity="0" result="BackgroundImageFix"/>
<feBlend mode="normal" in="SourceGraphic" in2="BackgroundImageFix" result="shape"/>
<feColorMatrix in="SourceAlpha" type="matrix" values="0 0 0 0 0 0 0 0 0 0 0 0 0 0 0 0 0 0 127 0" result="hardAlpha"/>
<feOffset dx="8" dy="8"/>
<feGaussianBlur stdDeviation="12"/>
<feComposite in2="hardAlpha" operator="arithmetic" k2="-1" k3="1"/>
<feColorMatrix type="matrix" values="0 0 0 0 0.123402 0 0 0 0 0.414437 0 0 0 0 0.798603 0 0 0 0.6 0"/>
<feBlend mode="normal" in2="shape" result="effect1_innerShadow_2013_2146"/>
</filter>
<filter id="filter18_i_2013_2146" x="1296" y="1941" width="375" height="368" filterUnits="userSpaceOnUse" color-interpolation-filters="sRGB">
<feFlood flood-opacity="0" result="BackgroundImageFix"/>
<feBlend mode="normal" in="SourceGraphic" in2="BackgroundImageFix" result="shape"/>
<feColorMatrix in="SourceAlpha" type="matrix" values="0 0 0 0 0 0 0 0 0 0 0 0 0 0 0 0 0 0 127 0" result="hardAlpha"/>
<feOffset dx="8" dy="8"/>
<feGaussianBlur stdDeviation="12"/>
<feComposite in2="hardAlpha" operator="arithmetic" k2="-1" k3="1"/>
<feColorMatrix type="matrix" values="0 0 0 0 0.123402 0 0 0 0 0.414437 0 0 0 0 0.798603 0 0 0 0.6 0"/>
<feBlend mode="normal" in2="shape" result="effect1_innerShadow_2013_2146"/>
</filter>
<filter id="filter19_i_2013_2146" x="589" y="1515" width="217" height="214" filterUnits="userSpaceOnUse" color-interpolation-filters="sRGB">
<feFlood flood-opacity="0" result="BackgroundImageFix"/>
<feBlend mode="normal" in="SourceGraphic" in2="BackgroundImageFix" result="shape"/>
<feColorMatrix in="SourceAlpha" type="matrix" values="0 0 0 0 0 0 0 0 0 0 0 0 0 0 0 0 0 0 127 0" result="hardAlpha"/>
<feOffset dx="8" dy="8"/>
<feGaussianBlur stdDeviation="12"/>
<feComposite in2="hardAlpha" operator="arithmetic" k2="-1" k3="1"/>
<feColorMatrix type="matrix" values="0 0 0 0 0.123402 0 0 0 0 0.414437 0 0 0 0 0.798603 0 0 0 0.6 0"/>
<feBlend mode="normal" in2="shape" result="effect1_innerShadow_2013_2146"/>
</filter>
<filter id="filter20_i_2013_2146" x="847" y="-113" width="291" height="286" filterUnits="userSpaceOnUse" color-interpolation-filters="sRGB">
<feFlood flood-opacity="0" result="BackgroundImageFix"/>
<feBlend mode="normal" in="SourceGraphic" in2="BackgroundImageFix" result="shape"/>
<feColorMatrix in="SourceAlpha" type="matrix" values="0 0 0 0 0 0 0 0 0 0 0 0 0 0 0 0 0 0 127 0" result="hardAlpha"/>
<feOffset dx="8" dy="8"/>
<feGaussianBlur stdDeviation="12"/>
<feComposite in2="hardAlpha" operator="arithmetic" k2="-1" k3="1"/>
<feColorMatrix type="matrix" values="0 0 0 0 0.123402 0 0 0 0 0.414437 0 0 0 0 0.798603 0 0 0 0.6 0"/>
<feBlend mode="normal" in2="shape" result="effect1_innerShadow_2013_2146"/>
</filter>
<filter id="filter21_i_2013_2146" x="1796" y="-60" width="291" height="286" filterUnits="userSpaceOnUse" color-interpolation-filters="sRGB">
<feFlood flood-opacity="0" result="BackgroundImageFix"/>
<feBlend mode="normal" in="SourceGraphic" in2="BackgroundImageFix" result="shape"/>
<feColorMatrix in="SourceAlpha" type="matrix" values="0 0 0 0 0 0 0 0 0 0 0 0 0 0 0 0 0 0 127 0" result="hardAlpha"/>
<feOffset dx="8" dy="8"/>
<feGaussianBlur stdDeviation="12"/>
<feComposite in2="hardAlpha" operator="arithmetic" k2="-1" k3="1"/>
<feColorMatrix type="matrix" values="0 0 0 0 0.123402 0 0 0 0 0.414437 0 0 0 0 0.798603 0 0 0 0.6 0"/>
<feBlend mode="normal" in2="shape" result="effect1_innerShadow_2013_2146"/>
</filter>
<filter id="filter22_i_2013_2146" x="1879" y="768" width="291" height="286" filterUnits="userSpaceOnUse" color-interpolation-filters="sRGB">
<feFlood flood-opacity="0" result="BackgroundImageFix"/>
<feBlend mode="normal" in="SourceGraphic" in2="BackgroundImageFix" result="shape"/>
<feColorMatrix in="SourceAlpha" type="matrix" values="0 0 0 0 0 0 0 0 0 0 0 0 0 0 0 0 0 0 127 0" result="hardAlpha"/>
<feOffset dx="8" dy="8"/>
<feGaussianBlur stdDeviation="12"/>
<feComposite in2="hardAlpha" operator="arithmetic" k2="-1" k3="1"/>
<feColorMatrix type="matrix" values="0 0 0 0 0.123402 0 0 0 0 0.414437 0 0 0 0 0.798603 0 0 0 0.6 0"/>
<feBlend mode="normal" in2="shape" result="effect1_innerShadow_2013_2146"/>
</filter>
<filter id="filter23_i_2013_2146" x="1055" y="418" width="279" height="274" filterUnits="userSpaceOnUse" color-interpolation-filters="sRGB">
<feFlood flood-opacity="0" result="BackgroundImageFix"/>
<feBlend mode="normal" in="SourceGraphic" in2="BackgroundImageFix" result="shape"/>
<feColorMatrix in="SourceAlpha" type="matrix" values="0 0 0 0 0 0 0 0 0 0 0 0 0 0 0 0 0 0 127 0" result="hardAlpha"/>
<feOffset dx="8" dy="8"/>
<feGaussianBlur stdDeviation="12"/>
<feComposite in2="hardAlpha" operator="arithmetic" k2="-1" k3="1"/>
<feColorMatrix type="matrix" values="0 0 0 0 0.123402 0 0 0 0 0.414437 0 0 0 0 0.798603 0 0 0 0.6 0"/>
<feBlend mode="normal" in2="shape" result="effect1_innerShadow_2013_2146"/>
</filter>
<linearGradient id="paint0_linear_2013_2146" x1="988.5" y1="0" x2="988.5" y2="2121" gradientUnits="userSpaceOnUse">
<stop stop-color="#60AAFF"/>
<stop offset="1" stop-color="#0B56C6"/>
</linearGradient>
<clipPath id="clip0_2013_2146">
<rect width="1977" height="2121" fill="white"/>
</clipPath>
</defs>
</svg>
