<svg width="1977" height="808" viewBox="0 0 1977 808" fill="none" xmlns="http://www.w3.org/2000/svg">
<g clip-path="url(#clip0_2006_1188)">
<rect width="1977" height="808" fill="white"/>
<rect x="0.5" y="0.5" width="1976" height="807" fill="url(#paint0_radial_2006_1188)" stroke="black"/>
<g opacity="0.5">
<g opacity="0.6" style="mix-blend-mode:lighten">
<path d="M91.4694 129.082C94.8517 124.973 101.148 124.973 104.531 129.082L111.563 137.627C113.141 139.544 115.482 140.671 117.966 140.709L129.036 140.875C134.361 140.955 138.286 145.874 137.18 151.079L134.879 161.9C134.362 164.328 134.941 166.861 136.46 168.824L143.232 177.576C146.489 181.786 145.088 187.92 140.326 190.301L130.424 195.25C128.203 196.361 126.582 198.391 125.993 200.803L123.367 211.55C122.104 216.72 116.431 219.449 111.599 217.213L101.554 212.563C99.2996 211.52 96.7004 211.52 94.4463 212.563L84.4005 217.213C79.5686 219.449 73.8956 216.72 72.6327 211.55L70.0072 200.803C69.4181 198.391 67.7975 196.361 65.5758 195.25L55.6745 190.301C50.912 187.92 49.5108 181.786 52.7681 177.576L59.5398 168.824C61.0593 166.861 61.6377 164.328 61.1214 161.9L58.8204 151.079C57.7136 145.874 61.6394 140.955 66.964 140.875L78.0338 140.709C80.5177 140.671 82.8594 139.544 84.4373 137.627L91.4694 129.082Z" fill="white"/>
</g>
<g opacity="0.6" style="mix-blend-mode:lighten">
<path d="M269.469 129.082C272.852 124.973 279.148 124.973 282.531 129.082L289.563 137.627C291.141 139.544 293.482 140.671 295.966 140.709L307.036 140.875C312.361 140.955 316.286 145.874 315.18 151.079L312.879 161.9C312.362 164.328 312.941 166.861 314.46 168.824L321.232 177.576C324.489 181.786 323.088 187.92 318.326 190.301L308.424 195.25C306.203 196.361 304.582 198.391 303.993 200.803L301.367 211.55C300.104 216.72 294.431 219.449 289.599 217.213L279.554 212.563C277.3 211.52 274.7 211.52 272.446 212.563L262.401 217.213C257.569 219.449 251.896 216.72 250.633 211.55L248.007 200.803C247.418 198.391 245.797 196.361 243.576 195.25L233.674 190.301C228.912 187.92 227.511 181.786 230.768 177.576L237.54 168.824C239.059 166.861 239.638 164.328 239.121 161.9L236.82 151.079C235.714 145.874 239.639 140.955 244.964 140.875L256.034 140.709C258.518 140.671 260.859 139.544 262.437 137.627L269.469 129.082Z" fill="white"/>
</g>
<g opacity="0.6" style="mix-blend-mode:lighten">
<path d="M447.469 129.082C450.852 124.973 457.148 124.973 460.531 129.082L467.563 137.627C469.141 139.544 471.482 140.671 473.966 140.709L485.036 140.875C490.361 140.955 494.286 145.874 493.18 151.079L490.879 161.9C490.362 164.328 490.941 166.861 492.46 168.824L499.232 177.576C502.489 181.786 501.088 187.92 496.326 190.301L486.424 195.25C484.203 196.361 482.582 198.391 481.993 200.803L479.367 211.55C478.104 216.72 472.431 219.449 467.599 217.213L457.554 212.563C455.3 211.52 452.7 211.52 450.446 212.563L440.401 217.213C435.569 219.449 429.896 216.72 428.633 211.55L426.007 200.803C425.418 198.391 423.797 196.361 421.576 195.25L411.674 190.301C406.912 187.92 405.511 181.786 408.768 177.576L415.54 168.824C417.059 166.861 417.638 164.328 417.121 161.9L414.82 151.079C413.714 145.874 417.639 140.955 422.964 140.875L434.034 140.709C436.518 140.671 438.859 139.544 440.437 137.627L447.469 129.082Z" fill="white"/>
</g>
<g opacity="0.6" style="mix-blend-mode:lighten">
<path d="M625.469 129.082C628.852 124.973 635.148 124.973 638.531 129.082L645.563 137.627C647.141 139.544 649.482 140.671 651.966 140.709L663.036 140.875C668.361 140.955 672.286 145.874 671.18 151.079L668.879 161.9C668.362 164.328 668.941 166.861 670.46 168.824L677.232 177.576C680.489 181.786 679.088 187.92 674.326 190.301L664.424 195.25C662.203 196.361 660.582 198.391 659.993 200.803L657.367 211.55C656.104 216.72 650.431 219.449 645.599 217.213L635.554 212.563C633.3 211.52 630.7 211.52 628.446 212.563L618.401 217.213C613.569 219.449 607.896 216.72 606.633 211.55L604.007 200.803C603.418 198.391 601.797 196.361 599.576 195.25L589.674 190.301C584.912 187.92 583.511 181.786 586.768 177.576L593.54 168.824C595.059 166.861 595.638 164.328 595.121 161.9L592.82 151.079C591.714 145.874 595.639 140.955 600.964 140.875L612.034 140.709C614.518 140.671 616.859 139.544 618.437 137.627L625.469 129.082Z" fill="white"/>
</g>
<g opacity="0.6" style="mix-blend-mode:lighten">
<path d="M803.469 129.082C806.852 124.973 813.148 124.973 816.531 129.082L823.563 137.627C825.141 139.544 827.482 140.671 829.966 140.709L841.036 140.875C846.361 140.955 850.286 145.874 849.18 151.079L846.879 161.9C846.362 164.328 846.941 166.861 848.46 168.824L855.232 177.576C858.489 181.786 857.088 187.92 852.326 190.301L842.424 195.25C840.203 196.361 838.582 198.391 837.993 200.803L835.367 211.55C834.104 216.72 828.431 219.449 823.599 217.213L813.554 212.563C811.3 211.52 808.7 211.52 806.446 212.563L796.401 217.213C791.569 219.449 785.896 216.72 784.633 211.55L782.007 200.803C781.418 198.391 779.797 196.361 777.576 195.25L767.674 190.301C762.912 187.92 761.511 181.786 764.768 177.576L771.54 168.824C773.059 166.861 773.638 164.328 773.121 161.9L770.82 151.079C769.714 145.874 773.639 140.955 778.964 140.875L790.034 140.709C792.518 140.671 794.859 139.544 796.437 137.627L803.469 129.082Z" fill="white"/>
</g>
<g opacity="0.6" style="mix-blend-mode:lighten">
<path d="M981.469 129.082C984.852 124.973 991.148 124.973 994.531 129.082L1001.56 137.627C1003.14 139.544 1005.48 140.671 1007.97 140.709L1019.04 140.875C1024.36 140.955 1028.29 145.874 1027.18 151.079L1024.88 161.9C1024.36 164.328 1024.94 166.861 1026.46 168.824L1033.23 177.576C1036.49 181.786 1035.09 187.92 1030.33 190.301L1020.42 195.25C1018.2 196.361 1016.58 198.391 1015.99 200.803L1013.37 211.55C1012.1 216.72 1006.43 219.449 1001.6 217.213L991.554 212.563C989.3 211.52 986.7 211.52 984.446 212.563L974.401 217.213C969.569 219.449 963.896 216.72 962.633 211.55L960.007 200.803C959.418 198.391 957.797 196.361 955.576 195.25L945.674 190.301C940.912 187.92 939.511 181.786 942.768 177.576L949.54 168.824C951.059 166.861 951.638 164.328 951.121 161.9L948.82 151.079C947.714 145.874 951.639 140.955 956.964 140.875L968.034 140.709C970.518 140.671 972.859 139.544 974.437 137.627L981.469 129.082Z" fill="white"/>
</g>
<g opacity="0.6" style="mix-blend-mode:lighten">
<path d="M1159.47 129.082C1162.85 124.973 1169.15 124.973 1172.53 129.082L1179.56 137.627C1181.14 139.544 1183.48 140.671 1185.97 140.709L1197.04 140.875C1202.36 140.955 1206.29 145.874 1205.18 151.079L1202.88 161.9C1202.36 164.328 1202.94 166.861 1204.46 168.824L1211.23 177.576C1214.49 181.786 1213.09 187.92 1208.33 190.301L1198.42 195.25C1196.2 196.361 1194.58 198.391 1193.99 200.803L1191.37 211.55C1190.1 216.72 1184.43 219.449 1179.6 217.213L1169.55 212.563C1167.3 211.52 1164.7 211.52 1162.45 212.563L1152.4 217.213C1147.57 219.449 1141.9 216.72 1140.63 211.55L1138.01 200.803C1137.42 198.391 1135.8 196.361 1133.58 195.25L1123.67 190.301C1118.91 187.92 1117.51 181.786 1120.77 177.576L1127.54 168.824C1129.06 166.861 1129.64 164.328 1129.12 161.9L1126.82 151.079C1125.71 145.874 1129.64 140.955 1134.96 140.875L1146.03 140.709C1148.52 140.671 1150.86 139.544 1152.44 137.627L1159.47 129.082Z" fill="white"/>
</g>
<g opacity="0.6" style="mix-blend-mode:lighten">
<path d="M1337.47 129.082C1340.85 124.973 1347.15 124.973 1350.53 129.082L1357.56 137.627C1359.14 139.544 1361.48 140.671 1363.97 140.709L1375.04 140.875C1380.36 140.955 1384.29 145.874 1383.18 151.079L1380.88 161.9C1380.36 164.328 1380.94 166.861 1382.46 168.824L1389.23 177.576C1392.49 181.786 1391.09 187.92 1386.33 190.301L1376.42 195.25C1374.2 196.361 1372.58 198.391 1371.99 200.803L1369.37 211.55C1368.1 216.72 1362.43 219.449 1357.6 217.213L1347.55 212.563C1345.3 211.52 1342.7 211.52 1340.45 212.563L1330.4 217.213C1325.57 219.449 1319.9 216.72 1318.63 211.55L1316.01 200.803C1315.42 198.391 1313.8 196.361 1311.58 195.25L1301.67 190.301C1296.91 187.92 1295.51 181.786 1298.77 177.576L1305.54 168.824C1307.06 166.861 1307.64 164.328 1307.12 161.9L1304.82 151.079C1303.71 145.874 1307.64 140.955 1312.96 140.875L1324.03 140.709C1326.52 140.671 1328.86 139.544 1330.44 137.627L1337.47 129.082Z" fill="white"/>
</g>
<g opacity="0.6" style="mix-blend-mode:lighten">
<path d="M1515.47 129.082C1518.85 124.973 1525.15 124.973 1528.53 129.082L1535.56 137.627C1537.14 139.544 1539.48 140.671 1541.97 140.709L1553.04 140.875C1558.36 140.955 1562.29 145.874 1561.18 151.079L1558.88 161.9C1558.36 164.328 1558.94 166.861 1560.46 168.824L1567.23 177.576C1570.49 181.786 1569.09 187.92 1564.33 190.301L1554.42 195.25C1552.2 196.361 1550.58 198.391 1549.99 200.803L1547.37 211.55C1546.1 216.72 1540.43 219.449 1535.6 217.213L1525.55 212.563C1523.3 211.52 1520.7 211.52 1518.45 212.563L1508.4 217.213C1503.57 219.449 1497.9 216.72 1496.63 211.55L1494.01 200.803C1493.42 198.391 1491.8 196.361 1489.58 195.25L1479.67 190.301C1474.91 187.92 1473.51 181.786 1476.77 177.576L1483.54 168.824C1485.06 166.861 1485.64 164.328 1485.12 161.9L1482.82 151.079C1481.71 145.874 1485.64 140.955 1490.96 140.875L1502.03 140.709C1504.52 140.671 1506.86 139.544 1508.44 137.627L1515.47 129.082Z" fill="white"/>
</g>
<g opacity="0.6" style="mix-blend-mode:lighten">
<path d="M1693.47 129.082C1696.85 124.973 1703.15 124.973 1706.53 129.082L1713.56 137.627C1715.14 139.544 1717.48 140.671 1719.97 140.709L1731.04 140.875C1736.36 140.955 1740.29 145.874 1739.18 151.079L1736.88 161.9C1736.36 164.328 1736.94 166.861 1738.46 168.824L1745.23 177.576C1748.49 181.786 1747.09 187.92 1742.33 190.301L1732.42 195.25C1730.2 196.361 1728.58 198.391 1727.99 200.803L1725.37 211.55C1724.1 216.72 1718.43 219.449 1713.6 217.213L1703.55 212.563C1701.3 211.52 1698.7 211.52 1696.45 212.563L1686.4 217.213C1681.57 219.449 1675.9 216.72 1674.63 211.55L1672.01 200.803C1671.42 198.391 1669.8 196.361 1667.58 195.25L1657.67 190.301C1652.91 187.92 1651.51 181.786 1654.77 177.576L1661.54 168.824C1663.06 166.861 1663.64 164.328 1663.12 161.9L1660.82 151.079C1659.71 145.874 1663.64 140.955 1668.96 140.875L1680.03 140.709C1682.52 140.671 1684.86 139.544 1686.44 137.627L1693.47 129.082Z" fill="white"/>
</g>
<g opacity="0.6" style="mix-blend-mode:lighten">
<path d="M1871.47 129.082C1874.85 124.973 1881.15 124.973 1884.53 129.082L1891.56 137.627C1893.14 139.544 1895.48 140.671 1897.97 140.709L1909.04 140.875C1914.36 140.955 1918.29 145.874 1917.18 151.079L1914.88 161.9C1914.36 164.328 1914.94 166.861 1916.46 168.824L1923.23 177.576C1926.49 181.786 1925.09 187.92 1920.33 190.301L1910.42 195.25C1908.2 196.361 1906.58 198.391 1905.99 200.803L1903.37 211.55C1902.1 216.72 1896.43 219.449 1891.6 217.213L1881.55 212.563C1879.3 211.52 1876.7 211.52 1874.45 212.563L1864.4 217.213C1859.57 219.449 1853.9 216.72 1852.63 211.55L1850.01 200.803C1849.42 198.391 1847.8 196.361 1845.58 195.25L1835.67 190.301C1830.91 187.92 1829.51 181.786 1832.77 177.576L1839.54 168.824C1841.06 166.861 1841.64 164.328 1841.12 161.9L1838.82 151.079C1837.71 145.874 1841.64 140.955 1846.96 140.875L1858.03 140.709C1860.52 140.671 1862.86 139.544 1864.44 137.627L1871.47 129.082Z" fill="white"/>
</g>
<g opacity="0.6" style="mix-blend-mode:lighten">
<path d="M91.4694 366.082C94.8517 361.973 101.148 361.973 104.531 366.082L111.563 374.627C113.141 376.544 115.482 377.671 117.966 377.709L129.036 377.875C134.361 377.955 138.286 382.874 137.18 388.079L134.879 398.9C134.362 401.328 134.941 403.861 136.46 405.824L143.232 414.576C146.489 418.786 145.088 424.92 140.326 427.301L130.424 432.25C128.203 433.361 126.582 435.391 125.993 437.803L123.367 448.55C122.104 453.72 116.431 456.449 111.599 454.213L101.554 449.563C99.2996 448.52 96.7004 448.52 94.4463 449.563L84.4005 454.213C79.5686 456.449 73.8956 453.72 72.6327 448.55L70.0072 437.803C69.4181 435.391 67.7975 433.361 65.5758 432.25L55.6745 427.301C50.912 424.92 49.5108 418.786 52.7681 414.576L59.5398 405.824C61.0593 403.861 61.6377 401.328 61.1214 398.9L58.8204 388.079C57.7136 382.874 61.6394 377.955 66.964 377.875L78.0338 377.709C80.5177 377.671 82.8594 376.544 84.4373 374.627L91.4694 366.082Z" fill="white"/>
</g>
<g opacity="0.6" style="mix-blend-mode:lighten">
<path d="M269.469 366.082C272.852 361.973 279.148 361.973 282.531 366.082L289.563 374.627C291.141 376.544 293.482 377.671 295.966 377.709L307.036 377.875C312.361 377.955 316.286 382.874 315.18 388.079L312.879 398.9C312.362 401.328 312.941 403.861 314.46 405.824L321.232 414.576C324.489 418.786 323.088 424.92 318.326 427.301L308.424 432.25C306.203 433.361 304.582 435.391 303.993 437.803L301.367 448.55C300.104 453.72 294.431 456.449 289.599 454.213L279.554 449.563C277.3 448.52 274.7 448.52 272.446 449.563L262.401 454.213C257.569 456.449 251.896 453.72 250.633 448.55L248.007 437.803C247.418 435.391 245.797 433.361 243.576 432.25L233.674 427.301C228.912 424.92 227.511 418.786 230.768 414.576L237.54 405.824C239.059 403.861 239.638 401.328 239.121 398.9L236.82 388.079C235.714 382.874 239.639 377.955 244.964 377.875L256.034 377.709C258.518 377.671 260.859 376.544 262.437 374.627L269.469 366.082Z" fill="white"/>
</g>
<g opacity="0.6" style="mix-blend-mode:lighten">
<path d="M447.469 366.082C450.852 361.973 457.148 361.973 460.531 366.082L467.563 374.627C469.141 376.544 471.482 377.671 473.966 377.709L485.036 377.875C490.361 377.955 494.286 382.874 493.18 388.079L490.879 398.9C490.362 401.328 490.941 403.861 492.46 405.824L499.232 414.576C502.489 418.786 501.088 424.92 496.326 427.301L486.424 432.25C484.203 433.361 482.582 435.391 481.993 437.803L479.367 448.55C478.104 453.72 472.431 456.449 467.599 454.213L457.554 449.563C455.3 448.52 452.7 448.52 450.446 449.563L440.401 454.213C435.569 456.449 429.896 453.72 428.633 448.55L426.007 437.803C425.418 435.391 423.797 433.361 421.576 432.25L411.674 427.301C406.912 424.92 405.511 418.786 408.768 414.576L415.54 405.824C417.059 403.861 417.638 401.328 417.121 398.9L414.82 388.079C413.714 382.874 417.639 377.955 422.964 377.875L434.034 377.709C436.518 377.671 438.859 376.544 440.437 374.627L447.469 366.082Z" fill="white"/>
</g>
<g opacity="0.6" style="mix-blend-mode:lighten">
<path d="M625.469 366.082C628.852 361.973 635.148 361.973 638.531 366.082L645.563 374.627C647.141 376.544 649.482 377.671 651.966 377.709L663.036 377.875C668.361 377.955 672.286 382.874 671.18 388.079L668.879 398.9C668.362 401.328 668.941 403.861 670.46 405.824L677.232 414.576C680.489 418.786 679.088 424.92 674.326 427.301L664.424 432.25C662.203 433.361 660.582 435.391 659.993 437.803L657.367 448.55C656.104 453.72 650.431 456.449 645.599 454.213L635.554 449.563C633.3 448.52 630.7 448.52 628.446 449.563L618.401 454.213C613.569 456.449 607.896 453.72 606.633 448.55L604.007 437.803C603.418 435.391 601.797 433.361 599.576 432.25L589.674 427.301C584.912 424.92 583.511 418.786 586.768 414.576L593.54 405.824C595.059 403.861 595.638 401.328 595.121 398.9L592.82 388.079C591.714 382.874 595.639 377.955 600.964 377.875L612.034 377.709C614.518 377.671 616.859 376.544 618.437 374.627L625.469 366.082Z" fill="white"/>
</g>
<g opacity="0.6" style="mix-blend-mode:lighten">
<path d="M803.469 366.082C806.852 361.973 813.148 361.973 816.531 366.082L823.563 374.627C825.141 376.544 827.482 377.671 829.966 377.709L841.036 377.875C846.361 377.955 850.286 382.874 849.18 388.079L846.879 398.9C846.362 401.328 846.941 403.861 848.46 405.824L855.232 414.576C858.489 418.786 857.088 424.92 852.326 427.301L842.424 432.25C840.203 433.361 838.582 435.391 837.993 437.803L835.367 448.55C834.104 453.72 828.431 456.449 823.599 454.213L813.554 449.563C811.3 448.52 808.7 448.52 806.446 449.563L796.401 454.213C791.569 456.449 785.896 453.72 784.633 448.55L782.007 437.803C781.418 435.391 779.797 433.361 777.576 432.25L767.674 427.301C762.912 424.92 761.511 418.786 764.768 414.576L771.54 405.824C773.059 403.861 773.638 401.328 773.121 398.9L770.82 388.079C769.714 382.874 773.639 377.955 778.964 377.875L790.034 377.709C792.518 377.671 794.859 376.544 796.437 374.627L803.469 366.082Z" fill="white"/>
</g>
<g opacity="0.6" style="mix-blend-mode:lighten">
<path d="M981.469 366.082C984.852 361.973 991.148 361.973 994.531 366.082L1001.56 374.627C1003.14 376.544 1005.48 377.671 1007.97 377.709L1019.04 377.875C1024.36 377.955 1028.29 382.874 1027.18 388.079L1024.88 398.9C1024.36 401.328 1024.94 403.861 1026.46 405.824L1033.23 414.576C1036.49 418.786 1035.09 424.92 1030.33 427.301L1020.42 432.25C1018.2 433.361 1016.58 435.391 1015.99 437.803L1013.37 448.55C1012.1 453.72 1006.43 456.449 1001.6 454.213L991.554 449.563C989.3 448.52 986.7 448.52 984.446 449.563L974.401 454.213C969.569 456.449 963.896 453.72 962.633 448.55L960.007 437.803C959.418 435.391 957.797 433.361 955.576 432.25L945.674 427.301C940.912 424.92 939.511 418.786 942.768 414.576L949.54 405.824C951.059 403.861 951.638 401.328 951.121 398.9L948.82 388.079C947.714 382.874 951.639 377.955 956.964 377.875L968.034 377.709C970.518 377.671 972.859 376.544 974.437 374.627L981.469 366.082Z" fill="white"/>
</g>
<g opacity="0.6" style="mix-blend-mode:lighten">
<path d="M1159.47 366.082C1162.85 361.973 1169.15 361.973 1172.53 366.082L1179.56 374.627C1181.14 376.544 1183.48 377.671 1185.97 377.709L1197.04 377.875C1202.36 377.955 1206.29 382.874 1205.18 388.079L1202.88 398.9C1202.36 401.328 1202.94 403.861 1204.46 405.824L1211.23 414.576C1214.49 418.786 1213.09 424.92 1208.33 427.301L1198.42 432.25C1196.2 433.361 1194.58 435.391 1193.99 437.803L1191.37 448.55C1190.1 453.72 1184.43 456.449 1179.6 454.213L1169.55 449.563C1167.3 448.52 1164.7 448.52 1162.45 449.563L1152.4 454.213C1147.57 456.449 1141.9 453.72 1140.63 448.55L1138.01 437.803C1137.42 435.391 1135.8 433.361 1133.58 432.25L1123.67 427.301C1118.91 424.92 1117.51 418.786 1120.77 414.576L1127.54 405.824C1129.06 403.861 1129.64 401.328 1129.12 398.9L1126.82 388.079C1125.71 382.874 1129.64 377.955 1134.96 377.875L1146.03 377.709C1148.52 377.671 1150.86 376.544 1152.44 374.627L1159.47 366.082Z" fill="white"/>
</g>
<g opacity="0.6" style="mix-blend-mode:lighten">
<path d="M1337.47 366.082C1340.85 361.973 1347.15 361.973 1350.53 366.082L1357.56 374.627C1359.14 376.544 1361.48 377.671 1363.97 377.709L1375.04 377.875C1380.36 377.955 1384.29 382.874 1383.18 388.079L1380.88 398.9C1380.36 401.328 1380.94 403.861 1382.46 405.824L1389.23 414.576C1392.49 418.786 1391.09 424.92 1386.33 427.301L1376.42 432.25C1374.2 433.361 1372.58 435.391 1371.99 437.803L1369.37 448.55C1368.1 453.72 1362.43 456.449 1357.6 454.213L1347.55 449.563C1345.3 448.52 1342.7 448.52 1340.45 449.563L1330.4 454.213C1325.57 456.449 1319.9 453.72 1318.63 448.55L1316.01 437.803C1315.42 435.391 1313.8 433.361 1311.58 432.25L1301.67 427.301C1296.91 424.92 1295.51 418.786 1298.77 414.576L1305.54 405.824C1307.06 403.861 1307.64 401.328 1307.12 398.9L1304.82 388.079C1303.71 382.874 1307.64 377.955 1312.96 377.875L1324.03 377.709C1326.52 377.671 1328.86 376.544 1330.44 374.627L1337.47 366.082Z" fill="white"/>
</g>
<g opacity="0.6" style="mix-blend-mode:lighten">
<path d="M1515.47 366.082C1518.85 361.973 1525.15 361.973 1528.53 366.082L1535.56 374.627C1537.14 376.544 1539.48 377.671 1541.97 377.709L1553.04 377.875C1558.36 377.955 1562.29 382.874 1561.18 388.079L1558.88 398.9C1558.36 401.328 1558.94 403.861 1560.46 405.824L1567.23 414.576C1570.49 418.786 1569.09 424.92 1564.33 427.301L1554.42 432.25C1552.2 433.361 1550.58 435.391 1549.99 437.803L1547.37 448.55C1546.1 453.72 1540.43 456.449 1535.6 454.213L1525.55 449.563C1523.3 448.52 1520.7 448.52 1518.45 449.563L1508.4 454.213C1503.57 456.449 1497.9 453.72 1496.63 448.55L1494.01 437.803C1493.42 435.391 1491.8 433.361 1489.58 432.25L1479.67 427.301C1474.91 424.92 1473.51 418.786 1476.77 414.576L1483.54 405.824C1485.06 403.861 1485.64 401.328 1485.12 398.9L1482.82 388.079C1481.71 382.874 1485.64 377.955 1490.96 377.875L1502.03 377.709C1504.52 377.671 1506.86 376.544 1508.44 374.627L1515.47 366.082Z" fill="white"/>
</g>
<g opacity="0.6" style="mix-blend-mode:lighten">
<path d="M1693.47 366.082C1696.85 361.973 1703.15 361.973 1706.53 366.082L1713.56 374.627C1715.14 376.544 1717.48 377.671 1719.97 377.709L1731.04 377.875C1736.36 377.955 1740.29 382.874 1739.18 388.079L1736.88 398.9C1736.36 401.328 1736.94 403.861 1738.46 405.824L1745.23 414.576C1748.49 418.786 1747.09 424.92 1742.33 427.301L1732.42 432.25C1730.2 433.361 1728.58 435.391 1727.99 437.803L1725.37 448.55C1724.1 453.72 1718.43 456.449 1713.6 454.213L1703.55 449.563C1701.3 448.52 1698.7 448.52 1696.45 449.563L1686.4 454.213C1681.57 456.449 1675.9 453.72 1674.63 448.55L1672.01 437.803C1671.42 435.391 1669.8 433.361 1667.58 432.25L1657.67 427.301C1652.91 424.92 1651.51 418.786 1654.77 414.576L1661.54 405.824C1663.06 403.861 1663.64 401.328 1663.12 398.9L1660.82 388.079C1659.71 382.874 1663.64 377.955 1668.96 377.875L1680.03 377.709C1682.52 377.671 1684.86 376.544 1686.44 374.627L1693.47 366.082Z" fill="white"/>
</g>
<g opacity="0.6" style="mix-blend-mode:lighten">
<path d="M1871.47 366.082C1874.85 361.973 1881.15 361.973 1884.53 366.082L1891.56 374.627C1893.14 376.544 1895.48 377.671 1897.97 377.709L1909.04 377.875C1914.36 377.955 1918.29 382.874 1917.18 388.079L1914.88 398.9C1914.36 401.328 1914.94 403.861 1916.46 405.824L1923.23 414.576C1926.49 418.786 1925.09 424.92 1920.33 427.301L1910.42 432.25C1908.2 433.361 1906.58 435.391 1905.99 437.803L1903.37 448.55C1902.1 453.72 1896.43 456.449 1891.6 454.213L1881.55 449.563C1879.3 448.52 1876.7 448.52 1874.45 449.563L1864.4 454.213C1859.57 456.449 1853.9 453.72 1852.63 448.55L1850.01 437.803C1849.42 435.391 1847.8 433.361 1845.58 432.25L1835.67 427.301C1830.91 424.92 1829.51 418.786 1832.77 414.576L1839.54 405.824C1841.06 403.861 1841.64 401.328 1841.12 398.9L1838.82 388.079C1837.71 382.874 1841.64 377.955 1846.96 377.875L1858.03 377.709C1860.52 377.671 1862.86 376.544 1864.44 374.627L1871.47 366.082Z" fill="white"/>
</g>
<g opacity="0.6" style="mix-blend-mode:lighten">
<path d="M91.4694 603.082C94.8517 598.973 101.148 598.973 104.531 603.082L111.563 611.627C113.141 613.544 115.482 614.671 117.966 614.709L129.036 614.875C134.361 614.955 138.286 619.874 137.18 625.079L134.879 635.9C134.362 638.328 134.941 640.861 136.46 642.824L143.232 651.576C146.489 655.786 145.088 661.92 140.326 664.301L130.424 669.25C128.203 670.361 126.582 672.391 125.993 674.803L123.367 685.55C122.104 690.72 116.431 693.449 111.599 691.213L101.554 686.563C99.2996 685.52 96.7004 685.52 94.4463 686.563L84.4005 691.213C79.5686 693.449 73.8956 690.72 72.6327 685.55L70.0072 674.803C69.4181 672.391 67.7975 670.361 65.5758 669.25L55.6745 664.301C50.912 661.92 49.5108 655.786 52.7681 651.576L59.5398 642.824C61.0593 640.861 61.6377 638.328 61.1214 635.9L58.8204 625.079C57.7136 619.874 61.6394 614.955 66.964 614.875L78.0338 614.709C80.5177 614.671 82.8594 613.544 84.4373 611.627L91.4694 603.082Z" fill="white"/>
</g>
<g opacity="0.6" style="mix-blend-mode:lighten">
<path d="M269.469 603.082C272.852 598.973 279.148 598.973 282.531 603.082L289.563 611.627C291.141 613.544 293.482 614.671 295.966 614.709L307.036 614.875C312.361 614.955 316.286 619.874 315.18 625.079L312.879 635.9C312.362 638.328 312.941 640.861 314.46 642.824L321.232 651.576C324.489 655.786 323.088 661.92 318.326 664.301L308.424 669.25C306.203 670.361 304.582 672.391 303.993 674.803L301.367 685.55C300.104 690.72 294.431 693.449 289.599 691.213L279.554 686.563C277.3 685.52 274.7 685.52 272.446 686.563L262.401 691.213C257.569 693.449 251.896 690.72 250.633 685.55L248.007 674.803C247.418 672.391 245.797 670.361 243.576 669.25L233.674 664.301C228.912 661.92 227.511 655.786 230.768 651.576L237.54 642.824C239.059 640.861 239.638 638.328 239.121 635.9L236.82 625.079C235.714 619.874 239.639 614.955 244.964 614.875L256.034 614.709C258.518 614.671 260.859 613.544 262.437 611.627L269.469 603.082Z" fill="white"/>
</g>
<g opacity="0.6" style="mix-blend-mode:lighten">
<path d="M447.469 603.082C450.852 598.973 457.148 598.973 460.531 603.082L467.563 611.627C469.141 613.544 471.482 614.671 473.966 614.709L485.036 614.875C490.361 614.955 494.286 619.874 493.18 625.079L490.879 635.9C490.362 638.328 490.941 640.861 492.46 642.824L499.232 651.576C502.489 655.786 501.088 661.92 496.326 664.301L486.424 669.25C484.203 670.361 482.582 672.391 481.993 674.803L479.367 685.55C478.104 690.72 472.431 693.449 467.599 691.213L457.554 686.563C455.3 685.52 452.7 685.52 450.446 686.563L440.401 691.213C435.569 693.449 429.896 690.72 428.633 685.55L426.007 674.803C425.418 672.391 423.797 670.361 421.576 669.25L411.674 664.301C406.912 661.92 405.511 655.786 408.768 651.576L415.54 642.824C417.059 640.861 417.638 638.328 417.121 635.9L414.82 625.079C413.714 619.874 417.639 614.955 422.964 614.875L434.034 614.709C436.518 614.671 438.859 613.544 440.437 611.627L447.469 603.082Z" fill="white"/>
</g>
<g opacity="0.6" style="mix-blend-mode:lighten">
<path d="M625.469 603.082C628.852 598.973 635.148 598.973 638.531 603.082L645.563 611.627C647.141 613.544 649.482 614.671 651.966 614.709L663.036 614.875C668.361 614.955 672.286 619.874 671.18 625.079L668.879 635.9C668.362 638.328 668.941 640.861 670.46 642.824L677.232 651.576C680.489 655.786 679.088 661.92 674.326 664.301L664.424 669.25C662.203 670.361 660.582 672.391 659.993 674.803L657.367 685.55C656.104 690.72 650.431 693.449 645.599 691.213L635.554 686.563C633.3 685.52 630.7 685.52 628.446 686.563L618.401 691.213C613.569 693.449 607.896 690.72 606.633 685.55L604.007 674.803C603.418 672.391 601.797 670.361 599.576 669.25L589.674 664.301C584.912 661.92 583.511 655.786 586.768 651.576L593.54 642.824C595.059 640.861 595.638 638.328 595.121 635.9L592.82 625.079C591.714 619.874 595.639 614.955 600.964 614.875L612.034 614.709C614.518 614.671 616.859 613.544 618.437 611.627L625.469 603.082Z" fill="white"/>
</g>
<g opacity="0.6" style="mix-blend-mode:lighten">
<path d="M803.469 603.082C806.852 598.973 813.148 598.973 816.531 603.082L823.563 611.627C825.141 613.544 827.482 614.671 829.966 614.709L841.036 614.875C846.361 614.955 850.286 619.874 849.18 625.079L846.879 635.9C846.362 638.328 846.941 640.861 848.46 642.824L855.232 651.576C858.489 655.786 857.088 661.92 852.326 664.301L842.424 669.25C840.203 670.361 838.582 672.391 837.993 674.803L835.367 685.55C834.104 690.72 828.431 693.449 823.599 691.213L813.554 686.563C811.3 685.52 808.7 685.52 806.446 686.563L796.401 691.213C791.569 693.449 785.896 690.72 784.633 685.55L782.007 674.803C781.418 672.391 779.797 670.361 777.576 669.25L767.674 664.301C762.912 661.92 761.511 655.786 764.768 651.576L771.54 642.824C773.059 640.861 773.638 638.328 773.121 635.9L770.82 625.079C769.714 619.874 773.639 614.955 778.964 614.875L790.034 614.709C792.518 614.671 794.859 613.544 796.437 611.627L803.469 603.082Z" fill="white"/>
</g>
<g opacity="0.6" style="mix-blend-mode:lighten">
<path d="M981.469 603.082C984.852 598.973 991.148 598.973 994.531 603.082L1001.56 611.627C1003.14 613.544 1005.48 614.671 1007.97 614.709L1019.04 614.875C1024.36 614.955 1028.29 619.874 1027.18 625.079L1024.88 635.9C1024.36 638.328 1024.94 640.861 1026.46 642.824L1033.23 651.576C1036.49 655.786 1035.09 661.92 1030.33 664.301L1020.42 669.25C1018.2 670.361 1016.58 672.391 1015.99 674.803L1013.37 685.55C1012.1 690.72 1006.43 693.449 1001.6 691.213L991.554 686.563C989.3 685.52 986.7 685.52 984.446 686.563L974.401 691.213C969.569 693.449 963.896 690.72 962.633 685.55L960.007 674.803C959.418 672.391 957.797 670.361 955.576 669.25L945.674 664.301C940.912 661.92 939.511 655.786 942.768 651.576L949.54 642.824C951.059 640.861 951.638 638.328 951.121 635.9L948.82 625.079C947.714 619.874 951.639 614.955 956.964 614.875L968.034 614.709C970.518 614.671 972.859 613.544 974.437 611.627L981.469 603.082Z" fill="white"/>
</g>
<g opacity="0.6" style="mix-blend-mode:lighten">
<path d="M1159.47 603.082C1162.85 598.973 1169.15 598.973 1172.53 603.082L1179.56 611.627C1181.14 613.544 1183.48 614.671 1185.97 614.709L1197.04 614.875C1202.36 614.955 1206.29 619.874 1205.18 625.079L1202.88 635.9C1202.36 638.328 1202.94 640.861 1204.46 642.824L1211.23 651.576C1214.49 655.786 1213.09 661.92 1208.33 664.301L1198.42 669.25C1196.2 670.361 1194.58 672.391 1193.99 674.803L1191.37 685.55C1190.1 690.72 1184.43 693.449 1179.6 691.213L1169.55 686.563C1167.3 685.52 1164.7 685.52 1162.45 686.563L1152.4 691.213C1147.57 693.449 1141.9 690.72 1140.63 685.55L1138.01 674.803C1137.42 672.391 1135.8 670.361 1133.58 669.25L1123.67 664.301C1118.91 661.92 1117.51 655.786 1120.77 651.576L1127.54 642.824C1129.06 640.861 1129.64 638.328 1129.12 635.9L1126.82 625.079C1125.71 619.874 1129.64 614.955 1134.96 614.875L1146.03 614.709C1148.52 614.671 1150.86 613.544 1152.44 611.627L1159.47 603.082Z" fill="white"/>
</g>
<g opacity="0.6" style="mix-blend-mode:lighten">
<path d="M1337.47 603.082C1340.85 598.973 1347.15 598.973 1350.53 603.082L1357.56 611.627C1359.14 613.544 1361.48 614.671 1363.97 614.709L1375.04 614.875C1380.36 614.955 1384.29 619.874 1383.18 625.079L1380.88 635.9C1380.36 638.328 1380.94 640.861 1382.46 642.824L1389.23 651.576C1392.49 655.786 1391.09 661.92 1386.33 664.301L1376.42 669.25C1374.2 670.361 1372.58 672.391 1371.99 674.803L1369.37 685.55C1368.1 690.72 1362.43 693.449 1357.6 691.213L1347.55 686.563C1345.3 685.52 1342.7 685.52 1340.45 686.563L1330.4 691.213C1325.57 693.449 1319.9 690.72 1318.63 685.55L1316.01 674.803C1315.42 672.391 1313.8 670.361 1311.58 669.25L1301.67 664.301C1296.91 661.92 1295.51 655.786 1298.77 651.576L1305.54 642.824C1307.06 640.861 1307.64 638.328 1307.12 635.9L1304.82 625.079C1303.71 619.874 1307.64 614.955 1312.96 614.875L1324.03 614.709C1326.52 614.671 1328.86 613.544 1330.44 611.627L1337.47 603.082Z" fill="white"/>
</g>
<g opacity="0.6" style="mix-blend-mode:lighten">
<path d="M1515.47 603.082C1518.85 598.973 1525.15 598.973 1528.53 603.082L1535.56 611.627C1537.14 613.544 1539.48 614.671 1541.97 614.709L1553.04 614.875C1558.36 614.955 1562.29 619.874 1561.18 625.079L1558.88 635.9C1558.36 638.328 1558.94 640.861 1560.46 642.824L1567.23 651.576C1570.49 655.786 1569.09 661.92 1564.33 664.301L1554.42 669.25C1552.2 670.361 1550.58 672.391 1549.99 674.803L1547.37 685.55C1546.1 690.72 1540.43 693.449 1535.6 691.213L1525.55 686.563C1523.3 685.52 1520.7 685.52 1518.45 686.563L1508.4 691.213C1503.57 693.449 1497.9 690.72 1496.63 685.55L1494.01 674.803C1493.42 672.391 1491.8 670.361 1489.58 669.25L1479.67 664.301C1474.91 661.92 1473.51 655.786 1476.77 651.576L1483.54 642.824C1485.06 640.861 1485.64 638.328 1485.12 635.9L1482.82 625.079C1481.71 619.874 1485.64 614.955 1490.96 614.875L1502.03 614.709C1504.52 614.671 1506.86 613.544 1508.44 611.627L1515.47 603.082Z" fill="white"/>
</g>
<g opacity="0.6" style="mix-blend-mode:lighten">
<path d="M1693.47 603.082C1696.85 598.973 1703.15 598.973 1706.53 603.082L1713.56 611.627C1715.14 613.544 1717.48 614.671 1719.97 614.709L1731.04 614.875C1736.36 614.955 1740.29 619.874 1739.18 625.079L1736.88 635.9C1736.36 638.328 1736.94 640.861 1738.46 642.824L1745.23 651.576C1748.49 655.786 1747.09 661.92 1742.33 664.301L1732.42 669.25C1730.2 670.361 1728.58 672.391 1727.99 674.803L1725.37 685.55C1724.1 690.72 1718.43 693.449 1713.6 691.213L1703.55 686.563C1701.3 685.52 1698.7 685.52 1696.45 686.563L1686.4 691.213C1681.57 693.449 1675.9 690.72 1674.63 685.55L1672.01 674.803C1671.42 672.391 1669.8 670.361 1667.58 669.25L1657.67 664.301C1652.91 661.92 1651.51 655.786 1654.77 651.576L1661.54 642.824C1663.06 640.861 1663.64 638.328 1663.12 635.9L1660.82 625.079C1659.71 619.874 1663.64 614.955 1668.96 614.875L1680.03 614.709C1682.52 614.671 1684.86 613.544 1686.44 611.627L1693.47 603.082Z" fill="white"/>
</g>
<g opacity="0.6" style="mix-blend-mode:lighten">
<path d="M1871.47 603.082C1874.85 598.973 1881.15 598.973 1884.53 603.082L1891.56 611.627C1893.14 613.544 1895.48 614.671 1897.97 614.709L1909.04 614.875C1914.36 614.955 1918.29 619.874 1917.18 625.079L1914.88 635.9C1914.36 638.328 1914.94 640.861 1916.46 642.824L1923.23 651.576C1926.49 655.786 1925.09 661.92 1920.33 664.301L1910.42 669.25C1908.2 670.361 1906.58 672.391 1905.99 674.803L1903.37 685.55C1902.1 690.72 1896.43 693.449 1891.6 691.213L1881.55 686.563C1879.3 685.52 1876.7 685.52 1874.45 686.563L1864.4 691.213C1859.57 693.449 1853.9 690.72 1852.63 685.55L1850.01 674.803C1849.42 672.391 1847.8 670.361 1845.58 669.25L1835.67 664.301C1830.91 661.92 1829.51 655.786 1832.77 651.576L1839.54 642.824C1841.06 640.861 1841.64 638.328 1841.12 635.9L1838.82 625.079C1837.71 619.874 1841.64 614.955 1846.96 614.875L1858.03 614.709C1860.52 614.671 1862.86 613.544 1864.44 611.627L1871.47 603.082Z" fill="white"/>
</g>
<g opacity="0.6" style="mix-blend-mode:lighten">
<path d="M-2.53065 4.08246C0.85174 -0.0274836 7.14826 -0.0274866 10.5307 4.08245L17.5627 12.6271C19.1406 14.5444 21.4824 15.6713 23.9662 15.7086L35.036 15.8749C40.3606 15.9549 44.2864 20.8741 43.1796 26.0791L40.8786 36.9004C40.3623 39.3285 40.9407 41.8606 42.4602 43.8244L49.2319 52.5765C52.4892 56.7862 51.0881 62.9203 46.3255 65.3009L36.4242 70.2502C34.2025 71.3607 32.5819 73.3913 31.9928 75.8028L29.3673 86.5501C28.1044 91.7195 22.4314 94.4495 17.5995 92.213L7.5537 87.5634C5.2996 86.5201 2.70041 86.5201 0.44631 87.5634L-9.59945 92.213C-14.4314 94.4495 -20.1044 91.7195 -21.3673 86.5501L-23.9928 75.8028C-24.5819 73.3913 -26.2025 71.3607 -28.4242 70.2502L-38.3255 65.3009C-43.088 62.9203 -44.4892 56.7862 -41.2319 52.5765L-34.4602 43.8244C-32.9407 41.8606 -32.3623 39.3285 -32.8786 36.9004L-35.1796 26.0791C-36.2864 20.8741 -32.3606 15.9549 -27.036 15.8749L-15.9662 15.7086C-13.4823 15.6713 -11.1406 14.5444 -9.56268 12.6271L-2.53065 4.08246Z" fill="white"/>
</g>
<g opacity="0.6" style="mix-blend-mode:lighten">
<path d="M175.469 4.08246C178.852 -0.0274836 185.148 -0.0274866 188.531 4.08245L195.563 12.6271C197.141 14.5444 199.482 15.6713 201.966 15.7086L213.036 15.8749C218.361 15.9549 222.286 20.8741 221.18 26.0791L218.879 36.9004C218.362 39.3285 218.941 41.8606 220.46 43.8244L227.232 52.5765C230.489 56.7862 229.088 62.9203 224.326 65.3009L214.424 70.2502C212.203 71.3607 210.582 73.3913 209.993 75.8028L207.367 86.5501C206.104 91.7195 200.431 94.4495 195.599 92.213L185.554 87.5634C183.3 86.5201 180.7 86.5201 178.446 87.5634L168.401 92.213C163.569 94.4495 157.896 91.7195 156.633 86.5501L154.007 75.8028C153.418 73.3913 151.797 71.3607 149.576 70.2502L139.674 65.3009C134.912 62.9203 133.511 56.7862 136.768 52.5765L143.54 43.8244C145.059 41.8606 145.638 39.3285 145.121 36.9004L142.82 26.0791C141.714 20.8741 145.639 15.9549 150.964 15.8749L162.034 15.7086C164.518 15.6713 166.859 14.5444 168.437 12.6271L175.469 4.08246Z" fill="white"/>
</g>
<g opacity="0.6" style="mix-blend-mode:lighten">
<path d="M353.469 4.08246C356.852 -0.0274836 363.148 -0.0274866 366.531 4.08245L373.563 12.6271C375.141 14.5444 377.482 15.6713 379.966 15.7086L391.036 15.8749C396.361 15.9549 400.286 20.8741 399.18 26.0791L396.879 36.9004C396.362 39.3285 396.941 41.8606 398.46 43.8244L405.232 52.5765C408.489 56.7862 407.088 62.9203 402.326 65.3009L392.424 70.2502C390.203 71.3607 388.582 73.3913 387.993 75.8028L385.367 86.5501C384.104 91.7195 378.431 94.4495 373.599 92.213L363.554 87.5634C361.3 86.5201 358.7 86.5201 356.446 87.5634L346.401 92.213C341.569 94.4495 335.896 91.7195 334.633 86.5501L332.007 75.8028C331.418 73.3913 329.797 71.3607 327.576 70.2502L317.674 65.3009C312.912 62.9203 311.511 56.7862 314.768 52.5765L321.54 43.8244C323.059 41.8606 323.638 39.3285 323.121 36.9004L320.82 26.0791C319.714 20.8741 323.639 15.9549 328.964 15.8749L340.034 15.7086C342.518 15.6713 344.859 14.5444 346.437 12.6271L353.469 4.08246Z" fill="white"/>
</g>
<g opacity="0.6" style="mix-blend-mode:lighten">
<path d="M531.469 4.08246C534.852 -0.0274836 541.148 -0.0274866 544.531 4.08245L551.563 12.6271C553.141 14.5444 555.482 15.6713 557.966 15.7086L569.036 15.8749C574.361 15.9549 578.286 20.8741 577.18 26.0791L574.879 36.9004C574.362 39.3285 574.941 41.8606 576.46 43.8244L583.232 52.5765C586.489 56.7862 585.088 62.9203 580.326 65.3009L570.424 70.2502C568.203 71.3607 566.582 73.3913 565.993 75.8028L563.367 86.5501C562.104 91.7195 556.431 94.4495 551.599 92.213L541.554 87.5634C539.3 86.5201 536.7 86.5201 534.446 87.5634L524.401 92.213C519.569 94.4495 513.896 91.7195 512.633 86.5501L510.007 75.8028C509.418 73.3913 507.797 71.3607 505.576 70.2502L495.674 65.3009C490.912 62.9203 489.511 56.7862 492.768 52.5765L499.54 43.8244C501.059 41.8606 501.638 39.3285 501.121 36.9004L498.82 26.0791C497.714 20.8741 501.639 15.9549 506.964 15.8749L518.034 15.7086C520.518 15.6713 522.859 14.5444 524.437 12.6271L531.469 4.08246Z" fill="white"/>
</g>
<g opacity="0.6" style="mix-blend-mode:lighten">
<path d="M709.469 4.08246C712.852 -0.0274836 719.148 -0.0274866 722.531 4.08245L729.563 12.6271C731.141 14.5444 733.482 15.6713 735.966 15.7086L747.036 15.8749C752.361 15.9549 756.286 20.8741 755.18 26.0791L752.879 36.9004C752.362 39.3285 752.941 41.8606 754.46 43.8244L761.232 52.5765C764.489 56.7862 763.088 62.9203 758.326 65.3009L748.424 70.2502C746.203 71.3607 744.582 73.3913 743.993 75.8028L741.367 86.5501C740.104 91.7195 734.431 94.4495 729.599 92.213L719.554 87.5634C717.3 86.5201 714.7 86.5201 712.446 87.5634L702.401 92.213C697.569 94.4495 691.896 91.7195 690.633 86.5501L688.007 75.8028C687.418 73.3913 685.797 71.3607 683.576 70.2502L673.674 65.3009C668.912 62.9203 667.511 56.7862 670.768 52.5765L677.54 43.8244C679.059 41.8606 679.638 39.3285 679.121 36.9004L676.82 26.0791C675.714 20.8741 679.639 15.9549 684.964 15.8749L696.034 15.7086C698.518 15.6713 700.859 14.5444 702.437 12.6271L709.469 4.08246Z" fill="white"/>
</g>
<g opacity="0.6" style="mix-blend-mode:lighten">
<path d="M887.469 4.08246C890.852 -0.0274836 897.148 -0.0274866 900.531 4.08245L907.563 12.6271C909.141 14.5444 911.482 15.6713 913.966 15.7086L925.036 15.8749C930.361 15.9549 934.286 20.8741 933.18 26.0791L930.879 36.9004C930.362 39.3285 930.941 41.8606 932.46 43.8244L939.232 52.5765C942.489 56.7862 941.088 62.9203 936.326 65.3009L926.424 70.2502C924.203 71.3607 922.582 73.3913 921.993 75.8028L919.367 86.5501C918.104 91.7195 912.431 94.4495 907.599 92.213L897.554 87.5634C895.3 86.5201 892.7 86.5201 890.446 87.5634L880.401 92.213C875.569 94.4495 869.896 91.7195 868.633 86.5501L866.007 75.8028C865.418 73.3913 863.797 71.3607 861.576 70.2502L851.674 65.3009C846.912 62.9203 845.511 56.7862 848.768 52.5765L855.54 43.8244C857.059 41.8606 857.638 39.3285 857.121 36.9004L854.82 26.0791C853.714 20.8741 857.639 15.9549 862.964 15.8749L874.034 15.7086C876.518 15.6713 878.859 14.5444 880.437 12.6271L887.469 4.08246Z" fill="white"/>
</g>
<g opacity="0.6" style="mix-blend-mode:lighten">
<path d="M1065.47 4.08246C1068.85 -0.0274836 1075.15 -0.0274866 1078.53 4.08245L1085.56 12.6271C1087.14 14.5444 1089.48 15.6713 1091.97 15.7086L1103.04 15.8749C1108.36 15.9549 1112.29 20.8741 1111.18 26.0791L1108.88 36.9004C1108.36 39.3285 1108.94 41.8606 1110.46 43.8244L1117.23 52.5765C1120.49 56.7862 1119.09 62.9203 1114.33 65.3009L1104.42 70.2502C1102.2 71.3607 1100.58 73.3913 1099.99 75.8028L1097.37 86.5501C1096.1 91.7195 1090.43 94.4495 1085.6 92.213L1075.55 87.5634C1073.3 86.5201 1070.7 86.5201 1068.45 87.5634L1058.4 92.213C1053.57 94.4495 1047.9 91.7195 1046.63 86.5501L1044.01 75.8028C1043.42 73.3913 1041.8 71.3607 1039.58 70.2502L1029.67 65.3009C1024.91 62.9203 1023.51 56.7862 1026.77 52.5765L1033.54 43.8244C1035.06 41.8606 1035.64 39.3285 1035.12 36.9004L1032.82 26.0791C1031.71 20.8741 1035.64 15.9549 1040.96 15.8749L1052.03 15.7086C1054.52 15.6713 1056.86 14.5444 1058.44 12.6271L1065.47 4.08246Z" fill="white"/>
</g>
<g opacity="0.6" style="mix-blend-mode:lighten">
<path d="M1243.47 4.08246C1246.85 -0.0274836 1253.15 -0.0274866 1256.53 4.08245L1263.56 12.6271C1265.14 14.5444 1267.48 15.6713 1269.97 15.7086L1281.04 15.8749C1286.36 15.9549 1290.29 20.8741 1289.18 26.0791L1286.88 36.9004C1286.36 39.3285 1286.94 41.8606 1288.46 43.8244L1295.23 52.5765C1298.49 56.7862 1297.09 62.9203 1292.33 65.3009L1282.42 70.2502C1280.2 71.3607 1278.58 73.3913 1277.99 75.8028L1275.37 86.5501C1274.1 91.7195 1268.43 94.4495 1263.6 92.213L1253.55 87.5634C1251.3 86.5201 1248.7 86.5201 1246.45 87.5634L1236.4 92.213C1231.57 94.4495 1225.9 91.7195 1224.63 86.5501L1222.01 75.8028C1221.42 73.3913 1219.8 71.3607 1217.58 70.2502L1207.67 65.3009C1202.91 62.9203 1201.51 56.7862 1204.77 52.5765L1211.54 43.8244C1213.06 41.8606 1213.64 39.3285 1213.12 36.9004L1210.82 26.0791C1209.71 20.8741 1213.64 15.9549 1218.96 15.8749L1230.03 15.7086C1232.52 15.6713 1234.86 14.5444 1236.44 12.6271L1243.47 4.08246Z" fill="white"/>
</g>
<g opacity="0.6" style="mix-blend-mode:lighten">
<path d="M1421.47 4.08246C1424.85 -0.0274836 1431.15 -0.0274866 1434.53 4.08245L1441.56 12.6271C1443.14 14.5444 1445.48 15.6713 1447.97 15.7086L1459.04 15.8749C1464.36 15.9549 1468.29 20.8741 1467.18 26.0791L1464.88 36.9004C1464.36 39.3285 1464.94 41.8606 1466.46 43.8244L1473.23 52.5765C1476.49 56.7862 1475.09 62.9203 1470.33 65.3009L1460.42 70.2502C1458.2 71.3607 1456.58 73.3913 1455.99 75.8028L1453.37 86.5501C1452.1 91.7195 1446.43 94.4495 1441.6 92.213L1431.55 87.5634C1429.3 86.5201 1426.7 86.5201 1424.45 87.5634L1414.4 92.213C1409.57 94.4495 1403.9 91.7195 1402.63 86.5501L1400.01 75.8028C1399.42 73.3913 1397.8 71.3607 1395.58 70.2502L1385.67 65.3009C1380.91 62.9203 1379.51 56.7862 1382.77 52.5765L1389.54 43.8244C1391.06 41.8606 1391.64 39.3285 1391.12 36.9004L1388.82 26.0791C1387.71 20.8741 1391.64 15.9549 1396.96 15.8749L1408.03 15.7086C1410.52 15.6713 1412.86 14.5444 1414.44 12.6271L1421.47 4.08246Z" fill="white"/>
</g>
<g opacity="0.6" style="mix-blend-mode:lighten">
<path d="M1599.47 4.08246C1602.85 -0.0274836 1609.15 -0.0274866 1612.53 4.08245L1619.56 12.6271C1621.14 14.5444 1623.48 15.6713 1625.97 15.7086L1637.04 15.8749C1642.36 15.9549 1646.29 20.8741 1645.18 26.0791L1642.88 36.9004C1642.36 39.3285 1642.94 41.8606 1644.46 43.8244L1651.23 52.5765C1654.49 56.7862 1653.09 62.9203 1648.33 65.3009L1638.42 70.2502C1636.2 71.3607 1634.58 73.3913 1633.99 75.8028L1631.37 86.5501C1630.1 91.7195 1624.43 94.4495 1619.6 92.213L1609.55 87.5634C1607.3 86.5201 1604.7 86.5201 1602.45 87.5634L1592.4 92.213C1587.57 94.4495 1581.9 91.7195 1580.63 86.5501L1578.01 75.8028C1577.42 73.3913 1575.8 71.3607 1573.58 70.2502L1563.67 65.3009C1558.91 62.9203 1557.51 56.7862 1560.77 52.5765L1567.54 43.8244C1569.06 41.8606 1569.64 39.3285 1569.12 36.9004L1566.82 26.0791C1565.71 20.8741 1569.64 15.9549 1574.96 15.8749L1586.03 15.7086C1588.52 15.6713 1590.86 14.5444 1592.44 12.6271L1599.47 4.08246Z" fill="white"/>
</g>
<g opacity="0.6" style="mix-blend-mode:lighten">
<path d="M1777.47 4.08246C1780.85 -0.0274836 1787.15 -0.0274866 1790.53 4.08245L1797.56 12.6271C1799.14 14.5444 1801.48 15.6713 1803.97 15.7086L1815.04 15.8749C1820.36 15.9549 1824.29 20.8741 1823.18 26.0791L1820.88 36.9004C1820.36 39.3285 1820.94 41.8606 1822.46 43.8244L1829.23 52.5765C1832.49 56.7862 1831.09 62.9203 1826.33 65.3009L1816.42 70.2502C1814.2 71.3607 1812.58 73.3913 1811.99 75.8028L1809.37 86.5501C1808.1 91.7195 1802.43 94.4495 1797.6 92.213L1787.55 87.5634C1785.3 86.5201 1782.7 86.5201 1780.45 87.5634L1770.4 92.213C1765.57 94.4495 1759.9 91.7195 1758.63 86.5501L1756.01 75.8028C1755.42 73.3913 1753.8 71.3607 1751.58 70.2502L1741.67 65.3009C1736.91 62.9203 1735.51 56.7862 1738.77 52.5765L1745.54 43.8244C1747.06 41.8606 1747.64 39.3285 1747.12 36.9004L1744.82 26.0791C1743.71 20.8741 1747.64 15.9549 1752.96 15.8749L1764.03 15.7086C1766.52 15.6713 1768.86 14.5444 1770.44 12.6271L1777.47 4.08246Z" fill="white"/>
</g>
<g opacity="0.6" style="mix-blend-mode:lighten">
<path d="M1955.47 4.08246C1958.85 -0.0274836 1965.15 -0.0274866 1968.53 4.08245L1975.56 12.6271C1977.14 14.5444 1979.48 15.6713 1981.97 15.7086L1993.04 15.8749C1998.36 15.9549 2002.29 20.8741 2001.18 26.0791L1998.88 36.9004C1998.36 39.3285 1998.94 41.8606 2000.46 43.8244L2007.23 52.5765C2010.49 56.7862 2009.09 62.9203 2004.33 65.3009L1994.42 70.2502C1992.2 71.3607 1990.58 73.3913 1989.99 75.8028L1987.37 86.5501C1986.1 91.7195 1980.43 94.4495 1975.6 92.213L1965.55 87.5634C1963.3 86.5201 1960.7 86.5201 1958.45 87.5634L1948.4 92.213C1943.57 94.4495 1937.9 91.7195 1936.63 86.5501L1934.01 75.8028C1933.42 73.3913 1931.8 71.3607 1929.58 70.2502L1919.67 65.3009C1914.91 62.9203 1913.51 56.7862 1916.77 52.5765L1923.54 43.8244C1925.06 41.8606 1925.64 39.3285 1925.12 36.9004L1922.82 26.0791C1921.71 20.8741 1925.64 15.9549 1930.96 15.8749L1942.03 15.7086C1944.52 15.6713 1946.86 14.5444 1948.44 12.6271L1955.47 4.08246Z" fill="white"/>
</g>
<g opacity="0.6" style="mix-blend-mode:lighten">
<path d="M-2.53065 241.082C0.85174 236.973 7.14826 236.973 10.5307 241.082L17.5627 249.627C19.1406 251.544 21.4824 252.671 23.9662 252.709L35.036 252.875C40.3606 252.955 44.2864 257.874 43.1796 263.079L40.8786 273.9C40.3623 276.328 40.9407 278.861 42.4602 280.824L49.2319 289.576C52.4892 293.786 51.0881 299.92 46.3255 302.301L36.4242 307.25C34.2025 308.361 32.5819 310.391 31.9928 312.803L29.3673 323.55C28.1044 328.72 22.4314 331.449 17.5995 329.213L7.5537 324.563C5.2996 323.52 2.70041 323.52 0.44631 324.563L-9.59945 329.213C-14.4314 331.449 -20.1044 328.72 -21.3673 323.55L-23.9928 312.803C-24.5819 310.391 -26.2025 308.361 -28.4242 307.25L-38.3255 302.301C-43.088 299.92 -44.4892 293.786 -41.2319 289.576L-34.4602 280.824C-32.9407 278.861 -32.3623 276.328 -32.8786 273.9L-35.1796 263.079C-36.2864 257.874 -32.3606 252.955 -27.036 252.875L-15.9662 252.709C-13.4823 252.671 -11.1406 251.544 -9.56268 249.627L-2.53065 241.082Z" fill="white"/>
</g>
<g opacity="0.6" style="mix-blend-mode:lighten">
<path d="M175.469 241.082C178.852 236.973 185.148 236.973 188.531 241.082L195.563 249.627C197.141 251.544 199.482 252.671 201.966 252.709L213.036 252.875C218.361 252.955 222.286 257.874 221.18 263.079L218.879 273.9C218.362 276.328 218.941 278.861 220.46 280.824L227.232 289.576C230.489 293.786 229.088 299.92 224.326 302.301L214.424 307.25C212.203 308.361 210.582 310.391 209.993 312.803L207.367 323.55C206.104 328.72 200.431 331.449 195.599 329.213L185.554 324.563C183.3 323.52 180.7 323.52 178.446 324.563L168.401 329.213C163.569 331.449 157.896 328.72 156.633 323.55L154.007 312.803C153.418 310.391 151.797 308.361 149.576 307.25L139.674 302.301C134.912 299.92 133.511 293.786 136.768 289.576L143.54 280.824C145.059 278.861 145.638 276.328 145.121 273.9L142.82 263.079C141.714 257.874 145.639 252.955 150.964 252.875L162.034 252.709C164.518 252.671 166.859 251.544 168.437 249.627L175.469 241.082Z" fill="white"/>
</g>
<g opacity="0.6" style="mix-blend-mode:lighten">
<path d="M353.469 241.082C356.852 236.973 363.148 236.973 366.531 241.082L373.563 249.627C375.141 251.544 377.482 252.671 379.966 252.709L391.036 252.875C396.361 252.955 400.286 257.874 399.18 263.079L396.879 273.9C396.362 276.328 396.941 278.861 398.46 280.824L405.232 289.576C408.489 293.786 407.088 299.92 402.326 302.301L392.424 307.25C390.203 308.361 388.582 310.391 387.993 312.803L385.367 323.55C384.104 328.72 378.431 331.449 373.599 329.213L363.554 324.563C361.3 323.52 358.7 323.52 356.446 324.563L346.401 329.213C341.569 331.449 335.896 328.72 334.633 323.55L332.007 312.803C331.418 310.391 329.797 308.361 327.576 307.25L317.674 302.301C312.912 299.92 311.511 293.786 314.768 289.576L321.54 280.824C323.059 278.861 323.638 276.328 323.121 273.9L320.82 263.079C319.714 257.874 323.639 252.955 328.964 252.875L340.034 252.709C342.518 252.671 344.859 251.544 346.437 249.627L353.469 241.082Z" fill="white"/>
</g>
<g opacity="0.6" style="mix-blend-mode:lighten">
<path d="M531.469 241.082C534.852 236.973 541.148 236.973 544.531 241.082L551.563 249.627C553.141 251.544 555.482 252.671 557.966 252.709L569.036 252.875C574.361 252.955 578.286 257.874 577.18 263.079L574.879 273.9C574.362 276.328 574.941 278.861 576.46 280.824L583.232 289.576C586.489 293.786 585.088 299.92 580.326 302.301L570.424 307.25C568.203 308.361 566.582 310.391 565.993 312.803L563.367 323.55C562.104 328.72 556.431 331.449 551.599 329.213L541.554 324.563C539.3 323.52 536.7 323.52 534.446 324.563L524.401 329.213C519.569 331.449 513.896 328.72 512.633 323.55L510.007 312.803C509.418 310.391 507.797 308.361 505.576 307.25L495.674 302.301C490.912 299.92 489.511 293.786 492.768 289.576L499.54 280.824C501.059 278.861 501.638 276.328 501.121 273.9L498.82 263.079C497.714 257.874 501.639 252.955 506.964 252.875L518.034 252.709C520.518 252.671 522.859 251.544 524.437 249.627L531.469 241.082Z" fill="white"/>
</g>
<g opacity="0.6" style="mix-blend-mode:lighten">
<path d="M709.469 241.082C712.852 236.973 719.148 236.973 722.531 241.082L729.563 249.627C731.141 251.544 733.482 252.671 735.966 252.709L747.036 252.875C752.361 252.955 756.286 257.874 755.18 263.079L752.879 273.9C752.362 276.328 752.941 278.861 754.46 280.824L761.232 289.576C764.489 293.786 763.088 299.92 758.326 302.301L748.424 307.25C746.203 308.361 744.582 310.391 743.993 312.803L741.367 323.55C740.104 328.72 734.431 331.449 729.599 329.213L719.554 324.563C717.3 323.52 714.7 323.52 712.446 324.563L702.401 329.213C697.569 331.449 691.896 328.72 690.633 323.55L688.007 312.803C687.418 310.391 685.797 308.361 683.576 307.25L673.674 302.301C668.912 299.92 667.511 293.786 670.768 289.576L677.54 280.824C679.059 278.861 679.638 276.328 679.121 273.9L676.82 263.079C675.714 257.874 679.639 252.955 684.964 252.875L696.034 252.709C698.518 252.671 700.859 251.544 702.437 249.627L709.469 241.082Z" fill="white"/>
</g>
<g opacity="0.6" style="mix-blend-mode:lighten">
<path d="M887.469 241.082C890.852 236.973 897.148 236.973 900.531 241.082L907.563 249.627C909.141 251.544 911.482 252.671 913.966 252.709L925.036 252.875C930.361 252.955 934.286 257.874 933.18 263.079L930.879 273.9C930.362 276.328 930.941 278.861 932.46 280.824L939.232 289.576C942.489 293.786 941.088 299.92 936.326 302.301L926.424 307.25C924.203 308.361 922.582 310.391 921.993 312.803L919.367 323.55C918.104 328.72 912.431 331.449 907.599 329.213L897.554 324.563C895.3 323.52 892.7 323.52 890.446 324.563L880.401 329.213C875.569 331.449 869.896 328.72 868.633 323.55L866.007 312.803C865.418 310.391 863.797 308.361 861.576 307.25L851.674 302.301C846.912 299.92 845.511 293.786 848.768 289.576L855.54 280.824C857.059 278.861 857.638 276.328 857.121 273.9L854.82 263.079C853.714 257.874 857.639 252.955 862.964 252.875L874.034 252.709C876.518 252.671 878.859 251.544 880.437 249.627L887.469 241.082Z" fill="white"/>
</g>
<g opacity="0.6" style="mix-blend-mode:lighten">
<path d="M1065.47 241.082C1068.85 236.973 1075.15 236.973 1078.53 241.082L1085.56 249.627C1087.14 251.544 1089.48 252.671 1091.97 252.709L1103.04 252.875C1108.36 252.955 1112.29 257.874 1111.18 263.079L1108.88 273.9C1108.36 276.328 1108.94 278.861 1110.46 280.824L1117.23 289.576C1120.49 293.786 1119.09 299.92 1114.33 302.301L1104.42 307.25C1102.2 308.361 1100.58 310.391 1099.99 312.803L1097.37 323.55C1096.1 328.72 1090.43 331.449 1085.6 329.213L1075.55 324.563C1073.3 323.52 1070.7 323.52 1068.45 324.563L1058.4 329.213C1053.57 331.449 1047.9 328.72 1046.63 323.55L1044.01 312.803C1043.42 310.391 1041.8 308.361 1039.58 307.25L1029.67 302.301C1024.91 299.92 1023.51 293.786 1026.77 289.576L1033.54 280.824C1035.06 278.861 1035.64 276.328 1035.12 273.9L1032.82 263.079C1031.71 257.874 1035.64 252.955 1040.96 252.875L1052.03 252.709C1054.52 252.671 1056.86 251.544 1058.44 249.627L1065.47 241.082Z" fill="white"/>
</g>
<g opacity="0.6" style="mix-blend-mode:lighten">
<path d="M1243.47 241.082C1246.85 236.973 1253.15 236.973 1256.53 241.082L1263.56 249.627C1265.14 251.544 1267.48 252.671 1269.97 252.709L1281.04 252.875C1286.36 252.955 1290.29 257.874 1289.18 263.079L1286.88 273.9C1286.36 276.328 1286.94 278.861 1288.46 280.824L1295.23 289.576C1298.49 293.786 1297.09 299.92 1292.33 302.301L1282.42 307.25C1280.2 308.361 1278.58 310.391 1277.99 312.803L1275.37 323.55C1274.1 328.72 1268.43 331.449 1263.6 329.213L1253.55 324.563C1251.3 323.52 1248.7 323.52 1246.45 324.563L1236.4 329.213C1231.57 331.449 1225.9 328.72 1224.63 323.55L1222.01 312.803C1221.42 310.391 1219.8 308.361 1217.58 307.25L1207.67 302.301C1202.91 299.92 1201.51 293.786 1204.77 289.576L1211.54 280.824C1213.06 278.861 1213.64 276.328 1213.12 273.9L1210.82 263.079C1209.71 257.874 1213.64 252.955 1218.96 252.875L1230.03 252.709C1232.52 252.671 1234.86 251.544 1236.44 249.627L1243.47 241.082Z" fill="white"/>
</g>
<g opacity="0.6" style="mix-blend-mode:lighten">
<path d="M1421.47 241.082C1424.85 236.973 1431.15 236.973 1434.53 241.082L1441.56 249.627C1443.14 251.544 1445.48 252.671 1447.97 252.709L1459.04 252.875C1464.36 252.955 1468.29 257.874 1467.18 263.079L1464.88 273.9C1464.36 276.328 1464.94 278.861 1466.46 280.824L1473.23 289.576C1476.49 293.786 1475.09 299.92 1470.33 302.301L1460.42 307.25C1458.2 308.361 1456.58 310.391 1455.99 312.803L1453.37 323.55C1452.1 328.72 1446.43 331.449 1441.6 329.213L1431.55 324.563C1429.3 323.52 1426.7 323.52 1424.45 324.563L1414.4 329.213C1409.57 331.449 1403.9 328.72 1402.63 323.55L1400.01 312.803C1399.42 310.391 1397.8 308.361 1395.58 307.25L1385.67 302.301C1380.91 299.92 1379.51 293.786 1382.77 289.576L1389.54 280.824C1391.06 278.861 1391.64 276.328 1391.12 273.9L1388.82 263.079C1387.71 257.874 1391.64 252.955 1396.96 252.875L1408.03 252.709C1410.52 252.671 1412.86 251.544 1414.44 249.627L1421.47 241.082Z" fill="white"/>
</g>
<g opacity="0.6" style="mix-blend-mode:lighten">
<path d="M1599.47 241.082C1602.85 236.973 1609.15 236.973 1612.53 241.082L1619.56 249.627C1621.14 251.544 1623.48 252.671 1625.97 252.709L1637.04 252.875C1642.36 252.955 1646.29 257.874 1645.18 263.079L1642.88 273.9C1642.36 276.328 1642.94 278.861 1644.46 280.824L1651.23 289.576C1654.49 293.786 1653.09 299.92 1648.33 302.301L1638.42 307.25C1636.2 308.361 1634.58 310.391 1633.99 312.803L1631.37 323.55C1630.1 328.72 1624.43 331.449 1619.6 329.213L1609.55 324.563C1607.3 323.52 1604.7 323.52 1602.45 324.563L1592.4 329.213C1587.57 331.449 1581.9 328.72 1580.63 323.55L1578.01 312.803C1577.42 310.391 1575.8 308.361 1573.58 307.25L1563.67 302.301C1558.91 299.92 1557.51 293.786 1560.77 289.576L1567.54 280.824C1569.06 278.861 1569.64 276.328 1569.12 273.9L1566.82 263.079C1565.71 257.874 1569.64 252.955 1574.96 252.875L1586.03 252.709C1588.52 252.671 1590.86 251.544 1592.44 249.627L1599.47 241.082Z" fill="white"/>
</g>
<g opacity="0.6" style="mix-blend-mode:lighten">
<path d="M1777.47 241.082C1780.85 236.973 1787.15 236.973 1790.53 241.082L1797.56 249.627C1799.14 251.544 1801.48 252.671 1803.97 252.709L1815.04 252.875C1820.36 252.955 1824.29 257.874 1823.18 263.079L1820.88 273.9C1820.36 276.328 1820.94 278.861 1822.46 280.824L1829.23 289.576C1832.49 293.786 1831.09 299.92 1826.33 302.301L1816.42 307.25C1814.2 308.361 1812.58 310.391 1811.99 312.803L1809.37 323.55C1808.1 328.72 1802.43 331.449 1797.6 329.213L1787.55 324.563C1785.3 323.52 1782.7 323.52 1780.45 324.563L1770.4 329.213C1765.57 331.449 1759.9 328.72 1758.63 323.55L1756.01 312.803C1755.42 310.391 1753.8 308.361 1751.58 307.25L1741.67 302.301C1736.91 299.92 1735.51 293.786 1738.77 289.576L1745.54 280.824C1747.06 278.861 1747.64 276.328 1747.12 273.9L1744.82 263.079C1743.71 257.874 1747.64 252.955 1752.96 252.875L1764.03 252.709C1766.52 252.671 1768.86 251.544 1770.44 249.627L1777.47 241.082Z" fill="white"/>
</g>
<g opacity="0.6" style="mix-blend-mode:lighten">
<path d="M1955.47 241.082C1958.85 236.973 1965.15 236.973 1968.53 241.082L1975.56 249.627C1977.14 251.544 1979.48 252.671 1981.97 252.709L1993.04 252.875C1998.36 252.955 2002.29 257.874 2001.18 263.079L1998.88 273.9C1998.36 276.328 1998.94 278.861 2000.46 280.824L2007.23 289.576C2010.49 293.786 2009.09 299.92 2004.33 302.301L1994.42 307.25C1992.2 308.361 1990.58 310.391 1989.99 312.803L1987.37 323.55C1986.1 328.72 1980.43 331.449 1975.6 329.213L1965.55 324.563C1963.3 323.52 1960.7 323.52 1958.45 324.563L1948.4 329.213C1943.57 331.449 1937.9 328.72 1936.63 323.55L1934.01 312.803C1933.42 310.391 1931.8 308.361 1929.58 307.25L1919.67 302.301C1914.91 299.92 1913.51 293.786 1916.77 289.576L1923.54 280.824C1925.06 278.861 1925.64 276.328 1925.12 273.9L1922.82 263.079C1921.71 257.874 1925.64 252.955 1930.96 252.875L1942.03 252.709C1944.52 252.671 1946.86 251.544 1948.44 249.627L1955.47 241.082Z" fill="white"/>
</g>
<g opacity="0.6" style="mix-blend-mode:lighten">
<path d="M-2.53065 478.082C0.85174 473.973 7.14826 473.973 10.5307 478.082L17.5627 486.627C19.1406 488.544 21.4824 489.671 23.9662 489.709L35.036 489.875C40.3606 489.955 44.2864 494.874 43.1796 500.079L40.8786 510.9C40.3623 513.328 40.9407 515.861 42.4602 517.824L49.2319 526.576C52.4892 530.786 51.0881 536.92 46.3255 539.301L36.4242 544.25C34.2025 545.361 32.5819 547.391 31.9928 549.803L29.3673 560.55C28.1044 565.72 22.4314 568.449 17.5995 566.213L7.5537 561.563C5.2996 560.52 2.70041 560.52 0.44631 561.563L-9.59945 566.213C-14.4314 568.449 -20.1044 565.72 -21.3673 560.55L-23.9928 549.803C-24.5819 547.391 -26.2025 545.361 -28.4242 544.25L-38.3255 539.301C-43.088 536.92 -44.4892 530.786 -41.2319 526.576L-34.4602 517.824C-32.9407 515.861 -32.3623 513.328 -32.8786 510.9L-35.1796 500.079C-36.2864 494.874 -32.3606 489.955 -27.036 489.875L-15.9662 489.709C-13.4823 489.671 -11.1406 488.544 -9.56268 486.627L-2.53065 478.082Z" fill="white"/>
</g>
<g opacity="0.6" style="mix-blend-mode:lighten">
<path d="M175.469 478.082C178.852 473.973 185.148 473.973 188.531 478.082L195.563 486.627C197.141 488.544 199.482 489.671 201.966 489.709L213.036 489.875C218.361 489.955 222.286 494.874 221.18 500.079L218.879 510.9C218.362 513.328 218.941 515.861 220.46 517.824L227.232 526.576C230.489 530.786 229.088 536.92 224.326 539.301L214.424 544.25C212.203 545.361 210.582 547.391 209.993 549.803L207.367 560.55C206.104 565.72 200.431 568.449 195.599 566.213L185.554 561.563C183.3 560.52 180.7 560.52 178.446 561.563L168.401 566.213C163.569 568.449 157.896 565.72 156.633 560.55L154.007 549.803C153.418 547.391 151.797 545.361 149.576 544.25L139.674 539.301C134.912 536.92 133.511 530.786 136.768 526.576L143.54 517.824C145.059 515.861 145.638 513.328 145.121 510.9L142.82 500.079C141.714 494.874 145.639 489.955 150.964 489.875L162.034 489.709C164.518 489.671 166.859 488.544 168.437 486.627L175.469 478.082Z" fill="white"/>
</g>
<g opacity="0.6" style="mix-blend-mode:lighten">
<path d="M353.469 478.082C356.852 473.973 363.148 473.973 366.531 478.082L373.563 486.627C375.141 488.544 377.482 489.671 379.966 489.709L391.036 489.875C396.361 489.955 400.286 494.874 399.18 500.079L396.879 510.9C396.362 513.328 396.941 515.861 398.46 517.824L405.232 526.576C408.489 530.786 407.088 536.92 402.326 539.301L392.424 544.25C390.203 545.361 388.582 547.391 387.993 549.803L385.367 560.55C384.104 565.72 378.431 568.449 373.599 566.213L363.554 561.563C361.3 560.52 358.7 560.52 356.446 561.563L346.401 566.213C341.569 568.449 335.896 565.72 334.633 560.55L332.007 549.803C331.418 547.391 329.797 545.361 327.576 544.25L317.674 539.301C312.912 536.92 311.511 530.786 314.768 526.576L321.54 517.824C323.059 515.861 323.638 513.328 323.121 510.9L320.82 500.079C319.714 494.874 323.639 489.955 328.964 489.875L340.034 489.709C342.518 489.671 344.859 488.544 346.437 486.627L353.469 478.082Z" fill="white"/>
</g>
<g opacity="0.6" style="mix-blend-mode:lighten">
<path d="M531.469 478.082C534.852 473.973 541.148 473.973 544.531 478.082L551.563 486.627C553.141 488.544 555.482 489.671 557.966 489.709L569.036 489.875C574.361 489.955 578.286 494.874 577.18 500.079L574.879 510.9C574.362 513.328 574.941 515.861 576.46 517.824L583.232 526.576C586.489 530.786 585.088 536.92 580.326 539.301L570.424 544.25C568.203 545.361 566.582 547.391 565.993 549.803L563.367 560.55C562.104 565.72 556.431 568.449 551.599 566.213L541.554 561.563C539.3 560.52 536.7 560.52 534.446 561.563L524.401 566.213C519.569 568.449 513.896 565.72 512.633 560.55L510.007 549.803C509.418 547.391 507.797 545.361 505.576 544.25L495.674 539.301C490.912 536.92 489.511 530.786 492.768 526.576L499.54 517.824C501.059 515.861 501.638 513.328 501.121 510.9L498.82 500.079C497.714 494.874 501.639 489.955 506.964 489.875L518.034 489.709C520.518 489.671 522.859 488.544 524.437 486.627L531.469 478.082Z" fill="white"/>
</g>
<g opacity="0.6" style="mix-blend-mode:lighten">
<path d="M709.469 478.082C712.852 473.973 719.148 473.973 722.531 478.082L729.563 486.627C731.141 488.544 733.482 489.671 735.966 489.709L747.036 489.875C752.361 489.955 756.286 494.874 755.18 500.079L752.879 510.9C752.362 513.328 752.941 515.861 754.46 517.824L761.232 526.576C764.489 530.786 763.088 536.92 758.326 539.301L748.424 544.25C746.203 545.361 744.582 547.391 743.993 549.803L741.367 560.55C740.104 565.72 734.431 568.449 729.599 566.213L719.554 561.563C717.3 560.52 714.7 560.52 712.446 561.563L702.401 566.213C697.569 568.449 691.896 565.72 690.633 560.55L688.007 549.803C687.418 547.391 685.797 545.361 683.576 544.25L673.674 539.301C668.912 536.92 667.511 530.786 670.768 526.576L677.54 517.824C679.059 515.861 679.638 513.328 679.121 510.9L676.82 500.079C675.714 494.874 679.639 489.955 684.964 489.875L696.034 489.709C698.518 489.671 700.859 488.544 702.437 486.627L709.469 478.082Z" fill="white"/>
</g>
<g opacity="0.6" style="mix-blend-mode:lighten">
<path d="M887.469 478.082C890.852 473.973 897.148 473.973 900.531 478.082L907.563 486.627C909.141 488.544 911.482 489.671 913.966 489.709L925.036 489.875C930.361 489.955 934.286 494.874 933.18 500.079L930.879 510.9C930.362 513.328 930.941 515.861 932.46 517.824L939.232 526.576C942.489 530.786 941.088 536.92 936.326 539.301L926.424 544.25C924.203 545.361 922.582 547.391 921.993 549.803L919.367 560.55C918.104 565.72 912.431 568.449 907.599 566.213L897.554 561.563C895.3 560.52 892.7 560.52 890.446 561.563L880.401 566.213C875.569 568.449 869.896 565.72 868.633 560.55L866.007 549.803C865.418 547.391 863.797 545.361 861.576 544.25L851.674 539.301C846.912 536.92 845.511 530.786 848.768 526.576L855.54 517.824C857.059 515.861 857.638 513.328 857.121 510.9L854.82 500.079C853.714 494.874 857.639 489.955 862.964 489.875L874.034 489.709C876.518 489.671 878.859 488.544 880.437 486.627L887.469 478.082Z" fill="white"/>
</g>
<g opacity="0.6" style="mix-blend-mode:lighten">
<path d="M1065.47 478.082C1068.85 473.973 1075.15 473.973 1078.53 478.082L1085.56 486.627C1087.14 488.544 1089.48 489.671 1091.97 489.709L1103.04 489.875C1108.36 489.955 1112.29 494.874 1111.18 500.079L1108.88 510.9C1108.36 513.328 1108.94 515.861 1110.46 517.824L1117.23 526.576C1120.49 530.786 1119.09 536.92 1114.33 539.301L1104.42 544.25C1102.2 545.361 1100.58 547.391 1099.99 549.803L1097.37 560.55C1096.1 565.72 1090.43 568.449 1085.6 566.213L1075.55 561.563C1073.3 560.52 1070.7 560.52 1068.45 561.563L1058.4 566.213C1053.57 568.449 1047.9 565.72 1046.63 560.55L1044.01 549.803C1043.42 547.391 1041.8 545.361 1039.58 544.25L1029.67 539.301C1024.91 536.92 1023.51 530.786 1026.77 526.576L1033.54 517.824C1035.06 515.861 1035.64 513.328 1035.12 510.9L1032.82 500.079C1031.71 494.874 1035.64 489.955 1040.96 489.875L1052.03 489.709C1054.52 489.671 1056.86 488.544 1058.44 486.627L1065.47 478.082Z" fill="white"/>
</g>
<g opacity="0.6" style="mix-blend-mode:lighten">
<path d="M1243.47 478.082C1246.85 473.973 1253.15 473.973 1256.53 478.082L1263.56 486.627C1265.14 488.544 1267.48 489.671 1269.97 489.709L1281.04 489.875C1286.36 489.955 1290.29 494.874 1289.18 500.079L1286.88 510.9C1286.36 513.328 1286.94 515.861 1288.46 517.824L1295.23 526.576C1298.49 530.786 1297.09 536.92 1292.33 539.301L1282.42 544.25C1280.2 545.361 1278.58 547.391 1277.99 549.803L1275.37 560.55C1274.1 565.72 1268.43 568.449 1263.6 566.213L1253.55 561.563C1251.3 560.52 1248.7 560.52 1246.45 561.563L1236.4 566.213C1231.57 568.449 1225.9 565.72 1224.63 560.55L1222.01 549.803C1221.42 547.391 1219.8 545.361 1217.58 544.25L1207.67 539.301C1202.91 536.92 1201.51 530.786 1204.77 526.576L1211.54 517.824C1213.06 515.861 1213.64 513.328 1213.12 510.9L1210.82 500.079C1209.71 494.874 1213.64 489.955 1218.96 489.875L1230.03 489.709C1232.52 489.671 1234.86 488.544 1236.44 486.627L1243.47 478.082Z" fill="white"/>
</g>
<g opacity="0.6" style="mix-blend-mode:lighten">
<path d="M1421.47 478.082C1424.85 473.973 1431.15 473.973 1434.53 478.082L1441.56 486.627C1443.14 488.544 1445.48 489.671 1447.97 489.709L1459.04 489.875C1464.36 489.955 1468.29 494.874 1467.18 500.079L1464.88 510.9C1464.36 513.328 1464.94 515.861 1466.46 517.824L1473.23 526.576C1476.49 530.786 1475.09 536.92 1470.33 539.301L1460.42 544.25C1458.2 545.361 1456.58 547.391 1455.99 549.803L1453.37 560.55C1452.1 565.72 1446.43 568.449 1441.6 566.213L1431.55 561.563C1429.3 560.52 1426.7 560.52 1424.45 561.563L1414.4 566.213C1409.57 568.449 1403.9 565.72 1402.63 560.55L1400.01 549.803C1399.42 547.391 1397.8 545.361 1395.58 544.25L1385.67 539.301C1380.91 536.92 1379.51 530.786 1382.77 526.576L1389.54 517.824C1391.06 515.861 1391.64 513.328 1391.12 510.9L1388.82 500.079C1387.71 494.874 1391.64 489.955 1396.96 489.875L1408.03 489.709C1410.52 489.671 1412.86 488.544 1414.44 486.627L1421.47 478.082Z" fill="white"/>
</g>
<g opacity="0.6" style="mix-blend-mode:lighten">
<path d="M1599.47 478.082C1602.85 473.973 1609.15 473.973 1612.53 478.082L1619.56 486.627C1621.14 488.544 1623.48 489.671 1625.97 489.709L1637.04 489.875C1642.36 489.955 1646.29 494.874 1645.18 500.079L1642.88 510.9C1642.36 513.328 1642.94 515.861 1644.46 517.824L1651.23 526.576C1654.49 530.786 1653.09 536.92 1648.33 539.301L1638.42 544.25C1636.2 545.361 1634.58 547.391 1633.99 549.803L1631.37 560.55C1630.1 565.72 1624.43 568.449 1619.6 566.213L1609.55 561.563C1607.3 560.52 1604.7 560.52 1602.45 561.563L1592.4 566.213C1587.57 568.449 1581.9 565.72 1580.63 560.55L1578.01 549.803C1577.42 547.391 1575.8 545.361 1573.58 544.25L1563.67 539.301C1558.91 536.92 1557.51 530.786 1560.77 526.576L1567.54 517.824C1569.06 515.861 1569.64 513.328 1569.12 510.9L1566.82 500.079C1565.71 494.874 1569.64 489.955 1574.96 489.875L1586.03 489.709C1588.52 489.671 1590.86 488.544 1592.44 486.627L1599.47 478.082Z" fill="white"/>
</g>
<g opacity="0.6" style="mix-blend-mode:lighten">
<path d="M1777.47 478.082C1780.85 473.973 1787.15 473.973 1790.53 478.082L1797.56 486.627C1799.14 488.544 1801.48 489.671 1803.97 489.709L1815.04 489.875C1820.36 489.955 1824.29 494.874 1823.18 500.079L1820.88 510.9C1820.36 513.328 1820.94 515.861 1822.46 517.824L1829.23 526.576C1832.49 530.786 1831.09 536.92 1826.33 539.301L1816.42 544.25C1814.2 545.361 1812.58 547.391 1811.99 549.803L1809.37 560.55C1808.1 565.72 1802.43 568.449 1797.6 566.213L1787.55 561.563C1785.3 560.52 1782.7 560.52 1780.45 561.563L1770.4 566.213C1765.57 568.449 1759.9 565.72 1758.63 560.55L1756.01 549.803C1755.42 547.391 1753.8 545.361 1751.58 544.25L1741.67 539.301C1736.91 536.92 1735.51 530.786 1738.77 526.576L1745.54 517.824C1747.06 515.861 1747.64 513.328 1747.12 510.9L1744.82 500.079C1743.71 494.874 1747.64 489.955 1752.96 489.875L1764.03 489.709C1766.52 489.671 1768.86 488.544 1770.44 486.627L1777.47 478.082Z" fill="white"/>
</g>
<g opacity="0.6" style="mix-blend-mode:lighten">
<path d="M1955.47 478.082C1958.85 473.973 1965.15 473.973 1968.53 478.082L1975.56 486.627C1977.14 488.544 1979.48 489.671 1981.97 489.709L1993.04 489.875C1998.36 489.955 2002.29 494.874 2001.18 500.079L1998.88 510.9C1998.36 513.328 1998.94 515.861 2000.46 517.824L2007.23 526.576C2010.49 530.786 2009.09 536.92 2004.33 539.301L1994.42 544.25C1992.2 545.361 1990.58 547.391 1989.99 549.803L1987.37 560.55C1986.1 565.72 1980.43 568.449 1975.6 566.213L1965.55 561.563C1963.3 560.52 1960.7 560.52 1958.45 561.563L1948.4 566.213C1943.57 568.449 1937.9 565.72 1936.63 560.55L1934.01 549.803C1933.42 547.391 1931.8 545.361 1929.58 544.25L1919.67 539.301C1914.91 536.92 1913.51 530.786 1916.77 526.576L1923.54 517.824C1925.06 515.861 1925.64 513.328 1925.12 510.9L1922.82 500.079C1921.71 494.874 1925.64 489.955 1930.96 489.875L1942.03 489.709C1944.52 489.671 1946.86 488.544 1948.44 486.627L1955.47 478.082Z" fill="white"/>
</g>
<g opacity="0.6" style="mix-blend-mode:lighten">
<path d="M-2.53065 715.082C0.85174 710.973 7.14826 710.973 10.5307 715.082L17.5627 723.627C19.1406 725.544 21.4824 726.671 23.9662 726.709L35.036 726.875C40.3606 726.955 44.2864 731.874 43.1796 737.079L40.8786 747.9C40.3623 750.328 40.9407 752.861 42.4602 754.824L49.2319 763.576C52.4892 767.786 51.0881 773.92 46.3255 776.301L36.4242 781.25C34.2025 782.361 32.5819 784.391 31.9928 786.803L29.3673 797.55C28.1044 802.72 22.4314 805.449 17.5995 803.213L7.5537 798.563C5.2996 797.52 2.70041 797.52 0.44631 798.563L-9.59945 803.213C-14.4314 805.449 -20.1044 802.72 -21.3673 797.55L-23.9928 786.803C-24.5819 784.391 -26.2025 782.361 -28.4242 781.25L-38.3255 776.301C-43.088 773.92 -44.4892 767.786 -41.2319 763.576L-34.4602 754.824C-32.9407 752.861 -32.3623 750.328 -32.8786 747.9L-35.1796 737.079C-36.2864 731.874 -32.3606 726.955 -27.036 726.875L-15.9662 726.709C-13.4823 726.671 -11.1406 725.544 -9.56268 723.627L-2.53065 715.082Z" fill="white"/>
</g>
<g opacity="0.6" style="mix-blend-mode:lighten">
<path d="M175.469 715.082C178.852 710.973 185.148 710.973 188.531 715.082L195.563 723.627C197.141 725.544 199.482 726.671 201.966 726.709L213.036 726.875C218.361 726.955 222.286 731.874 221.18 737.079L218.879 747.9C218.362 750.328 218.941 752.861 220.46 754.824L227.232 763.576C230.489 767.786 229.088 773.92 224.326 776.301L214.424 781.25C212.203 782.361 210.582 784.391 209.993 786.803L207.367 797.55C206.104 802.72 200.431 805.449 195.599 803.213L185.554 798.563C183.3 797.52 180.7 797.52 178.446 798.563L168.401 803.213C163.569 805.449 157.896 802.72 156.633 797.55L154.007 786.803C153.418 784.391 151.797 782.361 149.576 781.25L139.674 776.301C134.912 773.92 133.511 767.786 136.768 763.576L143.54 754.824C145.059 752.861 145.638 750.328 145.121 747.9L142.82 737.079C141.714 731.874 145.639 726.955 150.964 726.875L162.034 726.709C164.518 726.671 166.859 725.544 168.437 723.627L175.469 715.082Z" fill="white"/>
</g>
<g opacity="0.6" style="mix-blend-mode:lighten">
<path d="M353.469 715.082C356.852 710.973 363.148 710.973 366.531 715.082L373.563 723.627C375.141 725.544 377.482 726.671 379.966 726.709L391.036 726.875C396.361 726.955 400.286 731.874 399.18 737.079L396.879 747.9C396.362 750.328 396.941 752.861 398.46 754.824L405.232 763.576C408.489 767.786 407.088 773.92 402.326 776.301L392.424 781.25C390.203 782.361 388.582 784.391 387.993 786.803L385.367 797.55C384.104 802.72 378.431 805.449 373.599 803.213L363.554 798.563C361.3 797.52 358.7 797.52 356.446 798.563L346.401 803.213C341.569 805.449 335.896 802.72 334.633 797.55L332.007 786.803C331.418 784.391 329.797 782.361 327.576 781.25L317.674 776.301C312.912 773.92 311.511 767.786 314.768 763.576L321.54 754.824C323.059 752.861 323.638 750.328 323.121 747.9L320.82 737.079C319.714 731.874 323.639 726.955 328.964 726.875L340.034 726.709C342.518 726.671 344.859 725.544 346.437 723.627L353.469 715.082Z" fill="white"/>
</g>
<g opacity="0.6" style="mix-blend-mode:lighten">
<path d="M531.469 715.082C534.852 710.973 541.148 710.973 544.531 715.082L551.563 723.627C553.141 725.544 555.482 726.671 557.966 726.709L569.036 726.875C574.361 726.955 578.286 731.874 577.18 737.079L574.879 747.9C574.362 750.328 574.941 752.861 576.46 754.824L583.232 763.576C586.489 767.786 585.088 773.92 580.326 776.301L570.424 781.25C568.203 782.361 566.582 784.391 565.993 786.803L563.367 797.55C562.104 802.72 556.431 805.449 551.599 803.213L541.554 798.563C539.3 797.52 536.7 797.52 534.446 798.563L524.401 803.213C519.569 805.449 513.896 802.72 512.633 797.55L510.007 786.803C509.418 784.391 507.797 782.361 505.576 781.25L495.674 776.301C490.912 773.92 489.511 767.786 492.768 763.576L499.54 754.824C501.059 752.861 501.638 750.328 501.121 747.9L498.82 737.079C497.714 731.874 501.639 726.955 506.964 726.875L518.034 726.709C520.518 726.671 522.859 725.544 524.437 723.627L531.469 715.082Z" fill="white"/>
</g>
<g opacity="0.6" style="mix-blend-mode:lighten">
<path d="M709.469 715.082C712.852 710.973 719.148 710.973 722.531 715.082L729.563 723.627C731.141 725.544 733.482 726.671 735.966 726.709L747.036 726.875C752.361 726.955 756.286 731.874 755.18 737.079L752.879 747.9C752.362 750.328 752.941 752.861 754.46 754.824L761.232 763.576C764.489 767.786 763.088 773.92 758.326 776.301L748.424 781.25C746.203 782.361 744.582 784.391 743.993 786.803L741.367 797.55C740.104 802.72 734.431 805.449 729.599 803.213L719.554 798.563C717.3 797.52 714.7 797.52 712.446 798.563L702.401 803.213C697.569 805.449 691.896 802.72 690.633 797.55L688.007 786.803C687.418 784.391 685.797 782.361 683.576 781.25L673.674 776.301C668.912 773.92 667.511 767.786 670.768 763.576L677.54 754.824C679.059 752.861 679.638 750.328 679.121 747.9L676.82 737.079C675.714 731.874 679.639 726.955 684.964 726.875L696.034 726.709C698.518 726.671 700.859 725.544 702.437 723.627L709.469 715.082Z" fill="white"/>
</g>
<g opacity="0.6" style="mix-blend-mode:lighten">
<path d="M887.469 715.082C890.852 710.973 897.148 710.973 900.531 715.082L907.563 723.627C909.141 725.544 911.482 726.671 913.966 726.709L925.036 726.875C930.361 726.955 934.286 731.874 933.18 737.079L930.879 747.9C930.362 750.328 930.941 752.861 932.46 754.824L939.232 763.576C942.489 767.786 941.088 773.92 936.326 776.301L926.424 781.25C924.203 782.361 922.582 784.391 921.993 786.803L919.367 797.55C918.104 802.72 912.431 805.449 907.599 803.213L897.554 798.563C895.3 797.52 892.7 797.52 890.446 798.563L880.401 803.213C875.569 805.449 869.896 802.72 868.633 797.55L866.007 786.803C865.418 784.391 863.797 782.361 861.576 781.25L851.674 776.301C846.912 773.92 845.511 767.786 848.768 763.576L855.54 754.824C857.059 752.861 857.638 750.328 857.121 747.9L854.82 737.079C853.714 731.874 857.639 726.955 862.964 726.875L874.034 726.709C876.518 726.671 878.859 725.544 880.437 723.627L887.469 715.082Z" fill="white"/>
</g>
<g opacity="0.6" style="mix-blend-mode:lighten">
<path d="M1065.47 715.082C1068.85 710.973 1075.15 710.973 1078.53 715.082L1085.56 723.627C1087.14 725.544 1089.48 726.671 1091.97 726.709L1103.04 726.875C1108.36 726.955 1112.29 731.874 1111.18 737.079L1108.88 747.9C1108.36 750.328 1108.94 752.861 1110.46 754.824L1117.23 763.576C1120.49 767.786 1119.09 773.92 1114.33 776.301L1104.42 781.25C1102.2 782.361 1100.58 784.391 1099.99 786.803L1097.37 797.55C1096.1 802.72 1090.43 805.449 1085.6 803.213L1075.55 798.563C1073.3 797.52 1070.7 797.52 1068.45 798.563L1058.4 803.213C1053.57 805.449 1047.9 802.72 1046.63 797.55L1044.01 786.803C1043.42 784.391 1041.8 782.361 1039.58 781.25L1029.67 776.301C1024.91 773.92 1023.51 767.786 1026.77 763.576L1033.54 754.824C1035.06 752.861 1035.64 750.328 1035.12 747.9L1032.82 737.079C1031.71 731.874 1035.64 726.955 1040.96 726.875L1052.03 726.709C1054.52 726.671 1056.86 725.544 1058.44 723.627L1065.47 715.082Z" fill="white"/>
</g>
<g opacity="0.6" style="mix-blend-mode:lighten">
<path d="M1243.47 715.082C1246.85 710.973 1253.15 710.973 1256.53 715.082L1263.56 723.627C1265.14 725.544 1267.48 726.671 1269.97 726.709L1281.04 726.875C1286.36 726.955 1290.29 731.874 1289.18 737.079L1286.88 747.9C1286.36 750.328 1286.94 752.861 1288.46 754.824L1295.23 763.576C1298.49 767.786 1297.09 773.92 1292.33 776.301L1282.42 781.25C1280.2 782.361 1278.58 784.391 1277.99 786.803L1275.37 797.55C1274.1 802.72 1268.43 805.449 1263.6 803.213L1253.55 798.563C1251.3 797.52 1248.7 797.52 1246.45 798.563L1236.4 803.213C1231.57 805.449 1225.9 802.72 1224.63 797.55L1222.01 786.803C1221.42 784.391 1219.8 782.361 1217.58 781.25L1207.67 776.301C1202.91 773.92 1201.51 767.786 1204.77 763.576L1211.54 754.824C1213.06 752.861 1213.64 750.328 1213.12 747.9L1210.82 737.079C1209.71 731.874 1213.64 726.955 1218.96 726.875L1230.03 726.709C1232.52 726.671 1234.86 725.544 1236.44 723.627L1243.47 715.082Z" fill="white"/>
</g>
<g opacity="0.6" style="mix-blend-mode:lighten">
<path d="M1421.47 715.082C1424.85 710.973 1431.15 710.973 1434.53 715.082L1441.56 723.627C1443.14 725.544 1445.48 726.671 1447.97 726.709L1459.04 726.875C1464.36 726.955 1468.29 731.874 1467.18 737.079L1464.88 747.9C1464.36 750.328 1464.94 752.861 1466.46 754.824L1473.23 763.576C1476.49 767.786 1475.09 773.92 1470.33 776.301L1460.42 781.25C1458.2 782.361 1456.58 784.391 1455.99 786.803L1453.37 797.55C1452.1 802.72 1446.43 805.449 1441.6 803.213L1431.55 798.563C1429.3 797.52 1426.7 797.52 1424.45 798.563L1414.4 803.213C1409.57 805.449 1403.9 802.72 1402.63 797.55L1400.01 786.803C1399.42 784.391 1397.8 782.361 1395.58 781.25L1385.67 776.301C1380.91 773.92 1379.51 767.786 1382.77 763.576L1389.54 754.824C1391.06 752.861 1391.64 750.328 1391.12 747.9L1388.82 737.079C1387.71 731.874 1391.64 726.955 1396.96 726.875L1408.03 726.709C1410.52 726.671 1412.86 725.544 1414.44 723.627L1421.47 715.082Z" fill="white"/>
</g>
<g opacity="0.6" style="mix-blend-mode:lighten">
<path d="M1599.47 715.082C1602.85 710.973 1609.15 710.973 1612.53 715.082L1619.56 723.627C1621.14 725.544 1623.48 726.671 1625.97 726.709L1637.04 726.875C1642.36 726.955 1646.29 731.874 1645.18 737.079L1642.88 747.9C1642.36 750.328 1642.94 752.861 1644.46 754.824L1651.23 763.576C1654.49 767.786 1653.09 773.92 1648.33 776.301L1638.42 781.25C1636.2 782.361 1634.58 784.391 1633.99 786.803L1631.37 797.55C1630.1 802.72 1624.43 805.449 1619.6 803.213L1609.55 798.563C1607.3 797.52 1604.7 797.52 1602.45 798.563L1592.4 803.213C1587.57 805.449 1581.9 802.72 1580.63 797.55L1578.01 786.803C1577.42 784.391 1575.8 782.361 1573.58 781.25L1563.67 776.301C1558.91 773.92 1557.51 767.786 1560.77 763.576L1567.54 754.824C1569.06 752.861 1569.64 750.328 1569.12 747.9L1566.82 737.079C1565.71 731.874 1569.64 726.955 1574.96 726.875L1586.03 726.709C1588.52 726.671 1590.86 725.544 1592.44 723.627L1599.47 715.082Z" fill="white"/>
</g>
<g opacity="0.6" style="mix-blend-mode:lighten">
<path d="M1777.47 715.082C1780.85 710.973 1787.15 710.973 1790.53 715.082L1797.56 723.627C1799.14 725.544 1801.48 726.671 1803.97 726.709L1815.04 726.875C1820.36 726.955 1824.29 731.874 1823.18 737.079L1820.88 747.9C1820.36 750.328 1820.94 752.861 1822.46 754.824L1829.23 763.576C1832.49 767.786 1831.09 773.92 1826.33 776.301L1816.42 781.25C1814.2 782.361 1812.58 784.391 1811.99 786.803L1809.37 797.55C1808.1 802.72 1802.43 805.449 1797.6 803.213L1787.55 798.563C1785.3 797.52 1782.7 797.52 1780.45 798.563L1770.4 803.213C1765.57 805.449 1759.9 802.72 1758.63 797.55L1756.01 786.803C1755.42 784.391 1753.8 782.361 1751.58 781.25L1741.67 776.301C1736.91 773.92 1735.51 767.786 1738.77 763.576L1745.54 754.824C1747.06 752.861 1747.64 750.328 1747.12 747.9L1744.82 737.079C1743.71 731.874 1747.64 726.955 1752.96 726.875L1764.03 726.709C1766.52 726.671 1768.86 725.544 1770.44 723.627L1777.47 715.082Z" fill="white"/>
</g>
<g opacity="0.6" style="mix-blend-mode:lighten">
<path d="M1955.47 715.082C1958.85 710.973 1965.15 710.973 1968.53 715.082L1975.56 723.627C1977.14 725.544 1979.48 726.671 1981.97 726.709L1993.04 726.875C1998.36 726.955 2002.29 731.874 2001.18 737.079L1998.88 747.9C1998.36 750.328 1998.94 752.861 2000.46 754.824L2007.23 763.576C2010.49 767.786 2009.09 773.92 2004.33 776.301L1994.42 781.25C1992.2 782.361 1990.58 784.391 1989.99 786.803L1987.37 797.55C1986.1 802.72 1980.43 805.449 1975.6 803.213L1965.55 798.563C1963.3 797.52 1960.7 797.52 1958.45 798.563L1948.4 803.213C1943.57 805.449 1937.9 802.72 1936.63 797.55L1934.01 786.803C1933.42 784.391 1931.8 782.361 1929.58 781.25L1919.67 776.301C1914.91 773.92 1913.51 767.786 1916.77 763.576L1923.54 754.824C1925.06 752.861 1925.64 750.328 1925.12 747.9L1922.82 737.079C1921.71 731.874 1925.64 726.955 1930.96 726.875L1942.03 726.709C1944.52 726.671 1946.86 725.544 1948.44 723.627L1955.47 715.082Z" fill="white"/>
</g>
</g>
</g>
<defs>
<radialGradient id="paint0_radial_2006_1188" cx="0" cy="0" r="1" gradientUnits="userSpaceOnUse" gradientTransform="translate(988.5 404) rotate(90) scale(404 988.5)">
<stop stop-color="#FFF56B"/>
<stop offset="0.615385" stop-color="#FFE604"/>
<stop offset="0.831731" stop-color="#FFD904"/>
</radialGradient>
<clipPath id="clip0_2006_1188">
<rect width="1977" height="808" fill="white"/>
</clipPath>
</defs>
</svg>
