<svg width="1977" height="2121" viewBox="0 0 1977 2121" fill="none" xmlns="http://www.w3.org/2000/svg">
<g clip-path="url(#clip0_2012_2129)">
<rect width="1977" height="2121" fill="white"/>
<rect width="1977" height="2121" fill="url(#paint0_linear_2012_2129)"/>
<g style="mix-blend-mode:soft-light" opacity="0.3">
<path d="M119.893 -168.87L515.241 -274.803L483.276 -394.1L527.666 -405.995L745.665 407.59L1255.46 270.992L1039.31 -535.657L1083.7 -547.551L1188.8 -155.324L1461.38 -228.362L1354.43 -627.525L1398.82 -639.419L1505.77 -240.256L1767.95 -310.506L1661 -709.67L1705.39 -721.564L1812.34 -322.401L2075.21 -392.837L2087.11 -348.448L1824.24 -278.011L2004.97 396.508L2256.05 329.232L2267.95 373.621L2016.87 440.898L2173.35 1024.9L2424.43 957.626L2436.33 1002.02L2185.24 1069.29L2375.55 1779.53L2626.63 1712.26L2638.53 1756.65L2387.45 1823.92L2495.61 2227.59L2451.22 2239.49L2343.06 1835.82L2080.88 1906.07L2189.04 2309.74L2144.65 2321.63L2036.49 1917.96L1209.03 2139.68L1318.13 2546.82L1273.74 2558.71L1045.14 1705.59L650.488 1811.34L878.151 2660.99L833.761 2672.88L725.598 2269.21L192.445 2412.07L61.756 2899.81L17.366 2887.92L141.189 2425.81L-103.939 2491.49L-115.832 2447.1L154.924 2374.55L267.588 1954.08C283.258 1895.6 328.935 1849.92 387.415 1834.25L594.203 1778.84L457.606 1269.05L-370.544 1490.95L-382.438 1446.56L445.711 1224.66L273.431 581.701L-556.107 803.975L-568.001 759.586L261.537 537.312L162.109 166.239L-667.428 388.514L-679.322 344.123L150.215 121.85L87.3978 -112.585L-742.14 109.689L-754.034 65.2994L75.5035 -156.976L43.5378 -276.273L87.927 -288.167L119.893 -168.87ZM399.309 1878.64C356.689 1890.06 323.397 1923.35 311.977 1965.97L206.18 2360.81L713.704 2224.82L606.098 1823.23L399.309 1878.64ZM1600.55 1381.33C1624.77 1471.73 1571.12 1564.66 1480.72 1588.88L1089.53 1693.7L1197.14 2095.29L2024.59 1873.57L1834.29 1163.33L1561.7 1236.37L1600.55 1381.33ZM2068.98 1861.68L2331.16 1791.43L2140.85 1081.19L1878.68 1151.44L2068.98 1861.68ZM501.996 1257.16L638.594 1766.95L1033.94 1661.02L897.344 1151.23L501.996 1257.16ZM1078.33 1649.12L1468.82 1544.49C1534.71 1526.83 1573.81 1459.11 1556.16 1393.23L1517.31 1248.26L1007.52 1384.86L1078.33 1649.12ZM995.63 1340.47L1505.42 1203.87L1348.94 619.869L839.146 756.467L995.63 1340.47ZM1549.81 1191.98L1822.39 1118.94L1665.91 534.937L1393.33 607.975L1549.81 1191.98ZM1866.78 1107.05L2128.96 1036.8L1972.48 452.792L1710.3 523.042L1866.78 1107.05ZM490.102 1212.77L885.45 1106.84L713.169 463.874L317.821 569.807L490.102 1212.77ZM827.252 712.078L1337.04 575.48L1267.35 315.382L757.559 451.979L827.252 712.078ZM1381.43 563.586L1654.01 490.547L1473.28 -183.972L1200.7 -110.934L1381.43 563.586ZM1698.4 478.653L1960.58 408.403L1779.85 -266.117L1517.67 -195.867L1698.4 478.653ZM305.926 525.418L701.275 419.485L601.846 48.4115L206.498 154.345L305.926 525.418ZM194.604 109.956L589.952 4.02235L527.136 -230.413L131.787 -124.479L194.604 109.956Z" fill="white"/>
</g>
</g>
<defs>
<linearGradient id="paint0_linear_2012_2129" x1="988.5" y1="0" x2="988.5" y2="2121" gradientUnits="userSpaceOnUse">
<stop stop-color="white"/>
<stop offset="1" stop-color="#D7D7D7"/>
</linearGradient>
<clipPath id="clip0_2012_2129">
<rect width="1977" height="2121" fill="white"/>
</clipPath>
</defs>
</svg>
